<svg width="89" height="32" viewBox="0 0 89 32" fill="none" xmlns="http://www.w3.org/2000/svg">
<path d="M17.5001 24.5H8.15019e-05V0.875H17.5001V5.65833H5.48342V9.91667H16.4501V14.5833H5.48342V19.7167H17.5001V24.5ZM29.0524 24.85C27.2246 24.85 25.6107 24.4806 24.2107 23.7417C22.8301 22.9833 21.7412 21.9236 20.944 20.5625C20.1662 19.2014 19.7774 17.5972 19.7774 15.75C19.7774 13.9028 20.1662 12.2986 20.944 10.9375C21.7218 9.57639 22.8107 8.52639 24.2107 7.7875C25.6107 7.02917 27.2246 6.65 29.0524 6.65C31.4246 6.65 33.369 7.25278 34.8857 8.45833C36.4218 9.66389 37.3649 11.2972 37.7149 13.3583H32.3482C32.1149 12.7167 31.7162 12.2208 31.1524 11.8708C30.6079 11.5014 29.9079 11.3167 29.0524 11.3167C27.9051 11.3167 26.9621 11.7056 26.2232 12.4833C25.5037 13.2417 25.144 14.3306 25.144 15.75C25.144 17.1694 25.5135 18.2681 26.2524 19.0458C26.9912 19.8042 27.9246 20.1833 29.0524 20.1833C30.8996 20.1833 32.0274 19.4153 32.4357 17.8792H37.8024C37.4913 20.0375 36.5774 21.7389 35.0607 22.9833C33.544 24.2278 31.5412 24.85 29.0524 24.85ZM48.3138 24.85C46.3888 24.85 44.7068 24.4806 43.2679 23.7417C41.829 22.9833 40.711 21.9236 39.9138 20.5625C39.136 19.1819 38.7471 17.5681 38.7471 15.7208C38.7471 13.8736 39.136 12.2694 39.9138 10.9083C40.711 9.54722 41.829 8.49722 43.2679 7.75833C44.7068 7.01944 46.3985 6.65 48.3429 6.65C50.2874 6.65 51.9596 7.01944 53.3596 7.75833C54.779 8.49722 55.8776 9.54722 56.6554 10.9083C57.4332 12.2694 57.8221 13.8833 57.8221 15.75C57.8221 17.5972 57.4332 19.2111 56.6554 20.5917C55.8776 21.9528 54.779 23.0028 53.3596 23.7417C51.9401 24.4806 50.2582 24.85 48.3138 24.85ZM48.3138 20.1833C49.6554 20.1833 50.6763 19.7847 51.3763 18.9875C52.0957 18.1708 52.4554 17.0819 52.4554 15.7208C52.4554 14.3597 52.0957 13.2903 51.3763 12.5125C50.6763 11.7153 49.6554 11.3167 48.3138 11.3167C46.9526 11.3167 45.9124 11.7153 45.1929 12.5125C44.4735 13.2903 44.1138 14.3597 44.1138 15.7208C44.1138 17.0819 44.4735 18.1708 45.1929 18.9875C45.9124 19.7847 46.9526 20.1833 48.3138 20.1833ZM60.4808 24.5V4.17233e-07H65.8475V24.5H60.4808ZM70.3843 31.5V27.1833H74.1176L75.3134 24.2958L67.8759 7H73.5634L78.1134 18.1708H78.2301L82.6926 7H88.2343L80.7093 24.5L79.3968 27.6208C78.8718 28.8653 78.2398 29.8181 77.5009 30.4792C76.7815 31.1597 75.712 31.5 74.2926 31.5H70.3843Z" fill="white"/>
</svg>
