<svg width="150" height="49" viewBox="0 0 150 49" fill="none" xmlns="http://www.w3.org/2000/svg">
<path d="M78.8333 36.0156H61.3333V12.3906H78.8333V17.174H66.8167V21.4323H77.7833V26.099H66.8167V31.2323H78.8333V36.0156ZM90.3856 36.3656C88.5578 36.3656 86.9439 35.9962 85.5439 35.2573C84.1634 34.499 83.0745 33.4392 82.2773 32.0781C81.4995 30.717 81.1106 29.1128 81.1106 27.2656C81.1106 25.4184 81.4995 23.8142 82.2773 22.4531C83.0551 21.092 84.1439 20.042 85.5439 19.3031C86.9439 18.5448 88.5578 18.1656 90.3856 18.1656C92.7578 18.1656 94.7023 18.7684 96.2189 19.974C97.7551 21.1795 98.6981 22.8128 99.0481 24.874H93.6814C93.4481 24.2323 93.0495 23.7365 92.4856 23.3865C91.9412 23.017 91.2412 22.8323 90.3856 22.8323C89.2384 22.8323 88.2953 23.2212 87.5564 23.999C86.837 24.7573 86.4773 25.8462 86.4773 27.2656C86.4773 28.6851 86.8467 29.7837 87.5856 30.5615C88.3245 31.3198 89.2578 31.699 90.3856 31.699C92.2328 31.699 93.3606 30.9309 93.7689 29.3948H99.1356C98.8245 31.5531 97.9106 33.2545 96.3939 34.499C94.8773 35.7434 92.8745 36.3656 90.3856 36.3656ZM109.647 36.3656C107.722 36.3656 106.04 35.9962 104.601 35.2573C103.162 34.499 102.044 33.4392 101.247 32.0781C100.469 30.6976 100.08 29.0837 100.08 27.2365C100.08 25.3892 100.469 23.7851 101.247 22.424C102.044 21.0628 103.162 20.0128 104.601 19.274C106.04 18.5351 107.732 18.1656 109.676 18.1656C111.621 18.1656 113.293 18.5351 114.693 19.274C116.112 20.0128 117.211 21.0628 117.989 22.424C118.766 23.7851 119.155 25.399 119.155 27.2656C119.155 29.1128 118.766 30.7267 117.989 32.1073C117.211 33.4684 116.112 34.5184 114.693 35.2573C113.273 35.9962 111.591 36.3656 109.647 36.3656ZM109.647 31.699C110.989 31.699 112.01 31.3003 112.71 30.5031C113.429 29.6865 113.789 28.5976 113.789 27.2365C113.789 25.8753 113.429 24.8059 112.71 24.0281C112.01 23.2309 110.989 22.8323 109.647 22.8323C108.286 22.8323 107.246 23.2309 106.526 24.0281C105.807 24.8059 105.447 25.8753 105.447 27.2365C105.447 28.5976 105.807 29.6865 106.526 30.5031C107.246 31.3003 108.286 31.699 109.647 31.699ZM121.814 36.0156V11.5156H127.181V36.0156H121.814ZM131.718 43.0156V38.699H135.451L136.647 35.8115L129.209 18.5156H134.897L139.447 29.6865H139.563L144.026 18.5156H149.568L142.043 36.0156L140.73 39.1365C140.205 40.3809 139.573 41.3337 138.834 41.9948C138.115 42.6753 137.045 43.0156 135.626 43.0156H131.718Z" fill="white"/>
<mask id="mask0_582_8" style="mask-type:luminance" maskUnits="userSpaceOnUse" x="2" y="0" width="44" height="24">
<path d="M9.76913 6.31713C9.02254 6.7519 8.23912 7.21208 7.43497 7.72736C6.659 8.22473 6.41166 8.72799 7.07166 9.4373L16.673 19.0387C17.6924 20.0581 18.8348 21.0338 19.9581 21.994C21.2305 23.0815 21.3992 23.4399 20.4396 21.7779L11.8784 6.94956C11.2313 5.82848 10.9331 5.63945 9.76913 6.31713ZM15.6389 2.89988C14.8896 3.3149 14.0917 3.77282 13.2361 4.27344C12.0985 4.93924 12.1538 5.32739 12.7916 6.43173L22.1269 22.6008C22.6973 23.5888 22.8337 23.9898 22.4698 22.6314L17.4357 3.84395C17.0792 2.51376 17.0903 2.09629 15.6389 2.89988ZM22.1209 0.123736C21.1558 0.336854 20.1458 0.68927 19.0337 1.18023C17.8141 1.71861 18.1204 2.34288 18.4253 3.48097L23.4665 22.2949C23.7971 23.5289 23.7658 23.7086 23.7658 22.3112V1.6035C23.7658 0.114779 23.6783 -0.219959 22.1209 0.123736ZM38.812 6.31713C39.5586 6.7519 40.342 7.21208 41.1461 7.72736C41.9221 8.22473 42.1694 8.72799 41.5094 9.4373L31.9081 19.0387C30.8887 20.0581 29.7463 21.0338 28.623 21.994C27.3506 23.0815 27.182 23.4399 28.1415 21.7779L36.7028 6.94951C37.3499 5.82848 37.648 5.63945 38.812 6.31713ZM32.9422 2.89988C33.6916 3.3149 34.4894 3.77282 35.345 4.27344C36.4827 4.93924 36.4273 5.32739 35.7895 6.43173L26.4543 22.6008C25.8838 23.5888 25.7474 23.9898 26.1113 22.6314L31.1454 3.84395C31.5019 2.51376 31.4909 2.09629 32.9422 2.89988ZM26.4602 0.123736C27.4252 0.336854 28.4353 0.68927 29.5474 1.18023C30.767 1.71861 30.4608 2.34288 30.1558 3.48097L25.1146 22.2949C24.7841 23.5289 24.8153 23.7086 24.8153 22.3112V1.6035C24.8153 0.114779 24.9028 -0.219959 26.4602 0.123736ZM45.2176 13.2864C40.982 15.6174 36.7556 17.9723 32.5231 20.3113C31.3539 20.9576 31.5632 20.868 32.4017 20.0293L42.4286 10.0025C43.5331 8.89793 44.4088 10.0786 45.0887 11.0999C45.6985 12.0154 46.2375 12.6944 45.2176 13.2864ZM3.36352 13.2864C7.59906 15.6174 11.8255 17.9723 16.058 20.3113C17.2272 20.9576 17.018 20.868 16.1794 20.0293L6.15254 10.0025C5.04796 8.89793 4.17229 10.0786 3.49244 11.0999C2.88264 12.0154 2.34365 12.6944 3.36352 13.2864Z" fill="white"/>
</mask>
<g mask="url(#mask0_582_8)">
<path d="M46.2375 -0.220703H2.34369V23.989H46.2375V-0.220703Z" fill="url(#paint0_linear_582_8)"/>
</g>
<mask id="mask1_582_8" style="mask-type:luminance" maskUnits="userSpaceOnUse" x="0" y="15" width="24" height="34">
<path d="M10.6807 31.2701C10.9683 31.3006 11.1867 31.2194 11.3478 30.9598V25.7798C11.176 25.2994 10.9325 24.9272 10.5793 24.578L5.17714 21.5728C4.88944 21.5421 4.67113 21.6235 4.50996 21.8831V27.063C4.68179 27.5433 4.92522 27.9156 5.27839 28.2648L10.6807 31.2701ZM18.1004 35.3975C18.3881 35.4281 18.6063 35.3468 18.7675 35.0872V29.9074C18.5957 29.4269 18.3522 29.0546 17.999 28.7053L12.5969 25.7002C12.3091 25.6695 12.0909 25.7508 11.9297 26.0105V31.1904C12.1014 31.6708 12.3449 32.043 12.698 32.3922L18.1004 35.3975ZM10.6808 38.5159C10.9684 38.5464 11.1866 38.4653 11.3478 38.2057V33.0257C11.176 32.5453 10.9326 32.173 10.5795 31.8239L5.17714 28.8187C4.88944 28.788 4.67123 28.8691 4.50996 29.1289V34.3086C4.68174 34.7891 4.92512 35.1613 5.27825 35.5105L10.6808 38.5159ZM18.1004 42.6433C18.388 42.6739 18.6063 42.5926 18.7675 42.3329V37.1531C18.5957 36.6728 18.3522 36.3006 17.9992 35.9513L12.5968 32.946C12.3091 32.9155 12.0908 32.9967 11.9297 33.2563V38.4362C12.1015 38.9167 12.3449 39.2889 12.6981 39.6382L18.1004 42.6433ZM0.060311 25.3621C0.104999 23.5004 0.16072 21.3355 0.179199 18.7926L3.15984 20.4507C3.51291 20.7999 3.75635 21.1722 3.92817 21.6527V26.8324C3.76705 27.092 3.54879 27.1733 3.26114 27.1427L0.060311 25.3621ZM0.182168 32.6757C-0.0437252 30.9816 -0.0208607 28.8528 0.0460776 25.9643L3.15975 27.6963C3.51296 28.0456 3.75639 28.4179 3.92822 28.8984V34.0781C3.76709 34.3378 3.54884 34.419 3.26119 34.3885L0.182168 32.6757ZM3.92822 38.7284C1.72637 37.0995 0.718618 35.6297 0.288799 33.3451L3.15988 34.9422C3.51296 35.2915 3.75639 35.6637 3.92822 36.1441V38.7284ZM11.3478 43.1815C8.36245 41.5192 6.1476 40.2754 4.50996 39.1446V36.3747C4.67118 36.1149 4.88944 36.0337 5.17704 36.0643L10.5793 39.0695C10.9325 39.4187 11.176 39.7908 11.3478 40.2712V43.1815ZM18.7675 47.3661C16.1418 45.8519 13.8799 44.5913 11.9297 43.5056V40.502C12.0908 40.2424 12.309 40.1611 12.5967 40.1917L17.9991 43.197C18.3522 43.5463 18.5956 43.9186 18.7674 44.399V47.3661H18.7675ZM23.1691 46.0729L23.1683 46.4094C23.1683 48.3398 21.589 49.0021 19.6586 47.8814L19.3493 47.7025V44.6294C19.5105 44.3698 19.7288 44.2885 20.0164 44.3191L23.1691 46.0729ZM23.2761 38.8867C23.2308 40.7638 23.1808 42.9319 23.1704 45.4636L20.1176 43.7654C19.7645 43.4162 19.5211 43.0439 19.3493 42.5635V37.3837C19.5105 37.124 19.7288 37.0427 20.0164 37.0734L23.2761 38.8867ZM23.257 31.6303C23.4022 33.34 23.3585 35.4687 23.2906 38.2847L20.1175 36.5196C19.7644 36.1703 19.521 35.798 19.3492 35.3176V30.1379C19.5106 29.8782 19.7287 29.797 20.0164 29.8277L23.257 31.6303ZM19.3493 24.7283C21.8583 26.5665 22.8465 28.1875 23.1907 30.9833L20.1177 29.2739C19.7645 28.9246 19.5211 28.5525 19.3492 28.072V24.7283H19.3493ZM11.9297 20.2886C14.9076 21.9467 17.1238 23.1888 18.7675 24.3155V27.8414C18.6064 28.1011 18.3881 28.1823 18.1004 28.1517L12.6982 25.1465C12.3451 24.7972 12.1015 24.425 11.9297 23.9445V20.2886H11.9297ZM4.50996 16.1023C7.13281 17.6157 9.39651 18.8783 11.3478 19.9647V23.7141C11.1867 23.9737 10.9683 24.0549 10.6807 24.0243L5.27839 21.019C4.92522 20.6698 4.68179 20.2976 4.50996 19.8172V16.1023ZM3.69563 15.6313L3.92817 15.7659V19.5866C3.76705 19.8463 3.5487 19.9276 3.26114 19.8969L0.183158 18.1848C0.184902 17.8329 0.185799 17.4714 0.185799 17.1036C0.185846 15.1732 1.76521 14.5107 3.69563 15.6313Z" fill="white"/>
</mask>
<g mask="url(#mask1_582_8)">
<path d="M23.4022 14.5117H-0.0437317V49.0031H23.4022V14.5117Z" fill="url(#paint1_linear_582_8)"/>
</g>
<mask id="mask2_582_8" style="mask-type:luminance" maskUnits="userSpaceOnUse" x="25" y="15" width="24" height="34">
<path d="M44.886 15.6313C21.9522 28.9462 25.4133 23.4754 25.4133 46.4094C25.4133 47.5577 25.9722 48.2572 26.8314 48.3997C26.7547 37.1753 43.9896 35.93 43.4473 25.4314C41.7766 32.7228 33.056 34.735 28.6412 39.058C25.75 23.8555 38.7572 28.2846 44.9771 19.3054C50.4259 43.9976 29.6461 37.9627 27.777 48.3533C28.1365 48.2697 28.5221 48.1142 28.9229 47.8814C51.8568 34.5669 48.3956 40.0374 48.3956 17.1037C48.3956 15.1732 46.8162 14.5107 44.886 15.6313Z" fill="white"/>
</mask>
<g mask="url(#mask2_582_8)">
<path d="M51.8567 14.5117H21.9521V48.4007H51.8567V14.5117Z" fill="url(#paint2_linear_582_8)"/>
</g>
<defs>
<linearGradient id="paint0_linear_582_8" x1="24.2906" y1="-8.27174" x2="24.2906" y2="22.2904" gradientUnits="userSpaceOnUse">
<stop stop-color="#FF0000"/>
<stop offset="1" stop-color="#FFC619"/>
</linearGradient>
<linearGradient id="paint1_linear_582_8" x1="1.54988" y1="38.5144" x2="22.6351" y2="24.4491" gradientUnits="userSpaceOnUse">
<stop stop-color="#004DA9"/>
<stop offset="1" stop-color="#01A2E9"/>
</linearGradient>
<linearGradient id="paint2_linear_582_8" x1="45.1079" y1="38.6456" x2="25.8808" y2="21.7952" gradientUnits="userSpaceOnUse">
<stop stop-color="#3B8933"/>
<stop offset="1" stop-color="#A3CA20"/>
</linearGradient>
</defs>
</svg>
