<svg width="21" height="18" viewBox="0 0 21 18" fill="none" xmlns="http://www.w3.org/2000/svg">
<path fill-rule="evenodd" clip-rule="evenodd" d="M9 18C4.03544 18 0 13.9641 0 9C0 4.03592 4.03544 0 9 0C11.2763 0 13.4128 0.826628 15.0771 2.35249C14.5224 2.68139 13.9876 3.04282 13.4756 3.43487C12.2086 2.41164 10.6286 1.8547 9 1.85728C5.06561 1.85728 1.85728 5.06561 1.85728 9C1.85728 12.9344 5.06561 16.1422 9 16.1422C14.4741 16.1422 17.7241 10.2907 15.3697 5.74138C15.8329 5.31054 16.3125 4.89772 16.8075 4.50383C17.5953 5.86398 18 7.40661 18 8.99952C18 13.9641 13.9646 18 9 18Z" fill="#41C575"/>
<path fill-rule="evenodd" clip-rule="evenodd" d="M9.23713 13.6265C9.18959 13.6258 9.14332 13.6109 9.10419 13.5839C9.06506 13.5569 9.03483 13.5189 9.01731 13.4747C9.00054 13.4411 7.54844 9.6921 5.30275 8.27351C4.86357 8.0034 4.52593 7.71652 4.66099 7.07476C4.79604 6.45024 5.21798 6.09535 5.97804 5.92677C7.32861 5.63941 8.7812 7.73328 9.32095 8.5944C11.2127 5.84248 14.9948 1.51968 20.4996 1.01298C20.7649 0.981848 20.8636 1.37553 20.6179 1.48568C20.5336 1.5192 12.6648 5.11595 9.47325 13.4914C9.44939 13.5328 9.41496 13.5672 9.37347 13.5909C9.33198 13.6146 9.28493 13.6269 9.23713 13.6265Z" fill="#41C575"/>
</svg>
