<svg width="78" height="78" viewBox="0 0 78 78" fill="none" xmlns="http://www.w3.org/2000/svg">
<g clip-path="url(#clip0_472_256)">
<path d="M63.1429 49.8699L54.7449 55.4239C53.6827 53.6065 51.6844 52.396 49.4575 52.396H42.0415C40.4449 52.396 39.6968 51.2368 38.9476 50.6982C33.2151 45.728 24.5696 45.728 18.84 50.6953L17.2208 52.0914H1.52344C0.681976 52.0914 0 52.7733 0 53.6148V71.8954C0 72.7369 0.681976 73.4189 1.52344 73.4189H17.3398L44.6367 77.9683C45.039 78.0356 45.4526 77.9386 45.784 77.697L77.3739 54.68C78.0511 54.1861 78.2023 53.2375 77.7119 52.5573C74.3675 47.9204 67.9726 46.7367 63.1429 49.8699ZM44.507 74.8578L17.7165 70.3928C17.6338 70.3791 17.5499 70.372 17.466 70.372H3.04687V55.1382H17.7873C18.7115 55.1382 18.9745 54.4824 20.833 53.0001C25.4271 49.0165 32.357 49.0165 36.9517 53.0007C37.5914 53.4315 39.088 55.4429 42.0415 55.4429H49.4575C51.1113 55.4429 52.5044 56.7521 52.5044 58.4059C52.5044 60.0483 51.1375 61.3843 49.4575 61.3843H31.1763C30.3354 61.3843 29.6529 62.0663 29.6529 62.9078C29.6529 63.7486 30.3354 64.4312 31.1763 64.4312H49.4575C52.7704 64.4312 55.4751 61.8027 55.5495 58.5439L64.8121 52.4187C67.8292 50.4614 71.7045 50.8571 74.2324 53.1988L44.507 74.8578Z" fill="white"/>
<path d="M49.6626 29.8499C49.6626 30.6913 48.9806 31.3733 48.1392 31.3733C47.2983 31.3733 46.6157 30.6913 46.6157 29.8499C46.6157 29.0084 47.2983 28.3264 48.1392 28.3264C48.9806 28.3264 49.6626 29.0084 49.6626 29.8499Z" fill="white"/>
<path d="M29.7063 37.4664H66.2681C67.1096 37.4664 67.7916 36.7844 67.7916 35.9436V29.9974L72.4053 6.38593C72.5232 5.78251 72.2667 5.16719 71.7549 4.8262C71.2431 4.48521 70.5766 4.48521 70.0648 4.8262L57.6214 13.1218L49.3265 0.678405C49.0438 0.254699 48.5683 0 48.0589 0C47.5495 0 47.074 0.254699 46.7914 0.678405L38.4958 13.1212L26.053 4.8262C25.5424 4.48581 24.8783 4.48462 24.3665 4.82322C23.8553 5.16183 23.597 5.77418 23.7113 6.37701L28.1828 29.9926V35.9436C28.1828 36.7844 28.8648 37.4664 29.7063 37.4664ZM38.0733 16.5019C38.7737 16.9685 39.7193 16.7792 40.1858 16.0794L48.0589 4.26979L55.932 16.0794C56.3985 16.7792 57.3441 16.9685 58.044 16.5019L68.714 9.38877L65.0137 28.3264H54.9947C54.1532 28.3264 53.4713 29.0084 53.4713 29.8498C53.4713 30.6913 54.1532 31.3733 54.9947 31.3733H64.7447V34.4201H31.2297V31.3733H41.2844C42.1258 31.3733 42.8078 30.6913 42.8078 29.8498C42.8078 29.0084 42.1258 28.3264 41.2844 28.3264H30.9685L27.3789 9.37211L38.0733 16.5019Z" fill="white"/>
</g>
<defs>
<clipPath id="clip0_472_256">
<rect width="78" height="78" fill="white"/>
</clipPath>
</defs>
</svg>
