<svg width="78" height="78" viewBox="0 0 78 78" fill="none" xmlns="http://www.w3.org/2000/svg">
<path d="M26.8125 22.2422C27.6534 22.2422 28.3359 21.5596 28.3359 20.7188C28.3359 19.8779 27.6534 19.1953 26.8125 19.1953C25.9716 19.1953 25.2891 19.8779 25.2891 20.7188C25.2891 21.5596 25.9716 22.2422 26.8125 22.2422Z" fill="white"/>
<path d="M26.8125 31.3828C27.6534 31.3828 28.3359 30.7002 28.3359 29.8594C28.3359 29.0185 27.6534 28.3359 26.8125 28.3359C25.9716 28.3359 25.2891 29.0185 25.2891 29.8594C25.2891 30.7002 25.9716 31.3828 26.8125 31.3828Z" fill="white"/>
<path d="M23.7656 78H60.3281C66.2082 78 70.9922 73.216 70.9922 67.3359C70.9922 66.4945 70.3102 65.8125 69.4688 65.8125H64.8984V7.61719C64.8984 3.41702 61.4814 0 57.2812 0C57.2812 0 13.4455 0 13.1016 0C9.74167 0 7.00781 2.73386 7.00781 6.09375V13.7109C7.00781 14.5524 7.68979 15.2344 8.53125 15.2344H16.1484V70.0567C16.1484 74.1968 19.3 78 23.7656 78ZM60.3281 74.9531H29.8558C30.8139 73.679 31.3828 72.0806 31.3828 70.3673V68.8439H67.7924C67.0848 72.3169 64.0064 74.9531 60.3281 74.9531ZM61.8516 7.61719V65.8125H29.8594C29.0179 65.8125 28.3359 66.4945 28.3359 67.3359V70.3828C28.3359 72.903 26.2858 74.9531 23.7656 74.9531C21.0341 74.9531 19.1953 72.5894 19.1953 70.0567V6.09375C19.1953 4.99521 18.9025 3.95142 18.3806 3.04688H57.2812C59.8015 3.04688 61.8516 5.09697 61.8516 7.61719ZM10.0547 12.1875V6.09375C10.0547 4.4138 11.4216 3.04688 13.1016 3.04688C14.7672 3.04688 16.1484 4.39 16.1484 6.09375V12.1875H10.0547Z" fill="white"/>
<path d="M40.5234 43.5703C40.5234 46.2078 41.6267 48.6465 43.5703 50.3782V60.3281C43.5703 60.8899 43.8798 61.4064 44.3749 61.6712C44.87 61.9367 45.4716 61.9075 45.9388 61.5957L49.6641 59.1124L53.3893 61.5957C53.8577 61.9081 54.4587 61.9361 54.9532 61.6712C55.4484 61.4064 55.7578 60.8899 55.7578 60.3281V50.3782C57.702 48.6459 58.8047 46.2072 58.8047 43.5703C58.8047 38.5305 54.7045 34.4297 49.6641 34.4297C44.6236 34.4297 40.5234 38.5299 40.5234 43.5703ZM50.5091 56.0137C49.9973 55.6727 49.3308 55.6727 48.819 56.0137L46.6172 57.4818V52.1908C47.5854 52.533 48.6107 52.7109 49.6641 52.7109C50.7174 52.7109 51.7427 52.533 52.7109 52.1908V57.4818L50.5091 56.0137ZM55.7578 43.5703C55.7578 47.0094 52.9573 49.6641 49.6641 49.6641C46.3696 49.6641 43.5703 47.0111 43.5703 43.5703C43.5703 40.2104 46.3042 37.4766 49.6641 37.4766C53.024 37.4766 55.7578 40.2104 55.7578 43.5703Z" fill="white"/>
<path d="M26.8125 13.1016H54.2344C55.0758 13.1016 55.7578 12.4196 55.7578 11.5781C55.7578 10.7367 55.0758 10.0547 54.2344 10.0547H26.8125C25.971 10.0547 25.2891 10.7367 25.2891 11.5781C25.2891 12.4196 25.971 13.1016 26.8125 13.1016Z" fill="white"/>
<path d="M32.9062 22.2422H54.2344C55.0758 22.2422 55.7578 21.5602 55.7578 20.7188C55.7578 19.8773 55.0758 19.1953 54.2344 19.1953H32.9062C32.0648 19.1953 31.3828 19.8773 31.3828 20.7188C31.3828 21.5602 32.0648 22.2422 32.9062 22.2422Z" fill="white"/>
<path d="M32.9062 31.3828H54.2344C55.0758 31.3828 55.7578 30.7008 55.7578 29.8594C55.7578 29.0179 55.0758 28.3359 54.2344 28.3359H32.9062C32.0648 28.3359 31.3828 29.0179 31.3828 29.8594C31.3828 30.7008 32.0648 31.3828 32.9062 31.3828Z" fill="white"/>
<path d="M26.8125 49.6641H35.9531C36.7946 49.6641 37.4766 48.9821 37.4766 48.1406C37.4766 47.2992 36.7946 46.6172 35.9531 46.6172H26.8125C25.971 46.6172 25.2891 47.2992 25.2891 48.1406C25.2891 48.9821 25.971 49.6641 26.8125 49.6641Z" fill="white"/>
<path d="M26.8125 40.5234H35.9531C36.7946 40.5234 37.4766 39.8415 37.4766 39C37.4766 38.1585 36.7946 37.4766 35.9531 37.4766H26.8125C25.971 37.4766 25.2891 38.1585 25.2891 39C25.2891 39.8415 25.971 40.5234 26.8125 40.5234Z" fill="white"/>
<path d="M26.8125 58.8047H35.9531C36.7946 58.8047 37.4766 58.1227 37.4766 57.2812C37.4766 56.4398 36.7946 55.7578 35.9531 55.7578H26.8125C25.971 55.7578 25.2891 56.4398 25.2891 57.2812C25.2891 58.1227 25.971 58.8047 26.8125 58.8047Z" fill="white"/>
</svg>
