<svg width="78" height="78" viewBox="0 0 78 78" fill="none" xmlns="http://www.w3.org/2000/svg">
<path d="M55.7578 60.3281C54.9169 60.3281 54.2344 61.0106 54.2344 61.8516C54.2344 62.6925 54.9169 63.375 55.7578 63.375C56.5988 63.375 57.2812 62.6925 57.2812 61.8516C57.2812 61.0106 56.5988 60.3281 55.7578 60.3281Z" fill="white"/>
<path d="M59.5088 55.4018L52.2679 52.9887L49.6685 47.7896C52.0103 45.4061 53.6363 42.2522 54.1846 38.9627L54.5087 37.0195H57.2812C59.8013 37.0195 61.8516 34.9693 61.8516 32.4492V22.8516C61.8516 10.2512 51.6004 0 39 0C26.3674 0 16.1484 10.2218 16.1484 22.8516V32.4492C16.1484 34.4352 17.4222 36.1286 19.1953 36.7575V38.543C19.1953 41.063 21.2456 43.1133 23.7656 43.1133H25.1035C25.7639 44.5479 26.6187 45.8766 27.6589 47.0703C27.8746 47.3183 28.0997 47.5587 28.3301 47.7925L25.7321 52.9887L18.491 55.4019C10.0717 58.2093 3.96094 67.0725 3.96094 76.4766C3.96094 77.318 4.64298 78 5.48438 78H72.5156C73.3569 78 74.0391 77.318 74.0391 76.4766C74.0391 67.0725 67.9284 58.2093 59.5088 55.4018ZM58.8047 32.4492C58.8047 33.2892 58.1213 33.9727 57.2812 33.9727H54.9562C55.3434 30.973 55.6015 27.7809 55.7053 24.637C55.7083 24.5484 55.7107 24.4621 55.7135 24.375H58.8047V32.4492ZM20.7188 33.9727C19.8787 33.9727 19.1953 33.2892 19.1953 32.4492V24.375H22.2876C22.2926 24.5339 22.2979 24.6936 22.3039 24.8543C22.304 24.8598 22.3043 24.8651 22.3045 24.8706C22.3045 24.871 22.3045 24.8715 22.3045 24.8719C22.4111 27.9298 22.6659 31.039 23.0443 33.9725H20.7188V33.9727ZM23.7656 40.0664C22.9256 40.0664 22.2422 39.383 22.2422 38.543V37.0195H23.4911L23.8153 38.9633C23.8771 39.3327 23.9532 39.7008 24.0411 40.0664H23.7656ZM22.2448 21.3281H19.2532C20.0248 11.1179 28.5457 3.04688 39 3.04688C49.4078 3.04688 57.9662 11.1168 58.7466 21.3281H55.7554C55.6457 12.9146 48.7943 6.09375 40.3636 6.09375H37.6367C29.2061 6.09375 22.3543 12.9146 22.2448 21.3281ZM37.6365 9.14062H40.3635C47.1898 9.14062 52.7149 14.7242 52.7109 21.5429C52.7109 22.0224 52.7071 22.4398 52.6991 22.8196C52.6991 22.8244 52.6989 22.8295 52.6989 22.8345L50.7934 22.5623C45.6167 21.8231 40.729 19.3792 37.0303 15.6806C36.7445 15.3949 36.3571 15.2344 35.9531 15.2344C31.8618 15.2344 27.9453 17.0985 25.3564 20.2477C25.9944 14.0444 31.2385 9.14062 37.6365 9.14062ZM27.1995 40.0664C26.4368 37.5294 25.5642 30.0646 25.3713 25.281L27.4217 22.547C29.3048 20.037 32.2346 18.4775 35.3511 18.2985C39.4517 22.2009 44.7566 24.778 50.3626 25.5784L52.6054 25.8989C52.4555 29.0806 52.1491 32.2734 51.7102 35.2098C51.71 35.2108 51.7099 35.2118 51.7097 35.2129C51.5702 36.157 51.4602 36.7645 51.1793 38.4615C50.3725 43.3007 46.7616 47.6767 41.9949 48.8685C40.0332 49.3583 37.9665 49.3582 36.0058 48.8685C33.0295 48.1245 30.3004 46.0651 28.5392 43.1133H31.6448C32.2737 44.8864 33.967 46.1602 35.9531 46.1602H39C41.5251 46.1602 43.5703 44.1151 43.5703 41.5898C43.5703 39.0698 41.5201 37.0195 39 37.0195H35.9531C33.9228 37.0195 32.2545 38.3309 31.6423 40.0664H27.1995ZM35.825 51.9517C36.8699 52.1718 37.9353 52.2844 39 52.2844C39.8335 52.2844 40.6671 52.2146 41.4913 52.0793L38.7994 54.9262L35.825 51.9517ZM36.7049 57.1409L31.8729 62.2509C30.5426 59.7046 29.3996 57.0546 28.4621 54.3416L30.2766 50.7125L36.7049 57.1409ZM47.4651 50.1964L49.5376 54.3415C48.5986 57.059 47.4552 59.7099 46.1263 62.2531L40.9546 57.0814L47.4651 50.1964ZM34.4297 41.5898C34.4297 40.7488 35.1119 40.0664 35.9531 40.0664H39C39.84 40.0664 40.5234 40.7498 40.5234 41.5898C40.5234 42.4311 39.8411 43.1133 39 43.1133H35.9531C35.1131 43.1133 34.4297 42.4299 34.4297 41.5898ZM7.06875 74.9531C7.67249 67.4062 12.6951 60.5464 19.4546 58.2924L25.8674 56.1553C27.0422 59.404 28.4977 62.5616 30.2035 65.561C30.2064 65.5662 30.2092 65.5713 30.2121 65.5764L30.2122 65.5767C31.4585 67.7687 32.8613 69.9109 34.3822 71.9445L36.2563 74.9531H7.06875ZM39 73.5951L36.9339 70.2782C36.9108 70.241 36.8861 70.2049 36.8599 70.1698C35.6262 68.5242 34.4754 66.8032 33.4273 65.0416L38.8603 59.2962L44.5851 65.0209C43.5299 66.7953 42.3752 68.5235 41.1404 70.1695C41.0658 70.269 41.1717 70.1123 39 73.5951ZM41.7437 74.9531L43.6177 71.9446C45.1452 69.9032 46.5581 67.7439 47.8169 65.5261C47.8245 65.5127 47.8317 65.499 47.8393 65.4856C47.8402 65.4839 47.8411 65.4824 47.842 65.4807C49.5262 62.51 50.9664 59.3798 52.1326 56.1553L58.5452 58.2924C65.3049 60.5464 70.3275 67.4062 70.9313 74.9531H41.7437Z" fill="white"/>
<path d="M66.3525 68.7879C65.3344 66.75 63.8431 64.9395 62.0398 63.5523C61.3728 63.039 60.4164 63.1638 59.9035 63.8308C59.3904 64.4977 59.5152 65.4541 60.182 65.9672C61.6222 67.0752 62.8133 68.5214 63.6266 70.1495C64.0034 70.9035 64.9189 71.2069 65.6703 70.8316C66.4229 70.4556 66.7283 69.5406 66.3525 68.7879Z" fill="white"/>
</svg>
