<svg width="78" height="78" viewBox="0 0 78 78" fill="none" xmlns="http://www.w3.org/2000/svg">
<path d="M39 78C38.9036 78 38.8072 77.9911 38.712 77.9726C29.4696 76.1951 21.0782 71.2201 15.0838 63.9635C9.09004 56.707 5.78906 47.5271 5.78906 38.1151V11.452C5.78906 10.7861 6.2217 10.1969 6.85725 9.99815L38.4966 0.0856934C38.6566 0.0297546 38.8322 0.00357056 39 0H39.0018C39.1744 0 39.344 0.0297546 39.504 0.0856934L71.1428 9.99815C71.7783 10.1975 72.2109 10.7861 72.2109 11.452V38.1151C72.2109 47.5271 68.91 56.707 62.9156 63.9635C56.9218 71.2201 48.5304 76.1951 39.288 77.9726C39.1928 77.9911 39.0964 78 39 78ZM8.83594 12.5707V38.1151C8.83594 55.9857 21.5037 71.4189 39 74.924C56.4963 71.4189 69.1635 55.9857 69.1635 38.1151V12.5707L39 3.12067L8.83594 12.5707Z" fill="white"/>
<path d="M39 69.267C38.8762 69.267 38.7524 69.2522 38.6322 69.2224C31.7542 67.5109 25.5479 63.4833 21.1555 57.8817C16.7477 52.2593 14.3203 45.2396 14.3203 38.1151V17.7189C14.3203 17.053 14.7529 16.4644 15.3879 16.2657L38.5442 9.01091C38.8405 8.91808 39.1589 8.91808 39.4552 9.01091L62.6115 16.2657C63.2465 16.4644 63.6791 17.053 63.6791 17.7189V38.1151C63.6791 43.3228 62.3889 48.5066 59.9485 53.1061C59.5539 53.8494 58.6321 54.1314 57.8888 53.7375C57.1456 53.3429 56.8629 52.4211 57.2569 51.6779C59.4652 47.517 60.6322 42.8271 60.6322 38.1151V18.8383L38.9994 12.0608L17.3672 18.8383V38.1151C17.3672 51.3399 26.2436 62.8228 38.9994 66.1714C42.5432 65.2412 45.8358 63.6672 48.7923 61.4898C49.4695 60.9911 50.4234 61.1357 50.9221 61.8129C51.4214 62.4901 51.2768 63.444 50.599 63.9427C47.2182 66.4332 43.4394 68.209 39.3672 69.2224C39.247 69.2522 39.1232 69.267 39 69.267Z" fill="white"/>
<path d="M36.2329 50.465C35.8425 50.465 35.4534 50.3163 35.1558 50.0187L24.9541 39.8171C24.359 39.2226 24.359 38.2579 24.9541 37.6628L30.1249 32.4921C30.4105 32.2064 30.7979 32.0457 31.202 32.0457C31.6061 32.0457 31.9935 32.2064 32.2791 32.4921L36.2329 36.4459L45.7205 26.9577C46.3156 26.3632 47.2802 26.3626 47.8753 26.9577L53.0461 32.1285C53.3317 32.4141 53.4924 32.8015 53.4924 33.2056C53.4924 33.6096 53.3317 33.997 53.0461 34.2827L37.31 50.0187C37.0125 50.3163 36.6227 50.465 36.2329 50.465ZM28.1855 38.7399L36.2329 46.7868L49.8141 33.2056L46.7976 30.1896L37.31 39.6778C37.0244 39.9634 36.637 40.1235 36.2329 40.1235C35.8289 40.1235 35.4415 39.9634 35.1558 39.6778L31.202 35.724L28.1855 38.7399Z" fill="white"/>
<path d="M54.7246 59.5819C54.3241 59.5819 53.9308 59.42 53.6475 59.1356C53.3642 58.8523 53.2012 58.459 53.2012 58.0585C53.2012 57.658 53.3642 57.2646 53.6475 56.9814C53.9308 56.6981 54.3241 56.535 54.7246 56.535C55.1251 56.535 55.5185 56.6981 55.8017 56.9814C56.085 57.2646 56.248 57.658 56.248 58.0585C56.248 58.459 56.085 58.8523 55.8017 59.1356C55.5185 59.42 55.1251 59.5819 54.7246 59.5819Z" fill="white"/>
</svg>
