<svg width="78" height="78" viewBox="0 0 78 78" fill="none" xmlns="http://www.w3.org/2000/svg">
<g clip-path="url(#clip0_242_1209)">
<path d="M66.8708 38.7685C67.1521 39.021 67.5149 39.1582 67.8883 39.1582C67.9511 39.1582 68.0143 39.1544 68.0774 39.1465C68.5152 39.0918 68.908 38.8497 69.1537 38.4832L73.4541 32.0697C73.8771 31.4387 73.7708 30.5926 73.2047 30.086L66.3562 23.9578V10.1712C66.3562 9.32979 65.6742 8.64775 64.8328 8.64775H57.0005C56.1591 8.64775 55.477 9.32979 55.477 10.1712V14.2232L40.016 0.388126C39.4375 -0.129538 38.5626 -0.129538 37.9842 0.388126L4.79517 30.0862C4.22906 30.5927 4.12273 31.439 4.54579 32.0698L8.84614 38.4834C9.09188 38.8499 9.48462 39.0918 9.92245 39.1467C10.3598 39.2014 10.8004 39.0635 11.129 38.7687L11.3691 38.5533V68.5511H6.8282C5.9868 68.5511 5.30476 69.2332 5.30476 70.0746V76.4765C5.30476 77.3179 5.9868 78 6.8282 78H71.1718C72.0132 78 72.6952 77.3179 72.6952 76.4765V70.0744C72.6952 69.233 72.0132 68.551 71.1718 68.551H66.6307V38.5531L66.8708 38.7685ZM58.5241 11.6946H63.3095V21.2316L58.5241 16.9496V11.6946ZM10.3997 35.3292L7.81417 31.4733L39 3.56769L70.1858 31.4733L67.6003 35.3292L40.0177 10.5726C39.7282 10.3127 39.3641 10.1829 39 10.1829C38.6359 10.1829 38.2719 10.3127 37.9823 10.5726L10.3997 35.3292ZM63.584 68.551H45.887C45.0456 68.551 44.3636 69.233 44.3636 70.0744C44.3636 70.9158 45.0456 71.5979 45.887 71.5979H69.6485V74.9531H8.35164V71.5979H32.1131C32.9545 71.5979 33.6366 70.9158 33.6366 70.0744C33.6366 69.233 32.9545 68.551 32.1131 68.551H14.4161V35.8184L39 13.7534L63.584 35.8184V68.551Z" fill="white"/>
<path d="M50.9183 40.2772C50.647 39.8031 50.1424 39.5105 49.5961 39.5105H42.1433V26.4653C42.1433 25.7779 41.6831 25.1757 41.0198 24.9953C40.3568 24.8146 39.6546 25.1009 39.3064 25.6937L27.0902 46.487C26.8136 46.9581 26.8102 47.5413 27.0815 48.0155C27.3529 48.4896 27.8574 48.7823 28.4037 48.7823H35.8565V61.8275C35.8565 62.5148 36.3168 63.117 36.9802 63.2974C37.1131 63.3335 37.2473 63.351 37.3801 63.351C37.9103 63.351 38.4152 63.0732 38.6936 62.5991L50.9098 41.8057C51.1863 41.3345 51.1896 40.7513 50.9183 40.2772ZM38.9034 56.2267V47.2585C38.9034 46.4171 38.2214 45.7351 37.38 45.7351H31.0656L39.0964 32.0657V41.0339C39.0964 41.8753 39.7785 42.5573 40.6199 42.5573H46.9342L38.9034 56.2267Z" fill="white"/>
<path d="M40.435 69.4915C40.1872 68.8967 39.5722 68.5109 38.9284 68.5556C38.3021 68.5992 37.754 69.0296 37.5709 69.6317C37.3893 70.2287 37.5994 70.8966 38.0942 71.2786C38.6016 71.6703 39.3126 71.6997 39.8519 71.3544C40.4631 70.9631 40.7142 70.1618 40.435 69.4915Z" fill="white"/>
</g>
<defs>
<clipPath id="clip0_242_1209">
<rect width="78" height="78" fill="white"/>
</clipPath>
</defs>
</svg>
