<svg width="45" height="45" viewBox="0 0 45 45" fill="none" xmlns="http://www.w3.org/2000/svg">
<g clip-path="url(#clip0_309_564)">
<path d="M22.4213 5.71816C22.9101 5.71816 23.3064 5.32187 23.3064 4.83302V0.885146C23.3064 0.396299 22.9101 0 22.4213 0C21.9324 0 21.5361 0.396299 21.5361 0.885146V4.83302C21.5362 5.32187 21.9325 5.71816 22.4213 5.71816Z" fill="#41C575"/>
<path d="M44.0578 30.4088L42.4942 28.8496C41.9379 28.294 41.1966 27.988 40.4066 27.988C39.9015 27.988 39.4166 28.1137 38.9869 28.3491L36.0403 25.406L36.1838 25.2627C37.3792 24.0649 37.3788 22.1186 36.1837 20.9248C35.7567 20.497 35.2238 20.2117 34.6429 20.0916C34.7229 19.8156 34.765 19.5264 34.765 19.2305C34.765 18.4083 34.4456 17.6373 33.8675 17.0615C33.4403 16.6337 32.9075 16.3484 32.3266 16.2283C32.4066 15.9522 32.4487 15.6632 32.4487 15.3672C32.4487 14.5449 32.1293 13.774 31.5502 13.1973C31.1129 12.7605 30.5753 12.484 30.0107 12.3663C30.3127 11.3251 30.0547 10.1536 29.2355 9.33303C28.5537 8.65407 27.6285 8.36227 26.7368 8.45684L20.8978 7.35162C20.0073 7.18269 18.8952 7.07098 18.1932 7.71127C18.1489 7.7517 18.1038 7.79819 18.0593 7.84996C16.9708 7.45322 15.7013 7.68947 14.8297 8.56011C14.2515 9.13764 13.933 9.90827 13.933 10.73C13.933 11.0261 13.9749 11.3151 14.0548 11.5913C13.4746 11.7113 12.9424 11.9962 12.5167 12.4226C11.9373 12.9996 11.6179 13.7694 11.6172 14.5902C11.617 14.8869 11.6591 15.177 11.7394 15.4538C11.1589 15.5735 10.6264 15.8579 10.1994 16.2844C9.62002 16.8631 9.30098 17.6342 9.30098 18.4555C9.30098 19.0847 9.4888 19.684 9.83685 20.1902C9.39739 20.3392 8.99485 20.5872 8.65779 20.9239C7.4616 22.1186 7.46116 24.065 8.65858 25.2645L8.80158 25.4069L5.85461 28.3485C4.7594 27.8329 3.41002 28.026 2.50624 28.9287L0.941611 30.4889C0.385088 31.0447 0.0787012 31.7862 0.0786133 32.5766C0.0786133 33.3671 0.385088 34.1086 0.941611 34.6645L2.89428 36.6148C3.24013 36.9603 3.80061 36.9599 4.14602 36.6141C4.49151 36.2683 4.49116 35.7078 4.14531 35.3624L2.19265 33.4121C1.97099 33.1907 1.84891 32.894 1.84891 32.5767C1.84891 32.2595 1.97099 31.9628 2.19212 31.742L3.75684 30.1816C4.14777 29.7911 4.74613 29.733 5.20053 30.0046C5.23252 30.0527 5.26952 30.0984 5.31188 30.1409C5.38773 30.2169 5.47431 30.2752 5.56624 30.3178L14.5393 39.2776C14.5819 39.3705 14.6404 39.458 14.7168 39.5344C14.7912 39.6089 14.876 39.6665 14.966 39.7088C15.1557 39.9234 15.2606 40.1974 15.2606 40.4897C15.2606 40.807 15.1385 41.1036 14.9168 41.325L13.3537 42.8863C12.8918 43.3462 12.1405 43.3461 11.6801 42.8877L9.72742 40.9349C9.38175 40.5892 8.82136 40.5892 8.47568 40.9349C8.13001 41.2806 8.13001 41.841 8.47568 42.1866L10.4298 44.1409C11.0049 44.7137 11.7602 44.9999 12.5159 44.9999C13.2718 44.9999 14.028 44.7132 14.6039 44.1399L16.168 42.5777C16.7245 42.0217 17.031 41.2803 17.031 40.4897C17.031 39.9256 16.8741 39.3868 16.5824 38.9222L19.899 35.6096C19.9025 35.606 19.906 35.6024 19.9096 35.5988C20.2894 35.2062 21.347 35.2797 22.3698 35.3507C23.0965 35.4012 23.9066 35.4574 24.6982 35.3661L28.3302 38.9938C28.0949 39.4228 27.9693 39.9071 27.9693 40.4114C27.9693 41.2011 28.2758 41.9421 28.8323 42.498L30.3965 44.0603C30.9527 44.6158 31.694 44.9219 32.484 44.9219C33.2738 44.9219 34.0152 44.6159 34.5715 44.0603L44.0585 34.5848C44.615 34.029 44.9215 33.2875 44.9215 32.497C44.9214 31.7066 44.6149 30.9652 44.0578 30.4088ZM20.5682 9.09097L24.4079 9.81774L22.1096 12.1151C21.7541 11.9443 21.2668 11.6256 20.7323 11.1142C20.0006 10.4143 19.4772 9.6061 19.4296 9.10205C19.4295 9.10179 19.4295 9.10152 19.4295 9.10126C19.4295 9.10117 19.4294 9.10108 19.4294 9.10099C19.426 9.06478 19.4251 9.03587 19.4255 9.01381C19.5413 8.98568 19.8487 8.95448 20.5682 9.09097ZM16.0807 9.81264C16.5291 9.36467 17.2257 9.31299 17.7324 9.65611C18.0196 10.86 19.0466 11.9512 19.5086 12.3933C19.851 12.7209 20.9497 13.7033 22.0587 13.9733C22.2088 14.1884 22.2904 14.4447 22.2904 14.7153C22.2904 15.0638 22.1564 15.3896 21.9121 15.6336C21.6686 15.8775 21.3423 16.0118 20.9932 16.0118C20.644 16.0118 20.3176 15.8775 20.0729 15.6324L20.0729 15.6323L20.0724 15.6319L16.0806 11.6473C15.8372 11.4043 15.7032 11.0784 15.7032 10.73C15.7033 10.3816 15.8373 10.0558 16.0807 9.81264ZM13.7678 13.6752C14.0113 13.4313 14.3373 13.2969 14.6859 13.2969C15.0349 13.2969 15.3619 13.4315 15.607 13.6764L18.8214 16.8843C19.3275 17.3913 19.3275 18.2162 18.8231 18.7214C18.5783 18.9653 18.2508 19.0996 17.9011 19.0996C17.5514 19.0996 17.2239 18.9653 16.9801 18.7225L16.98 18.7224L14.5415 16.2844C14.5377 16.2806 14.5335 16.2771 14.5297 16.2732L13.7668 15.5107C13.522 15.2662 13.3873 14.9397 13.3875 14.5915C13.3879 14.2444 13.5222 13.9197 13.7678 13.6752ZM11.4504 17.5369C11.6942 17.2935 12.0208 17.1595 12.3705 17.1595C12.7172 17.1595 13.0411 17.2916 13.2837 17.5308L15.7297 19.9756C15.9736 20.2185 16.108 20.544 16.108 20.892C16.108 21.24 15.9736 21.5655 15.7288 21.8094C15.4851 22.0526 15.1588 22.1867 14.8098 22.1867C14.4602 22.1867 14.1329 22.0523 13.8889 21.8094L13.0021 20.9237C13.002 20.9234 13.0017 20.9233 13.0015 20.9231L11.4505 19.3739C11.206 19.1297 11.0714 18.8034 11.0714 18.4554C11.0714 18.1074 11.206 17.7811 11.4504 17.5369ZM9.90883 22.1763C10.1536 21.9318 10.4807 21.7971 10.8299 21.7971C11.179 21.7971 11.5061 21.9317 11.7508 22.176L12.6387 23.0629C12.8827 23.3059 13.017 23.6313 13.017 23.9794C13.017 24.3274 12.8826 24.6528 12.6369 24.8977C12.3933 25.1416 12.067 25.2759 11.7179 25.2759C11.3687 25.2759 11.0424 25.1416 10.7971 24.8959L10.6859 24.7852C10.6844 24.7837 10.6832 24.7821 10.6818 24.7807C10.6802 24.7791 10.6784 24.7777 10.6767 24.7761L9.90971 24.0121C9.40355 23.5049 9.40311 22.6814 9.90883 22.1763ZM27.947 32.2361C27.6015 31.8902 27.041 31.8899 26.6952 32.2353L25.9077 33.0218C25.1594 33.7701 23.8035 33.6759 22.4923 33.5849C21.0684 33.486 19.596 33.3839 18.6431 34.3621L15.3828 37.6184L7.22983 29.4774L10.1151 26.5973C10.592 26.8896 11.1423 27.0463 11.7181 27.0463C12.5406 27.0463 13.312 26.7275 13.8881 26.1503C14.4681 25.5727 14.7875 24.8018 14.7875 23.9795C14.7875 23.9718 14.787 23.9643 14.787 23.9566C14.7947 23.9567 14.8023 23.9571 14.81 23.9571C15.6314 23.9571 16.4021 23.6392 16.979 23.063C17.559 22.4854 17.8785 21.7144 17.8785 20.8922C17.8785 20.8846 17.878 20.877 17.878 20.8694C17.8857 20.8694 17.8934 20.8699 17.9012 20.8699C18.7224 20.8699 19.4936 20.5524 20.0743 19.9739C20.6773 19.37 20.9755 18.575 20.9698 17.7816C20.9777 17.7817 20.9856 17.7821 20.9935 17.7821C21.8161 17.782 22.5873 17.4633 23.1643 16.8852C23.7425 16.3077 24.0611 15.537 24.0611 14.7153C24.0611 14.1406 23.9048 13.5912 23.6134 13.1152L26.1423 10.5874C26.3308 10.3998 26.5631 10.282 26.8067 10.2334C26.833 10.2306 26.8591 10.2263 26.8848 10.2212C27.2756 10.1674 27.6859 10.288 27.9848 10.5856C28.4909 11.0926 28.4909 11.9175 27.9866 12.4227L27.2164 13.1898C27.2139 13.1923 27.2112 13.1946 27.2086 13.1971L26.3215 14.0827C25.9756 14.4281 25.9752 14.9886 26.3207 15.3345C26.6663 15.6804 27.2267 15.6807 27.5725 15.3353L28.3457 14.563C28.3459 14.5629 28.3461 14.5627 28.3463 14.5625L28.4632 14.4461C28.9707 13.9432 29.793 13.9442 30.3001 14.4505C30.5441 14.6935 30.6784 15.0189 30.6784 15.367C30.6784 15.7149 30.5441 16.0404 30.2981 16.2853L29.5236 17.0614C29.5235 17.0615 29.5234 17.0616 29.5233 17.0618L28.6363 17.9452C28.2899 18.2901 28.2888 18.8506 28.6337 19.1969C28.9787 19.5433 29.5391 19.5443 29.8855 19.1995L30.7765 18.312C31.0201 18.068 31.3464 17.9337 31.6955 17.9337C32.0447 17.9337 32.3711 18.068 32.6164 18.3138C32.8604 18.5568 32.9947 18.8823 32.9947 19.2303C32.9947 19.5783 32.8604 19.9037 32.615 20.1481L31.0708 21.6929C30.7252 22.0387 30.7253 22.5991 31.071 22.9446C31.2438 23.1174 31.4702 23.2037 31.6967 23.2037C31.9233 23.2037 32.1499 23.1173 32.3227 22.9444L33.0795 22.1873C33.0838 22.1832 33.0885 22.1796 33.0928 22.1753C33.3363 21.9313 33.6627 21.797 34.0118 21.797C34.361 21.797 34.6873 21.9313 34.9317 22.1761C35.4374 22.6812 35.4369 23.5048 34.9317 24.0108L34.1622 24.7795C34.162 24.7797 34.1616 24.78 34.1614 24.7802C34.1611 24.7805 34.1608 24.7809 34.1606 24.7811L32.9392 26.001C32.5934 26.3465 32.593 26.9069 32.9385 27.2528C33.1113 27.4258 33.3381 27.5124 33.5648 27.5124C33.7911 27.5124 34.0175 27.4261 34.1903 27.2536L34.7877 26.6569L37.6509 29.5168L29.4986 37.6591L26.5776 34.7417C26.7813 34.6107 26.9761 34.4567 27.159 34.2738L27.9461 33.4877C28.2921 33.1424 28.2925 32.5819 27.947 32.2361ZM42.8073 33.3323L33.3203 42.8078C33.0984 43.0294 32.8013 43.1515 32.4839 43.1515C32.1664 43.1515 31.8694 43.0294 31.6473 42.8077L30.0832 41.2454C29.8615 41.0241 29.7394 40.7279 29.7394 40.4114C29.7394 40.095 29.8615 39.7988 30.0832 39.5774L39.5702 30.1019C39.7922 29.8802 40.0891 29.7581 40.4067 29.7581C40.7242 29.7581 41.0212 29.8802 41.2438 30.1025L42.8074 31.6617C43.0291 31.8831 43.1512 32.1797 43.1512 32.497C43.1511 32.8143 43.029 33.111 42.8073 33.3323Z" fill="#41C575"/>
<path d="M10.6679 4.972C10.8407 5.14444 11.0669 5.23057 11.2932 5.23057C11.5199 5.23057 11.7468 5.14391 11.9196 4.97068C12.265 4.62465 12.2644 4.06426 11.9184 3.71894L8.693 0.499945C8.34706 0.154623 7.78658 0.155063 7.44126 0.501176C7.09594 0.847201 7.09646 1.40759 7.44249 1.75291L10.6679 4.972Z" fill="#41C575"/>
<path d="M33.5497 5.23054C33.776 5.23054 34.0024 5.14423 34.1752 4.9717L37.3981 1.75262C37.744 1.40721 37.7443 0.846729 37.3988 0.500879C37.0534 0.155029 36.493 0.154678 36.1471 0.500176L32.9242 3.71926C32.5783 4.06467 32.578 4.62515 32.9235 4.971C33.0963 5.14405 33.323 5.23054 33.5497 5.23054Z" fill="#41C575"/>
<path d="M5.52102 38.0746C5.17833 38.4231 5.18308 38.9836 5.53174 39.3263L5.53429 39.3288C5.70629 39.4979 5.92962 39.5821 6.15286 39.5821C6.38199 39.5821 6.61112 39.4934 6.78471 39.3168C7.12739 38.9682 7.12133 38.4065 6.77275 38.0638C6.42427 37.7211 5.86388 37.726 5.52102 38.0746Z" fill="#41C575"/>
<path d="M30.112 30.961C30.2467 30.961 30.3832 30.9303 30.5115 30.8657C30.9479 30.6455 31.1233 30.1133 30.9032 29.6768C30.683 29.2404 30.1507 29.0649 29.7143 29.2851L29.7094 29.2875C29.2729 29.5077 29.1 30.0388 29.3201 30.4752C29.4755 30.7835 29.788 30.961 30.112 30.961Z" fill="#41C575"/>
</g>
<defs>
<clipPath id="clip0_309_564">
<rect width="45" height="45" fill="white"/>
</clipPath>
</defs>
</svg>
