<svg width="106" height="106" viewBox="0 0 106 106" fill="none" xmlns="http://www.w3.org/2000/svg">
<circle cx="53" cy="53" r="53" fill="#091613"/>
<path fill-rule="evenodd" clip-rule="evenodd" d="M57.664 71.5063L62.0273 80.8782C62.173 81.1915 62.6101 81.2113 62.7837 80.9126L66.0855 75.2306L72.559 76.3617C72.8999 76.4212 73.1658 76.0744 73.0197 75.7608L67.8573 64.6726C66.7939 65.2221 65.5069 67.6141 64.8144 68.673C63.2492 71.0663 60.4122 72.1758 57.664 71.5063ZM53.6056 48.7865L71.2384 28.483C72.1756 27.5366 73.7043 27.5339 74.648 28.4723C75.5916 29.4106 75.5945 30.9351 74.6584 31.8798C71.4482 35.1197 58.5434 50.6892 55.3183 53.9143C54.3755 54.8572 52.8461 54.8571 51.9033 53.9143L45.2089 47.2199C44.2661 46.2771 44.2661 44.7477 45.2089 43.8048C46.1516 42.8619 47.6812 42.8619 48.6239 43.8048L53.6056 48.7865ZM55.8749 25.8464C60.0962 29.0062 59.4728 28.8529 64.9766 29.1592C65.9196 29.2117 66.7853 29.522 67.5023 30.0306L62.1756 36.1275C59.6765 34.082 56.4821 32.8542 53.0007 32.8542C44.9948 32.8542 38.5047 39.3443 38.5047 47.3502C38.5047 55.3562 44.9948 61.8463 53.0007 61.8463C61.0066 61.8463 67.4966 55.3562 67.4966 47.3502C67.4966 46.0296 67.3191 44.7505 66.9882 43.5348C68.4354 41.8599 69.8814 40.184 71.3322 38.5122L74.2232 41.2424C75.7946 42.7263 76.1964 44.9747 75.2214 46.9036C72.6829 51.9255 72.8717 50.8549 73.5395 56.4423C73.796 58.5883 72.6521 60.5697 70.6653 61.4206C65.4925 63.636 66.3255 62.9372 63.2454 67.6466C62.0624 69.4554 59.9125 70.2379 57.8435 69.6126C52.457 67.9848 53.5443 67.9848 48.1578 69.6126C46.0888 70.2378 43.9389 69.4554 42.7559 67.6466C39.676 62.9372 40.5088 63.636 35.336 61.4206C33.3493 60.5697 32.2053 58.5883 32.4618 56.4423L32.8902 52.8581C33.0073 51.8778 32.8537 51.0061 32.4082 50.1251L30.7798 46.9036C29.8048 44.9747 30.2021 42.7214 31.778 41.2424C35.881 37.3915 35.3375 38.3329 36.6209 32.8542C37.1139 30.7497 38.8666 29.279 41.0246 29.159C46.6429 28.8465 45.6214 29.2183 50.1263 25.8463C51.8567 24.5512 54.1446 24.5512 55.8749 25.8464ZM48.3373 71.5061C45.589 72.1756 42.752 71.0663 41.1866 68.6728C40.4942 67.614 39.2072 65.2217 38.1437 64.6724L32.9814 75.7605C32.8354 76.0741 33.1013 76.4211 33.4421 76.3615L39.9157 75.2304L43.2175 80.9123C43.3912 81.2109 43.8282 81.1912 43.9739 80.878L48.3373 71.5061Z" fill="#BFDD34"/>
</svg>
