<svg width="28" height="26" viewBox="0 0 28 26" fill="none" xmlns="http://www.w3.org/2000/svg">
<path d="M12.9569 21.5017C17.7246 21.5017 21.5895 17.6522 21.5895 12.9037C21.5895 8.15512 17.7246 4.30566 12.9569 4.30566C8.18928 4.30566 4.32434 8.15512 4.32434 12.9037C4.32434 17.6522 8.18928 21.5017 12.9569 21.5017Z" fill="#005DB5" fill-opacity="0.08"/>
<path fill-rule="evenodd" clip-rule="evenodd" d="M12.8344 25.8039C8.79624 25.8039 4.98663 23.8915 2.57134 20.6435C1.37315 19.0357 0.564084 17.1739 0.207244 15.2033C-0.149596 13.2327 -0.0445635 11.2067 0.51415 9.28324C1.06851 7.36421 2.06436 5.6003 3.42266 4.13152C4.78096 2.66274 6.46431 1.52953 8.33909 0.82184C10.205 0.117557 12.2111 -0.139512 14.1952 0.0714187C16.1793 0.28235 18.0857 0.95536 19.7603 2.03603C19.8974 2.11951 19.9889 2.2561 20.0346 2.41547C20.0525 2.49225 20.0548 2.57182 20.0415 2.64952C20.0281 2.72721 19.9992 2.80146 19.9567 2.86791C19.9141 2.93436 19.8586 2.99166 19.7935 3.03646C19.7284 3.08126 19.6549 3.11266 19.5774 3.12881C19.4251 3.15916 19.2574 3.12881 19.1203 3.03015C17.6788 2.10017 16.0473 1.50185 14.3444 1.27869C12.6416 1.05553 10.9102 1.21314 9.27625 1.74007C7.63603 2.27415 6.13459 3.16266 4.87933 4.34205C3.62407 5.52144 2.64602 6.96256 2.01514 8.56232C1.37974 10.1693 1.10506 11.8952 1.21035 13.6191C1.31565 15.343 1.79838 17.0231 2.62467 18.5415C3.43523 20.056 4.57514 21.3712 5.96118 22.391C7.34721 23.4108 8.9444 24.1095 10.6361 24.436C12.3279 24.7625 14.0715 24.7087 15.7397 24.2784C17.4078 23.8481 18.9585 23.0522 20.2784 21.9488C21.6013 20.8394 22.6636 19.4543 23.3903 17.8913C24.117 16.3283 24.4904 14.6255 24.4842 12.9031V11.7268C24.4692 11.5721 24.516 11.4177 24.6144 11.297C24.7127 11.1763 24.8548 11.099 25.0099 11.0818C25.3299 11.0514 25.6195 11.2867 25.65 11.613V12.9031C25.65 16.318 24.3014 19.6039 21.8937 22.0247C20.7093 23.2197 19.2989 24.1689 17.7439 24.8176C16.189 25.4663 14.5203 25.8015 12.8344 25.8039Z" fill="#005DB5"/>
<path fill-rule="evenodd" clip-rule="evenodd" d="M14.5864 15.5438C14.434 15.5438 14.2817 15.4755 14.175 15.3693L8.93297 10.0876C8.70439 9.85989 8.70439 9.48046 8.93297 9.2528C9.16154 9.02514 9.52727 9.02514 9.75584 9.2528L14.5864 14.0792L27.0058 1.64133C27.2267 1.41367 27.6001 1.41367 27.8286 1.64133C28.0572 1.86899 28.0572 2.24842 27.8286 2.47608L15.0055 15.3769C14.9504 15.4312 14.8849 15.474 14.813 15.5027C14.741 15.5314 14.6639 15.5454 14.5864 15.5438Z" fill="#005DB5"/>
</svg>
