<svg width="50" height="50" viewBox="0 0 50 50" fill="none" xmlns="http://www.w3.org/2000/svg">
<g clip-path="url(#clip0_146_274)">
<path fill-rule="evenodd" clip-rule="evenodd" d="M31.1895 12.7354C31.1895 9.31665 28.4186 6.54565 25 6.54565C21.5813 6.54565 18.8104 9.31665 18.8104 12.7354C18.8104 14.2026 19.3198 15.5506 20.1751 16.6136L25.0013 19.0429L29.8249 16.6136C30.6802 15.5506 31.1895 14.2025 31.1895 12.7354Z" fill="#FFD772"/>
<path fill-rule="evenodd" clip-rule="evenodd" d="M24.9999 16.6137L6.17932 16.611C5.36545 16.622 4.73713 17.2255 4.57659 17.9369L1.74475 33.6908H24.9999H48.2551L45.4233 17.9369C45.2627 17.2255 44.6343 16.622 43.8205 16.611L24.9999 16.6137Z" fill="#A1D4FF"/>
<path fill-rule="evenodd" clip-rule="evenodd" d="M27.5051 37.7214L24.9806 36.2985L22.492 37.7214L22.4948 41.7713L25.036 42.9422L27.5051 41.7713V37.7214Z" fill="#375E7D"/>
<path fill-rule="evenodd" clip-rule="evenodd" d="M27.5051 41.7712H22.4947H20.3604C19.4055 41.7712 18.6221 42.5546 18.6221 43.5097V45.37L25.2103 46.7624L31.3776 45.37V43.5097C31.3776 42.5546 30.5942 41.7712 29.6393 41.7712H27.5051Z" fill="#F9F7F8"/>
<path fill-rule="evenodd" clip-rule="evenodd" d="M31.3777 45.3699H18.6221H16.571C15.5357 45.3699 14.6859 46.2169 14.6859 47.2523V48.8523C14.6859 49.0792 14.8742 49.2675 15.1039 49.2675H34.8989C35.1259 49.2675 35.3141 49.0792 35.3141 48.8523V47.2523C35.3141 46.2169 34.4671 45.3699 33.4291 45.3699H31.3777Z" fill="#375E7D"/>
<path fill-rule="evenodd" clip-rule="evenodd" d="M45.4234 17.9369C45.2628 17.2255 44.6344 16.622 43.8206 16.611L29.8249 16.6137H28.9944C30.1709 18.3161 31.0124 20.2428 31.4332 22.3052C31.6325 23.2879 31.7377 24.3038 31.7377 25.3392C31.7377 26.2472 31.6574 27.133 31.5052 27.9994C31.1398 30.0534 30.3592 31.9774 29.2464 33.6908H48.2552L45.4234 17.9369Z" fill="#75CEF8"/>
<path fill-rule="evenodd" clip-rule="evenodd" d="M24.9999 33.6908H1.74483L1.44307 35.5953C1.24649 36.8217 2.09356 37.6881 3.3337 37.6881H46.6662C47.9064 37.6881 48.7534 36.8217 48.5568 35.5953L48.2551 33.6908H29.2463H24.9999Z" fill="#F9F7F8"/>
<path fill-rule="evenodd" clip-rule="evenodd" d="M48.5568 35.5953L48.2551 33.6908H40.4904L40.7922 35.5953C40.9888 36.8217 40.1417 37.6881 38.9016 37.6881H46.6662C47.9063 37.6881 48.7534 36.8217 48.5568 35.5953Z" fill="#E5E4EC"/>
<path fill-rule="evenodd" clip-rule="evenodd" d="M27.5051 41.7713V37.7214L25.346 37.7269L25.1162 37.7242V41.7713H27.2532H27.5051Z" fill="#2B4D66"/>
<path fill-rule="evenodd" clip-rule="evenodd" d="M31.3777 43.5097C31.3777 42.5546 30.5943 41.7712 29.6394 41.7712H27.5051H27.2532C28.2082 41.7712 28.9916 42.5546 28.9916 43.5097V45.37H31.0428H31.3777V43.5097Z" fill="#E5E4EC"/>
<path fill-rule="evenodd" clip-rule="evenodd" d="M35.314 47.2523C35.314 46.2169 34.467 45.3699 33.429 45.3699H31.3778H31.0428C32.0781 45.3699 32.9252 46.2169 32.9252 47.2523V48.8523C32.9252 49.0792 32.7397 49.2675 32.5099 49.2675H34.8988C35.1258 49.2675 35.314 49.0792 35.314 48.8523V47.2523Z" fill="#2B4D66"/>
<path fill-rule="evenodd" clip-rule="evenodd" d="M31.1896 12.7354C31.1896 9.31665 28.4187 6.54565 25 6.54565C23.5025 6.54565 22.1294 7.0772 21.0582 7.96294C24.391 8.06255 27.0596 10.7949 27.0596 14.15C27.0596 15.0248 26.8769 15.858 26.5502 16.6136H28.9945H29.8249C30.6802 15.5506 31.1896 14.2025 31.1896 12.7354Z" fill="#FBBA58"/>
<path d="M12.9973 13.4679H15.6215C16.026 13.4679 16.3539 13.14 16.3539 12.7355C16.3539 12.331 16.026 12.0031 15.6215 12.0031H12.9973C12.5928 12.0031 12.2648 12.331 12.2648 12.7355C12.2648 13.14 12.5928 13.4679 12.9973 13.4679Z" fill="black"/>
<path d="M33.646 12.7355C33.646 13.14 33.9738 13.4679 34.3784 13.4679H37.0054C37.41 13.4679 37.7378 13.14 37.7378 12.7355C37.7378 12.331 37.41 12.0031 37.0054 12.0031H34.3784C33.9738 12.0031 33.646 12.331 33.646 12.7355Z" fill="black"/>
<path d="M31.6324 6.83796C31.82 6.83796 32.0077 6.76628 32.1508 6.62302L34.0055 4.7655C34.2913 4.47927 34.2909 4.0155 34.0047 3.72976C33.7184 3.44392 33.2547 3.44431 32.9688 3.73054L31.1142 5.58806C30.8283 5.87429 30.8287 6.33806 31.1149 6.6238C31.2579 6.76658 31.4451 6.83796 31.6324 6.83796Z" fill="black"/>
<path d="M17.8523 6.62341C17.9953 6.76648 18.1828 6.83796 18.3702 6.83796C18.5576 6.83796 18.7451 6.76648 18.8881 6.62341C19.1741 6.33738 19.1741 5.87371 18.8881 5.58767L17.0307 3.73015C16.7446 3.44412 16.2809 3.44412 15.9949 3.73015C15.7089 4.01619 15.7089 4.47986 15.9949 4.76589L17.8523 6.62341Z" fill="black"/>
<path d="M24.9999 4.08916C25.4045 4.08916 25.7323 3.76123 25.7323 3.35674V0.732422C25.7323 0.32793 25.4045 0 24.9999 0C24.5954 0 24.2675 0.32793 24.2675 0.732422V3.35674C24.2675 3.76123 24.5954 4.08916 24.9999 4.08916Z" fill="black"/>
<path d="M49.2802 35.4808L48.9784 33.5763C48.978 33.5738 48.9773 33.5715 48.9769 33.569C48.9764 33.5665 48.9764 33.5639 48.9759 33.5613L46.9319 22.1905C46.9296 22.1756 46.9271 22.1606 46.9239 22.1461L46.144 17.8074C46.1421 17.7969 46.14 17.7863 46.1377 17.7759C45.8891 16.6739 44.9402 15.8938 43.8304 15.8787C43.827 15.8787 43.8237 15.8787 43.8203 15.8787L31.1651 15.8806C31.6578 14.9124 31.9218 13.8323 31.9218 12.7356C31.9218 8.91875 28.8166 5.81348 24.9998 5.81348C21.183 5.81348 18.0778 8.91875 18.0778 12.7356C18.0778 13.8326 18.342 14.913 18.835 15.8814H12.0561C11.6516 15.8814 11.3236 16.2094 11.3236 16.6139C11.3236 17.0184 11.6516 17.3463 12.0561 17.3463H14.8474L14.2634 21.5729H4.66719L5.29414 18.085C5.38233 17.7203 5.71357 17.3523 6.18467 17.3436L8.67539 17.3463H8.67617C9.08027 17.3463 9.4082 17.0188 9.40859 16.6146C9.40899 16.2102 9.08145 15.8818 8.67695 15.8814L6.18008 15.8787C6.17647 15.8787 6.17295 15.8787 6.16934 15.8787C5.05957 15.8938 4.11074 16.6739 3.86211 17.7759C3.85977 17.7863 3.85762 17.7969 3.85566 17.8075L1.02393 33.5612C1.02354 33.5636 1.02344 33.5659 1.02305 33.5683C1.02256 33.5709 1.02178 33.5734 1.02139 33.5762L0.719923 35.4795C0.595704 36.2546 0.783497 36.982 1.24893 37.5279C1.73955 38.1036 2.47998 38.4206 3.33379 38.4206H21.7602L21.7619 41.0389H20.3606C18.9982 41.0389 17.8898 42.1473 17.8898 43.5098V44.6376H16.5711C15.1278 44.6376 13.9536 45.8106 13.9536 47.2524V48.8524C13.9536 49.4853 14.4697 50.0001 15.104 50.0001H34.8989C35.5317 50.0001 36.0466 49.4853 36.0466 48.8524V47.2524C36.0466 45.8106 34.8724 44.6376 33.429 44.6376H32.1103V43.5098C32.1103 42.1473 31.0019 41.0389 29.6395 41.0389H28.2377V38.4206H33.7252C34.1298 38.4206 34.4576 38.0927 34.4576 37.6882C34.4576 37.2837 34.1298 36.9558 33.7252 36.9558H3.33369C2.91602 36.9558 2.57139 36.8215 2.36357 36.5776C2.17842 36.3604 2.11016 36.0608 2.16641 35.7101L2.37031 34.4233H47.6296L47.8337 35.7113C47.8896 36.0609 47.8215 36.3604 47.6363 36.5776C47.4285 36.8215 47.084 36.9558 46.6662 36.9558H37.1051C36.7005 36.9558 36.3727 37.2837 36.3727 37.6882C36.3727 38.0927 36.7005 38.4206 37.1051 38.4206H46.6662C47.5199 38.4206 48.2603 38.1036 48.7511 37.5279C49.2164 36.982 49.4043 36.2546 49.2802 35.4808ZM34.5816 47.2523V48.5352H15.4183V47.2523C15.4183 46.6183 15.9354 46.1023 16.5709 46.1023H18.6221H31.3776H33.4288C34.0646 46.1023 34.5816 46.6183 34.5816 47.2523ZM30.6453 43.5097V44.6375H19.3546V43.5097C19.3546 42.955 19.8059 42.5036 20.3605 42.5036H29.6394C30.194 42.5036 30.6453 42.955 30.6453 43.5097ZM26.7728 41.0388H23.2268L23.225 38.4205H26.7729L26.7728 41.0388ZM24.2675 28.7317V32.9584H14.1689L14.7529 28.7317H24.2675ZM14.9553 27.2669L15.5396 23.0375H24.2675V27.2669H14.9553ZM25.7324 28.7317H35.247L35.831 32.9584H25.7324V28.7317ZM25.7324 27.2669V23.0375H34.4603L35.0446 27.2669H25.7324ZM25.7324 17.3461L33.6736 17.3448L34.2578 21.5728H25.7324V17.3461ZM35.939 23.0376H45.596L46.3562 27.267H36.5233L35.939 23.0376ZM44.7058 18.0848L45.3327 21.5728H35.7366L35.1524 17.3446L43.8149 17.3434C44.2862 17.352 44.6175 17.72 44.7058 18.0848ZM19.5428 12.7354C19.5428 9.72627 21.9908 7.27813 24.9999 7.27813C28.0089 7.27813 30.457 9.72627 30.457 12.7354C30.457 13.879 30.1138 14.9593 29.461 15.8807L24.9999 15.8813H20.5392C19.8861 14.9598 19.5428 13.8792 19.5428 12.7354ZM16.3261 17.3461H24.2675V21.5728H15.7421L16.3261 17.3461ZM14.0609 23.0376L13.4766 27.2669H3.64365L4.40391 23.0375L14.0609 23.0376ZM3.38037 28.7317H13.2742L12.6981 32.9013C12.6955 32.9204 12.6943 32.9395 12.6932 32.9584H2.62061L3.38037 28.7317ZM37.3068 32.9584C37.3057 32.9395 37.3045 32.9204 37.3019 32.9013L36.7258 28.7317H46.6195L47.3793 32.9584H37.3068Z" fill="black"/>
</g>
<defs>
<clipPath id="clip0_146_274">
<rect width="50" height="50" fill="white"/>
</clipPath>
</defs>
</svg>
