<svg width="50" height="50" viewBox="0 0 50 50" fill="none" xmlns="http://www.w3.org/2000/svg">
<g clip-path="url(#clip0_146_308)">
<path d="M26.9837 22.4722L26.0641 21.7006V42.5874H45.6546C45.9242 42.5874 46.1429 42.3687 46.1429 42.0991V22.4722H26.9837Z" fill="#FFEEE6"/>
<path d="M46.143 26.6482V22.4723H43.0665V27.4369C44.0229 26.9157 45.0823 26.6526 46.143 26.6482Z" fill="#FFDFCF"/>
<path d="M43.0665 36.2268V42.0991C43.0665 42.3687 42.8479 42.5874 42.5782 42.5874H45.6547C45.9243 42.5874 46.143 42.3687 46.143 42.0991V35.2949C45.1973 35.8692 44.1368 36.1797 43.0665 36.2268Z" fill="#FFDFCF"/>
<path d="M1.51892 21.9101V42.0991C1.51892 42.3688 1.73757 42.5874 2.0072 42.5874H26.1619V21.9101L13.8404 11.5714L1.51892 21.9101Z" fill="#FFEEE6"/>
<path d="M13.8404 11.5714L11.444 13.5822L22.2434 22.6437C22.4645 22.8292 22.5922 23.1031 22.5922 23.3918V42.5875H26.1618V21.9101L13.8404 11.5714Z" fill="#FFDFCF"/>
<path d="M9.12317 42.5875H18.5575V27.7185C18.5575 27.5567 18.4264 27.4255 18.2646 27.4255H9.41614C9.25432 27.4255 9.12317 27.5567 9.12317 27.7185V42.5875Z" fill="#FE646F"/>
<path d="M18.2647 27.4255H15.2345C15.3963 27.4255 15.5275 27.5567 15.5275 27.7185V42.5875H18.5576V27.7185C18.5576 27.5568 18.4265 27.4255 18.2647 27.4255Z" fill="#FD4755"/>
<path d="M29.0799 17.8583L21.5872 11.5714H13.8405L26.9484 22.5699H48.2047L42.5895 17.8583H29.0799Z" fill="#FE646F"/>
<path d="M38.5148 17.8583L44.13 22.5699H48.2047L42.5894 17.8583H38.5148Z" fill="#FD4755"/>
<path d="M36.8188 7.4126H16.6309L29.0799 17.8583H49.2677L36.8188 7.4126Z" fill="#C8EFFE"/>
<path d="M36.8188 7.4126H33.7622L46.2111 17.8583H49.2677L36.8188 7.4126Z" fill="#99E6FC"/>
<path d="M30.4743 27.1755C29.4549 29.5454 29.9111 32.3982 31.8466 34.3336C33.782 36.2691 36.6347 36.7252 39.0047 35.7059C40.0241 33.3359 39.5678 30.4832 37.6324 28.5478C35.697 26.6123 32.8442 26.1561 30.4743 27.1755Z" fill="#A2E62E"/>
<path d="M37.6324 28.5477C35.697 26.6123 32.8443 26.1561 30.4743 27.1755C30.2533 27.6893 30.1019 28.2259 30.0197 28.771C31.9933 28.4676 34.0795 29.0747 35.5998 30.595C37.1156 32.1107 37.7239 34.1891 37.4268 36.1576C37.9657 36.0748 38.4964 35.9245 39.0047 35.7058C40.0241 33.336 39.5679 30.4832 37.6324 28.5477Z" fill="#97D729"/>
<path d="M48.7396 27.1755C49.7589 29.5454 49.3027 32.3982 47.3673 34.3336C45.4318 36.2691 42.5791 36.7252 40.2092 35.7059C39.1898 33.3359 39.646 30.4832 41.5815 28.5478C43.5169 26.6123 46.3696 26.1561 48.7396 27.1755Z" fill="#A2E62E"/>
<path d="M48.7395 27.1755C48.2406 26.9609 47.7202 26.8125 47.1916 26.7288C47.4901 28.6985 46.8821 30.7787 45.3653 32.2955C43.8373 33.8235 41.7376 34.4287 39.7551 34.1144C39.8375 34.658 39.9886 35.1932 40.2091 35.7058C42.5791 36.7251 45.4318 36.269 47.3672 34.3335C49.3027 32.3982 49.7588 29.5454 48.7395 27.1755Z" fill="#97D729"/>
<path d="M11.7958 33.0713C11.3912 33.0713 11.0634 33.3992 11.0634 33.8037V35.3982C11.0634 35.8027 11.3912 36.1307 11.7958 36.1307C12.2004 36.1307 12.5282 35.8027 12.5282 35.3982V33.8037C12.5282 33.3992 12.2004 33.0713 11.7958 33.0713Z" fill="black"/>
<path d="M49.4053 26.8861C49.3313 26.714 49.1941 26.5768 49.0219 26.5027C48.3218 26.2016 47.5959 26.0176 46.8682 25.9446V23.3023H48.1974C48.5053 23.3023 48.7804 23.1098 48.8857 22.8204C48.9909 22.5311 48.904 22.2067 48.6682 22.0088L44.5946 18.5907H49.2605C49.5684 18.5907 49.8435 18.3981 49.9488 18.1088C50.054 17.8194 49.9671 17.4951 49.7313 17.2972L37.2824 6.85156C37.1504 6.74082 36.9838 6.68018 36.8116 6.68018H25.286C24.8814 6.68018 24.5535 7.00811 24.5535 7.4126C24.5535 7.81709 24.8814 8.14502 25.286 8.14502H27.4099L32.0764 12.0605H23.3026L18.6361 8.14502H21.868C22.2726 8.14502 22.6004 7.81709 22.6004 7.4126C22.6004 7.00811 22.2726 6.68018 21.868 6.68018H16.6238C16.3158 6.68018 16.0407 6.87275 15.9355 7.16211C15.8302 7.45146 15.9171 7.77578 16.153 7.97373L18.6305 10.0525V10.839H13.8333C13.6332 10.839 13.4479 10.9213 13.3131 11.0576L0.261641 22.0088C-0.0482228 22.2688 -0.0886524 22.7309 0.171406 23.0406C0.31623 23.2133 0.52375 23.3022 0.732832 23.3022C0.750703 23.3022 0.768476 23.299 0.786348 23.2977V31.0716C0.786348 31.4761 1.11418 31.804 1.51877 31.804C1.92336 31.804 2.25119 31.4761 2.25119 31.0716V22.2516L13.8367 12.5304L25.4293 22.2574V41.8549H19.2899V27.7185C19.2899 27.153 18.8299 26.6931 18.2645 26.6931H9.41613C8.8507 26.6931 8.39074 27.153 8.39074 27.7185V41.855H2.25129V34.4896C2.25129 34.0852 1.92346 33.7572 1.51887 33.7572C1.11428 33.7572 0.786445 34.0852 0.786445 34.4896V42.0991C0.786445 42.7723 1.334 43.3198 2.00715 43.3198H32.0313C32.4359 43.3198 32.7637 42.9919 32.7637 42.5874C32.7637 42.1829 32.4359 41.855 32.0313 41.855H26.8942V23.3003C26.9098 23.3013 26.9254 23.3023 26.9411 23.3023H45.4034V25.9482C43.7965 26.117 42.2594 26.8271 41.0565 28.03C40.4385 28.6479 39.9514 29.3546 39.5998 30.1132C39.2483 29.3546 38.7612 28.6479 38.1432 28.03C36.0391 25.926 32.9125 25.3266 30.1778 26.5027C30.0056 26.5768 29.8685 26.714 29.7944 26.8861C28.6179 29.6209 29.2174 32.7476 31.3215 34.8516C32.7102 36.2402 34.544 36.9734 36.4168 36.9734C37.2202 36.9734 38.0305 36.8363 38.816 36.5603L38.8674 36.6116V41.855H35.4422C35.0376 41.855 34.7098 42.1829 34.7098 42.5874C34.7098 42.9919 35.0376 43.3198 35.4422 43.3198H45.6476C46.3207 43.3198 46.8683 42.7723 46.8683 42.0991V35.6926C47.2243 35.4459 47.5632 35.1665 47.8782 34.8516C49.9823 32.7476 50.5817 29.6209 49.4053 26.8861ZM38.6691 34.3416L33.7277 29.4002C33.4415 29.1142 32.9779 29.1142 32.6918 29.4002C32.4058 29.6862 32.4058 30.15 32.6918 30.4359L37.6332 35.3773C35.7446 35.7855 33.7643 35.2226 32.3574 33.8157C30.7497 32.2081 30.244 29.8514 31.0303 27.7386C33.1433 26.9523 35.4999 27.458 37.1073 29.0656C38.5142 30.4725 39.0772 32.4529 38.6691 34.3416ZM47.2483 17.1259H40.3922L36.1012 13.5254H42.9572L47.2483 17.1259ZM29.689 8.14502H36.545L41.2115 12.0605H34.3555L29.689 8.14502ZM33.8221 13.5254L38.113 17.1259H29.3392L25.0484 13.5254H33.8221ZM9.85559 41.855V28.1579H17.825V41.855H9.85559ZM27.2077 21.8375L15.8456 12.3038H21.3135L28.6019 18.4193C28.7339 18.5301 28.9005 18.5907 29.0727 18.5907H30.7224V19.7186C30.7224 20.123 31.0502 20.451 31.4548 20.451C31.8594 20.451 32.1872 20.123 32.1872 19.7186V18.5907H42.2828V19.7186C42.2828 20.123 42.6107 20.451 43.0153 20.451C43.3959 20.451 43.7085 20.1605 43.7441 19.7893L46.1852 21.8375H27.2077ZM45.4034 41.855H40.3322V36.6116L40.3836 36.5603C41.1694 36.8363 41.9794 36.9734 42.7829 36.9734C43.6804 36.9734 44.5685 36.8032 45.4034 36.4749V41.855ZM46.8423 33.8157C45.4355 35.2226 43.4551 35.7854 41.5665 35.3773L46.5078 30.436C46.7939 30.15 46.7939 29.6862 46.5078 29.4003C46.2217 29.1143 45.758 29.1143 45.472 29.4003L40.5307 34.3416C40.1226 32.4529 40.6856 30.4726 42.0923 29.0658C43.6999 27.4581 46.0565 26.9524 48.1694 27.7388C48.9557 29.8515 48.4499 32.2082 46.8423 33.8157Z" fill="black"/>
</g>
<defs>
<clipPath id="clip0_146_308">
<rect width="50" height="50" fill="white"/>
</clipPath>
</defs>
</svg>
