<svg width="57" height="57" viewBox="0 0 57 57" fill="none" xmlns="http://www.w3.org/2000/svg">
<path d="M55.8125 33.25C55.8125 30.3816 54.1051 27.9099 51.6562 26.7813V26.125C51.6562 13.3565 41.2685 2.96875 28.5 2.96875C15.7315 2.96875 5.34375 13.3565 5.34375 26.125V26.7813C2.89489 27.9099 1.1875 30.3816 1.1875 33.25C1.1875 37.1787 4.38354 40.375 8.3125 40.375H10.6875C11.3433 40.375 11.875 39.8433 11.875 39.1875V27.3125C11.875 26.6567 11.3433 26.125 10.6875 26.125H8.3125C8.11209 26.125 7.91502 26.1388 7.71875 26.1551V26.125C7.71875 14.6663 17.0413 5.34375 28.5 5.34375C39.9587 5.34375 49.2812 14.6663 49.2812 26.125V26.1551C49.085 26.1388 48.8879 26.125 48.6875 26.125H46.3125C45.6567 26.125 45.125 26.6567 45.125 27.3125V39.1875C45.125 39.8433 45.6567 40.375 46.3125 40.375H48.6875C48.8879 40.375 49.085 40.3612 49.2812 40.3449V42.1562C49.2812 46.0849 46.0852 49.2812 42.1562 49.2812H33.25C33.25 47.9717 32.1848 46.9062 30.875 46.9062H24.9375C23.6277 46.9062 22.5625 47.9717 22.5625 49.2812V51.6562C22.5625 52.9658 23.6277 54.0312 24.9375 54.0312H30.875C32.1848 54.0312 33.25 52.9658 33.25 51.6562H42.1562C47.3945 51.6562 51.6562 47.3945 51.6562 42.1562V39.7187C54.1051 38.5901 55.8125 36.1184 55.8125 33.25ZM9.5 28.5V38H8.3125C5.69339 38 3.5625 35.8691 3.5625 33.25C3.5625 30.6309 5.69339 28.5 8.3125 28.5H9.5ZM24.9375 51.6562V49.2812H30.875L30.8759 50.4602C30.8758 50.4631 30.875 50.4658 30.875 50.4688C30.875 50.4717 30.8758 50.4745 30.8759 50.4774L30.8767 51.6562H24.9375ZM48.6875 38H47.5V28.5H48.6875C51.3066 28.5 53.4375 30.6309 53.4375 33.25C53.4375 35.8691 51.3066 38 48.6875 38ZM28.5 40.9688C35.7027 40.9688 41.5625 35.1089 41.5625 27.9062C41.5625 20.7036 35.7027 14.8438 28.5 14.8438C21.2973 14.8438 15.4375 20.7036 15.4375 27.9062C15.4375 30.2366 16.062 32.5142 17.2483 34.5242L16.0527 40.7446C15.9698 41.1766 16.1321 41.619 16.4754 41.8947C16.6899 42.067 16.9532 42.1562 17.2188 42.1562C17.3782 42.1562 17.5382 42.1244 17.6896 42.0591L23.0211 39.7578C24.7496 40.5617 26.59 40.9688 28.5 40.9688ZM18.8087 38.9892L19.6674 34.5195C19.7248 34.2206 19.6656 33.9113 19.5016 33.655C18.3964 31.93 17.8125 29.942 17.8125 27.9062C17.8125 22.0131 22.6071 17.2188 28.5 17.2188C34.3929 17.2188 39.1875 22.0131 39.1875 27.9062C39.1875 33.7994 34.3929 38.5938 28.5 38.5938C26.7831 38.5938 25.1341 38.1908 23.5987 37.3961C23.2827 37.2323 22.9092 37.2187 22.5822 37.3604L18.8087 38.9892ZM28.5 31.4688H22.5625C21.9067 31.4688 21.375 30.937 21.375 30.2812C21.375 29.6255 21.9067 29.0938 22.5625 29.0938H28.5C29.1558 29.0938 29.6875 29.6255 29.6875 30.2812C29.6875 30.937 29.1558 31.4688 28.5 31.4688ZM21.375 25.5312C21.375 24.8755 21.9067 24.3438 22.5625 24.3438H34.4375C35.0933 24.3438 35.625 24.8755 35.625 25.5312C35.625 26.187 35.0933 26.7188 34.4375 26.7188H22.5625C21.9067 26.7188 21.375 26.187 21.375 25.5312Z" fill="#005DB5"/>
</svg>
