<svg width="32" height="32" viewBox="0 0 32 32" fill="none" xmlns="http://www.w3.org/2000/svg">
<path d="M23.5734 19.3603C23.0001 18.5758 22.1389 18.0509 21.1789 17.9009C20.2189 17.7509 19.2386 17.988 18.4534 18.5603L16.9467 19.6536C14.7795 17.6926 13.041 15.3049 11.84 12.6403L13.3334 11.5469C14.1209 10.9733 14.6487 10.1107 14.8012 9.14841C14.9537 8.18612 14.7183 7.20263 14.1467 6.41361L12.6 4.26695C12.321 3.87486 11.9659 3.54295 11.5558 3.29097C11.1458 3.039 10.6892 2.87212 10.2134 2.80028C9.27329 2.66163 8.31625 2.8961 7.54671 3.45362L5.17338 5.13361C4.41947 5.67771 3.83269 6.42174 3.47928 7.2817C3.12587 8.14166 3.01992 9.08329 3.17338 10.0003C3.85084 13.9485 5.43055 17.687 7.78946 20.9248C10.1484 24.1625 13.2228 26.812 16.7734 28.6669C17.4871 29.0336 18.2777 29.2256 19.08 29.2269C20.1355 29.2299 21.1639 28.8933 22.0134 28.2669L24.3334 26.6669C25.12 26.0957 25.6476 25.2354 25.8001 24.2753C25.9526 23.3152 25.7176 22.3338 25.1467 21.5469L23.5734 19.3603ZM23.16 25.0269L20.84 26.6669C20.389 26.9939 19.8561 27.1894 19.3006 27.2318C18.7452 27.2742 18.1888 27.1617 17.6934 26.9069C14.4038 25.1852 11.5585 22.7236 9.38142 19.7159C7.20432 16.7082 5.75474 13.2364 5.14671 9.57361C5.054 9.02339 5.11728 8.4582 5.32938 7.94211C5.54147 7.42601 5.8939 6.97965 6.34671 6.65361L8.65338 5.06695C8.94228 4.86283 9.28634 4.75125 9.64005 4.74695H9.89338C10.1106 4.7805 10.319 4.85667 10.5066 4.97109C10.6943 5.0855 10.8574 5.2359 10.9867 5.41361L12.56 7.60028C12.8169 7.95789 12.9218 8.40259 12.8518 8.83727C12.7819 9.27195 12.5428 9.66129 12.1867 9.92028L10.0267 11.4936C9.84659 11.6258 9.71589 11.8144 9.65548 12.0295C9.59506 12.2446 9.60841 12.4737 9.69338 12.6803C11.1045 16.1755 13.3526 19.2706 16.24 21.6936C16.4145 21.8321 16.6307 21.9074 16.8534 21.9074C17.0761 21.9074 17.2923 21.8321 17.4667 21.6936L19.6267 20.1336C19.8042 20.0044 20.0055 19.9115 20.2191 19.8603C20.4326 19.8091 20.6542 19.8006 20.871 19.8353C21.0878 19.87 21.2956 19.9472 21.4825 20.0624C21.6694 20.1777 21.8317 20.3288 21.96 20.5069L23.52 22.6669C23.6524 22.8452 23.7481 23.0478 23.8017 23.2632C23.8553 23.4787 23.8656 23.7026 23.8322 23.922C23.7987 24.1415 23.722 24.3521 23.6067 24.5417C23.4913 24.7314 23.3395 24.8963 23.16 25.0269ZM17.4534 7.88028C17.4973 7.75045 17.5677 7.63119 17.6602 7.53008C17.7527 7.42898 17.8653 7.34826 17.9907 7.29307C18.1162 7.23788 18.2517 7.20942 18.3888 7.20951C18.5258 7.20961 18.6614 7.23825 18.7867 7.29361C20.3064 7.85558 21.6248 8.85655 22.5744 10.1694C23.524 11.4822 24.062 13.0477 24.12 14.6669C24.1273 14.93 24.0306 15.1852 23.8508 15.3774C23.6711 15.5696 23.4229 15.6832 23.16 15.6936C22.9016 15.6938 22.6531 15.594 22.4667 15.415C22.2803 15.236 22.1704 14.9918 22.16 14.7336C22.1175 13.5136 21.7151 12.3335 21.0033 11.3417C20.2915 10.35 19.3023 9.591 18.16 9.16028C18.0271 9.12682 17.9024 9.06637 17.7938 8.98269C17.6851 8.899 17.5949 8.79387 17.5286 8.67382C17.4623 8.55378 17.4214 8.42138 17.4085 8.28487C17.3956 8.14836 17.4108 8.01064 17.4534 7.88028ZM28.8934 14.4136C28.9157 14.6783 28.8332 14.9412 28.6637 15.1457C28.4941 15.3502 28.251 15.4799 27.9867 15.5069H27.8934C27.6444 15.5051 27.4049 15.4116 27.2204 15.2444C27.036 15.0771 26.9196 14.8479 26.8934 14.6003C26.7001 12.4424 25.9263 10.377 24.6539 8.62345C23.3816 6.86986 21.6582 5.49345 19.6667 4.64028C19.4227 4.53596 19.2301 4.33899 19.1314 4.09269C19.0326 3.84639 19.0357 3.57095 19.14 3.32695C19.2444 3.08295 19.4413 2.89038 19.6876 2.79162C19.9339 2.69285 20.2094 2.69596 20.4534 2.80028C22.7817 3.78778 24.7974 5.39039 26.2842 7.43627C27.7711 9.48215 28.673 11.8941 28.8934 14.4136Z" fill="white"/>
</svg>
