<svg width="32" height="32" viewBox="0 0 32 32" fill="none" xmlns="http://www.w3.org/2000/svg">
<path d="M21.3423 21.1428C24.7474 15.7995 24.3194 16.4661 24.4175 16.3268C25.6572 14.5782 26.3125 12.5201 26.3125 10.375C26.3125 4.68625 21.6962 0 16 0C10.3224 0 5.6875 4.677 5.6875 10.375C5.6875 12.5188 6.3565 14.6307 7.63688 16.4029L10.6576 21.1429C7.42794 21.6392 1.9375 23.1182 1.9375 26.375C1.9375 27.5622 2.71237 29.2541 6.40387 30.5724C8.9815 31.493 12.3894 32 16 32C22.7516 32 30.0625 30.0955 30.0625 26.375C30.0625 23.1177 24.5785 21.6402 21.3423 21.1428ZM9.20306 15.3716C9.19275 15.3554 9.182 15.3397 9.17075 15.3242C8.10531 13.8584 7.5625 12.1213 7.5625 10.375C7.5625 5.68638 11.3379 1.875 16 1.875C20.6524 1.875 24.4375 5.68806 24.4375 10.375C24.4375 12.1241 23.9049 13.8023 22.8971 15.2294C22.8068 15.3486 23.278 14.6166 16 26.0368L9.20306 15.3716ZM16 30.125C8.62537 30.125 3.8125 27.9573 3.8125 26.375C3.8125 25.3115 6.2855 23.5628 11.7655 22.8812L15.2094 28.2851C15.3815 28.5553 15.6796 28.7188 15.9999 28.7188C16.3202 28.7188 16.6184 28.5552 16.7905 28.2851L20.2343 22.8812C25.7144 23.5628 28.1875 25.3115 28.1875 26.375C28.1875 27.9439 23.4179 30.125 16 30.125Z" fill="white"/>
<path d="M16 5.6875C13.4153 5.6875 11.3125 7.79031 11.3125 10.375C11.3125 12.9597 13.4153 15.0625 16 15.0625C18.5847 15.0625 20.6875 12.9597 20.6875 10.375C20.6875 7.79031 18.5847 5.6875 16 5.6875ZM16 13.1875C14.4492 13.1875 13.1875 11.9258 13.1875 10.375C13.1875 8.82419 14.4492 7.5625 16 7.5625C17.5508 7.5625 18.8125 8.82419 18.8125 10.375C18.8125 11.9258 17.5508 13.1875 16 13.1875Z" fill="white"/>
</svg>
