<svg width="72" height="72" viewBox="0 0 72 72" fill="none" xmlns="http://www.w3.org/2000/svg">
<path d="M66.6626 24.4425C66.0718 24.6353 65.7494 25.2705 65.9422 25.8611C67.0068 29.1235 67.5468 32.5348 67.5468 36.0002C67.5468 44.7209 64.1509 52.9195 57.9843 59.086C51.8178 65.2526 43.6191 68.6485 34.8983 68.6485C26.1776 68.6485 17.9789 65.2526 11.8124 59.086C5.64581 52.9195 2.25 44.7208 2.25 36C2.25 27.2793 5.64595 19.0806 11.8125 12.9141C17.979 6.74752 26.1778 3.35156 34.8985 3.35156C39.5235 3.35156 43.9924 4.29853 48.1812 6.16645C52.2285 7.97123 55.8153 10.541 58.842 13.8045C59.2644 14.26 59.9763 14.287 60.4319 13.8643C60.8875 13.4418 60.9142 12.7301 60.4918 12.2744C57.2574 8.787 53.424 6.04073 49.0978 4.1115C44.6185 2.11434 39.8413 1.10156 34.8985 1.10156C25.5767 1.10156 16.813 4.73151 10.2216 11.3232C3.63009 17.9145 0 26.6783 0 36C0 45.3217 3.63009 54.0854 10.2216 60.6768C16.813 67.2683 25.5767 70.8984 34.8985 70.8984C44.2202 70.8984 52.984 67.2684 59.5754 60.6768C66.1669 54.0854 69.797 45.3217 69.797 36C69.797 32.2971 69.2197 28.651 68.0812 25.1629C67.8884 24.5723 67.2532 24.2501 66.6626 24.4425Z" fill="white"/>
<path d="M71.0112 11.7088C70.3739 11.0707 69.5257 10.7192 68.6234 10.7192C67.721 10.7192 66.8729 11.0707 66.2358 11.7084L65.2288 12.7154C64.7895 13.1547 64.7895 13.867 65.2288 14.3063C65.6681 14.7455 66.3805 14.7456 66.8198 14.3062L67.8273 13.2987C68.0396 13.0861 68.3223 12.9691 68.6232 12.9691C68.9242 12.9691 69.2068 13.0861 69.4197 13.2993C69.6326 13.5122 69.7499 13.7948 69.7499 14.0956C69.7499 14.3964 69.6326 14.6791 69.4197 14.892L30.6283 53.6837C30.416 53.8963 30.1333 54.0133 29.8324 54.0133C29.5314 54.0133 29.2488 53.8963 29.0359 53.6831L13.8862 38.5335C13.6733 38.3206 13.556 38.0379 13.556 37.7371C13.556 37.4364 13.6733 37.1536 13.8866 36.9402C14.099 36.7276 14.3816 36.6105 14.6826 36.6105C14.9835 36.6105 15.2662 36.7275 15.4791 36.9407L29.0369 50.4985C29.2478 50.7095 29.534 50.828 29.8324 50.828C30.1308 50.828 30.4169 50.7095 30.6279 50.4985L63.6535 17.4729C64.093 17.0334 64.093 16.3213 63.6535 15.8819C63.2142 15.4427 62.5019 15.4427 62.0626 15.8819L29.8324 48.112L17.0707 35.3501C16.4332 34.712 15.5852 34.3605 14.6828 34.3605C13.7804 34.3605 12.9323 34.712 12.2953 35.3497C11.6574 35.9876 11.3062 36.8354 11.3062 37.7371C11.3062 38.6388 11.6574 39.4866 12.2953 40.1246L27.4446 55.2739C28.0819 55.912 28.93 56.2635 29.8324 56.2635C30.7348 56.2635 31.5829 55.912 32.2198 55.2744L71.0107 16.4833C71.6486 15.8454 71.9999 14.9976 71.9999 14.0958C71.9999 13.194 71.6486 12.3461 71.0112 11.7088Z" fill="white"/>
</svg>
