<svg width="72" height="72" viewBox="0 0 72 72" fill="none" xmlns="http://www.w3.org/2000/svg">
<g clip-path="url(#clip0_297_220)">
<path d="M45.9314 18.7121C47.8699 18.7121 49.447 17.1349 49.447 15.1964C49.447 13.2579 47.8699 11.6807 45.9314 11.6807C43.9928 11.6807 42.4157 13.2579 42.4157 15.1964C42.4157 15.9881 42.679 16.7194 43.1224 17.3078L37.3461 25.3798C37.0014 25.2666 36.6337 25.2044 36.2514 25.2044C35.3277 25.2044 34.4865 25.5632 33.8584 26.1479L30.0083 23.9631C30.0596 23.7246 30.0871 23.4774 30.0871 23.2239C30.0871 21.2854 28.51 19.7082 26.5715 19.7082C24.633 19.7082 23.0559 21.2854 23.0559 23.2239C23.0559 23.4774 23.0835 23.7246 23.1348 23.9631L19.2846 26.1479C18.6566 25.5632 17.8154 25.2046 16.8916 25.2046C14.9531 25.2046 13.376 26.7818 13.376 28.7203C13.376 30.6589 14.9531 32.2361 16.8916 32.2361C18.8301 32.2361 20.4072 30.6589 20.4072 28.7203C20.4072 28.4668 20.3797 28.2196 20.3283 27.9811L24.1785 25.7963C24.8065 26.381 25.6478 26.7398 26.5715 26.7398C27.4953 26.7398 28.3364 26.381 28.9645 25.7965L32.8147 27.9812C32.7634 28.2197 32.7358 28.4669 32.7358 28.7205C32.7358 30.659 34.3129 32.2362 36.2514 32.2362C38.1901 32.2362 39.7672 30.659 39.7672 28.7205C39.7672 27.9286 39.5038 27.1972 39.0604 26.6089L44.8367 18.5368C45.1813 18.6499 45.5491 18.7121 45.9314 18.7121ZM45.9314 13.79C46.7068 13.79 47.3376 14.4209 47.3376 15.1964C47.3376 15.9718 46.7068 16.6027 45.9314 16.6027C45.156 16.6027 44.5251 15.9718 44.5251 15.1964C44.525 14.4209 45.1558 13.79 45.9314 13.79ZM16.8912 30.1264C16.1158 30.1264 15.4849 29.4956 15.4849 28.7201C15.4849 27.9445 16.1158 27.3137 16.8912 27.3137C17.6666 27.3137 18.2974 27.9445 18.2974 28.7201C18.2974 29.4956 17.6666 30.1264 16.8912 30.1264ZM26.5712 24.6301C25.7958 24.6301 25.165 23.9993 25.165 23.2237C25.165 22.4483 25.7958 21.8175 26.5712 21.8175C27.3466 21.8175 27.9775 22.4483 27.9775 23.2237C27.9776 23.9993 27.3466 24.6301 26.5712 24.6301ZM36.2513 30.1264C35.4759 30.1264 34.8451 29.4956 34.8451 28.7201C34.8451 27.9445 35.4759 27.3137 36.2513 27.3137C37.0268 27.3137 37.6577 27.9445 37.6577 28.7201C37.6577 29.4956 37.0267 30.1264 36.2513 30.1264Z" fill="white"/>
<path d="M58.8932 53.011H51.5123H11.3102H2.98336C2.50144 53.011 2.10938 52.6189 2.10938 52.137V8.62496C2.10938 8.14304 2.50144 7.75098 2.98336 7.75098H7.9553C8.53777 7.75098 9.00998 7.2789 9.00998 6.69629C9.00998 6.11368 8.53777 5.6416 7.9553 5.6416H2.98336C1.33833 5.6416 0 6.97993 0 8.62496V52.137C0 53.782 1.33833 55.1204 2.98336 55.1204H10.2555V57.4415C10.2555 58.7638 11.3313 59.8396 12.6536 59.8396H23.2109L18.2412 69.5424C17.9757 70.0609 18.1806 70.6964 18.699 70.9621C18.8529 71.0409 19.0171 71.0782 19.179 71.0782C19.5622 71.0782 19.9319 70.8687 20.1185 70.504L25.5808 59.8396H37.2417L42.704 70.504C42.8908 70.8687 43.2603 71.0782 43.6435 71.0782C43.8054 71.0782 43.9696 71.0407 44.1235 70.9621C44.642 70.6964 44.847 70.0609 44.5814 69.5424L39.6117 59.8396H50.169C51.4912 59.8396 52.567 58.764 52.567 57.4415V55.1204H58.8932C59.4757 55.1204 59.9479 54.6483 59.9479 54.0657C59.9479 53.4831 59.4757 53.011 58.8932 53.011ZM50.4577 57.4415C50.4577 57.6007 50.3281 57.7302 50.169 57.7302H12.6536C12.4944 57.7302 12.3649 57.6007 12.3649 57.4415V55.1204H50.4577V57.4415Z" fill="white"/>
<path d="M12.1738 7.75083H26.6121H36.2099H59.8388C60.3207 7.75083 60.7128 8.14289 60.7128 8.62482V18.6529C60.7128 19.2355 61.185 19.7076 61.7675 19.7076C62.35 19.7076 62.8222 19.2355 62.8222 18.6529V8.62482C62.8222 6.97979 61.4838 5.64146 59.8388 5.64146H37.2647V3.56836C37.2647 2.10938 36.0777 0.922363 34.6186 0.922363H28.2035C26.7445 0.922363 25.5574 2.10938 25.5574 3.56836V5.64146H12.1738C11.5914 5.64146 11.1191 6.11354 11.1191 6.69615C11.1191 7.27875 11.5914 7.75083 12.1738 7.75083ZM27.6668 3.56836C27.6668 3.27249 27.9075 3.03174 28.2035 3.03174H34.6186C34.9144 3.03174 35.1553 3.27249 35.1553 3.56836V5.64146H27.6669V3.56836H27.6668Z" fill="white"/>
<path d="M14.752 37.6279C14.1695 37.6279 13.6973 38.1 13.6973 38.6826V48.0021C13.6973 48.5847 14.1695 49.0568 14.752 49.0568H19.0307C19.6132 49.0568 20.0854 48.5847 20.0854 48.0021V38.6826C20.0854 38.1 19.6132 37.6279 19.0307 37.6279H14.752ZM17.9761 46.9476H15.8066V39.7374H17.9761V46.9476Z" fill="white"/>
<path d="M24.4316 32.2383C23.8492 32.2383 23.377 32.7104 23.377 33.293V48.0025C23.377 48.5851 23.8492 49.0572 24.4316 49.0572H28.7104C29.2929 49.0572 29.7651 48.5851 29.7651 48.0025V33.293C29.7651 32.7104 29.2929 32.2383 28.7104 32.2383H24.4316ZM27.6559 46.9478H25.4865V34.3477H27.6559V46.9478Z" fill="white"/>
<path d="M34.1118 37.6279C33.5293 37.6279 33.0571 38.1 33.0571 38.6826V48.0021C33.0571 48.5847 33.5293 49.0568 34.1118 49.0568H38.3906C38.9731 49.0568 39.4453 48.5847 39.4453 48.0021V38.6826C39.4453 38.1 38.9731 37.6279 38.3906 37.6279H34.1118ZM37.3359 46.9476H35.1665V39.7374H37.3359V46.9476Z" fill="white"/>
<path d="M43.792 43.8516C43.2095 43.8516 42.7373 44.3236 42.7373 44.9062V48.0024C42.7373 48.585 43.2095 49.0571 43.792 49.0571H48.0708C48.6533 49.0571 49.1255 48.585 49.1255 48.0024C49.1255 47.4198 48.6533 46.9477 48.0708 46.9477H44.8467V44.9062C44.8467 44.3236 44.3745 43.8516 43.792 43.8516Z" fill="white"/>
<path d="M71.4619 54.0029L65.4112 43.5227C66.9441 41.8887 68.0604 39.8923 68.6567 37.667C69.6097 34.1105 69.1206 30.3956 67.2795 27.2068C63.479 20.6237 55.0315 18.3606 48.4489 22.161C41.8661 25.9614 39.6027 34.4089 43.4032 40.9917C45.2443 44.1805 48.217 46.4614 51.7735 47.4146C52.9612 47.7328 54.1663 47.8902 55.3637 47.8902C56.4102 47.8902 57.4507 47.7698 58.4683 47.5316L64.5177 58.0121C65.2592 59.297 66.6095 60.016 67.9963 60.0159C68.6759 60.0159 69.3644 59.843 69.9943 59.4797C71.2312 58.7657 71.9998 57.4344 71.9998 56.0054C71.9998 55.3052 71.8138 54.6129 71.4619 54.0029ZM52.3194 45.3771C49.3071 44.5699 46.7892 42.6378 45.2298 39.937C42.0109 34.3615 43.9281 27.2068 49.5034 23.9877C51.3376 22.9288 53.3419 22.426 55.3216 22.426C59.3597 22.426 63.2927 24.5203 65.4527 28.2615C67.0119 30.9623 67.4262 34.1087 66.619 37.1211C65.8118 40.1336 63.8798 42.6512 61.1789 44.2106C58.4782 45.77 55.3319 46.184 52.3194 45.3771ZM68.94 57.6527C68.0326 58.1766 66.8682 57.8647 66.3447 56.9577L60.5245 46.8743C61.1078 46.6362 61.679 46.3578 62.2339 46.0375C62.7892 45.7168 63.3152 45.3599 63.8131 44.9735L69.635 55.0573C69.8021 55.3471 69.8904 55.6751 69.8904 56.0055C69.8904 56.6831 69.5262 57.3143 68.94 57.6527Z" fill="white"/>
<path d="M64.9041 37.0705C65.6488 34.672 65.4714 32.1042 64.4048 29.8401C64.1564 29.3131 63.5281 29.0872 63.0012 29.3354C62.4741 29.5838 62.2483 30.2121 62.4966 30.739C63.338 32.5249 63.4776 34.5512 62.8897 36.4449C62.2985 38.3489 61.0213 39.9468 59.2935 40.9444C57.4651 42.0003 55.3348 42.2804 53.2956 41.734C51.2562 41.1876 49.5516 39.8796 48.496 38.0512C46.3168 34.2767 47.6147 29.433 51.3892 27.2538C54.149 25.6606 57.5739 25.8735 60.1152 27.7961C60.5798 28.1477 61.2411 28.0562 61.5926 27.5915C61.944 27.127 61.8524 26.4655 61.3878 26.1141C58.1688 23.6784 53.8299 23.4088 50.3344 25.4269C48.018 26.7642 46.361 28.9237 45.6688 31.5072C44.9765 34.0908 45.3318 36.7894 46.6692 39.1058C48.0065 41.4223 50.1659 43.0791 52.7495 43.7716C53.6122 44.0028 54.4878 44.1171 55.3575 44.1171C57.0926 44.1171 58.8052 43.662 60.348 42.7712C62.5371 41.5075 64.1552 39.4831 64.9041 37.0705Z" fill="white"/>
</g>
<defs>
<clipPath id="clip0_297_220">
<rect width="72" height="72" fill="white"/>
</clipPath>
</defs>
</svg>
