<svg width="72" height="72" viewBox="0 0 72 72" fill="none" xmlns="http://www.w3.org/2000/svg">
<path d="M38.3964 38.5088V44.7526H40.6464V38.5088C40.6459 37.0256 40.256 35.5685 39.5156 34.2832C38.7753 32.998 37.7104 31.9296 36.4276 31.1851C37.3027 30.0379 37.8398 28.6691 37.9782 27.2329C38.1166 25.7968 37.8508 24.3505 37.2109 23.0574C36.5709 21.7643 35.5823 20.6758 34.3565 19.9148C33.1308 19.1538 31.7167 18.7505 30.2739 18.7505C28.8311 18.7505 27.417 19.1538 26.1913 19.9148C24.9655 20.6758 23.9768 21.7643 23.3369 23.0574C22.697 24.3505 22.4312 25.7968 22.5696 27.2329C22.708 28.6691 23.245 30.0379 24.1201 31.1851C22.836 31.9291 21.7695 32.997 21.0273 34.2821C20.285 35.5673 19.8929 37.0247 19.8901 38.5088V44.7526H22.1401V38.5088C22.1392 37.3077 22.4846 36.1319 23.1351 35.1222C23.7856 34.1125 24.7136 33.3119 25.8076 32.8163L26.1114 32.9963C26.2801 33.1088 26.4601 33.2101 26.6289 33.3001C26.7857 33.3842 26.9472 33.4594 27.1126 33.5251C27.3766 33.6483 27.647 33.7572 27.9226 33.8513C29.4332 34.3614 31.0695 34.3614 32.5801 33.8513C32.8602 33.7592 33.1344 33.6502 33.4014 33.5251C33.5631 33.4593 33.7209 33.3842 33.8739 33.3001C34.0526 33.2097 34.2254 33.1083 34.3914 32.9963L34.7064 32.8163C35.8055 33.3074 36.7389 34.1063 37.3937 35.1165C38.0486 36.1267 38.3968 37.3049 38.3964 38.5088ZM33.8289 30.6338C33.0793 31.2466 32.1843 31.6555 31.2304 31.8211C30.2766 31.9866 29.2961 31.9032 28.3839 31.5788C27.7763 31.3671 27.2122 31.0469 26.7189 30.6338C25.8662 29.9067 25.257 28.9355 24.9734 27.8514C24.6899 26.7672 24.7456 25.6222 25.1331 24.5707C25.5205 23.5192 26.2211 22.6118 27.1403 21.9709C28.0596 21.3299 29.1533 20.9863 30.2739 20.9863C31.3945 20.9863 32.4882 21.3299 33.4074 21.9709C34.3267 22.6118 35.0273 23.5192 35.4147 24.5707C35.8022 25.6222 35.8579 26.7672 35.5743 27.8514C35.2908 28.9355 34.6816 29.9067 33.8289 30.6338Z" fill="white"/>
<path d="M13.2752 45.6974C10.4863 41.9791 8.98551 37.4529 9.00016 32.8049C9.00701 29.3483 9.84464 25.9439 11.4425 22.8787C13.0403 19.8135 15.3515 17.1773 18.1814 15.1922C21.0112 13.2071 24.2768 11.9313 27.7029 11.4724C31.1289 11.0134 34.6151 11.3847 37.8677 12.5549L38.6327 10.4399C33.8222 8.71815 28.5855 8.58899 23.696 10.0716C18.8065 11.5541 14.5234 14.5698 11.4793 18.6733C8.4351 22.7767 6.79127 27.7504 6.79053 32.8597C6.78979 37.969 8.43218 42.9431 11.4752 47.0474L13.2752 45.6974Z" fill="white"/>
<path d="M53.4261 52.5262L52.0536 53.8987L47.5536 49.3987C51.8873 44.9448 54.3094 38.9742 54.3036 32.7599C54.3022 31.5092 54.2044 30.2605 54.0111 29.0249L51.7611 29.3849C51.9413 30.5009 52.0316 31.6295 52.0311 32.7599C52.0468 37.7649 50.3229 42.6199 47.1544 46.4943C43.9859 50.3687 39.5697 53.0219 34.6611 53.9999L35.0886 56.2499C39.094 55.4831 42.8313 53.6881 45.9336 51.0412L50.4336 55.5412L49.0611 56.9137C48.4786 57.4996 48.1516 58.2924 48.1516 59.1187C48.1516 59.9449 48.4786 60.7377 49.0611 61.3237L57.1949 69.4687L58.7924 67.8712L50.6249 59.6924C50.4794 59.5279 50.399 59.3158 50.399 59.0962C50.399 58.8765 50.4794 58.6644 50.6249 58.4999L55.0124 54.1124C55.1768 53.9489 55.3993 53.8571 55.6311 53.8571C55.863 53.8571 56.0855 53.9489 56.2499 54.1124L65.5761 63.4499L67.1736 61.8749L57.8361 52.5374C57.2516 51.9533 56.4597 51.6243 55.6335 51.6222C54.8072 51.6201 54.0136 51.9451 53.4261 52.5262Z" fill="white"/>
<path d="M68.625 11.25H41.625C41.3266 11.25 41.0405 11.3685 40.8295 11.5795C40.6185 11.7905 40.5 12.0766 40.5 12.375V25.875C40.5 26.1734 40.6185 26.4595 40.8295 26.6705C41.0405 26.8815 41.3266 27 41.625 27H68.625C68.9234 27 69.2095 26.8815 69.4205 26.6705C69.6315 26.4595 69.75 26.1734 69.75 25.875V12.375C69.75 12.0766 69.6315 11.7905 69.4205 11.5795C69.2095 11.3685 68.9234 11.25 68.625 11.25ZM67.5 24.75H42.75V13.5H67.5V24.75Z" fill="white"/>
<path d="M45 15.75H65.25V18H45V15.75Z" fill="white"/>
<path d="M45 20.25H56.25V22.5H45V20.25Z" fill="white"/>
<path d="M58.5 20.25H65.25V22.5H58.5V20.25Z" fill="white"/>
<path d="M30.375 48.375H3.375C3.07663 48.375 2.79048 48.4935 2.5795 48.7045C2.36853 48.9155 2.25 49.2016 2.25 49.5V63C2.25 63.2984 2.36853 63.5845 2.5795 63.7955C2.79048 64.0065 3.07663 64.125 3.375 64.125H30.375C30.6734 64.125 30.9595 64.0065 31.1705 63.7955C31.3815 63.5845 31.5 63.2984 31.5 63V49.5C31.5 49.2016 31.3815 48.9155 31.1705 48.7045C30.9595 48.4935 30.6734 48.375 30.375 48.375ZM29.25 61.875H4.5V50.625H29.25V61.875Z" fill="white"/>
<path d="M6.75 52.875H27V55.125H6.75V52.875Z" fill="white"/>
<path d="M6.75 57.375H18V59.625H6.75V57.375Z" fill="white"/>
<path d="M20.25 57.375H27V59.625H20.25V57.375Z" fill="white"/>
</svg>
