<svg width="28" height="26" viewBox="0 0 28 26" fill="none" xmlns="http://www.w3.org/2000/svg">
<path d="M12.9568 21.5017C17.7244 21.5017 21.5894 17.6522 21.5894 12.9037C21.5894 8.15512 17.7244 4.30566 12.9568 4.30566C8.18916 4.30566 4.32422 8.15512 4.32422 12.9037C4.32422 17.6522 8.18916 21.5017 12.9568 21.5017Z" fill="#005DB5" fill-opacity="0.08"/>
<path fill-rule="evenodd" clip-rule="evenodd" d="M12.8344 25.804C8.79624 25.804 4.98663 23.8916 2.57134 20.6437C1.37315 19.0358 0.564084 17.174 0.207244 15.2034C-0.149596 13.2329 -0.0445635 11.2068 0.51415 9.28337C1.06851 7.36433 2.06436 5.60042 3.42266 4.13164C4.78096 2.66286 6.46431 1.52965 8.33909 0.821962C10.205 0.117679 12.2111 -0.13939 14.1952 0.0715408C16.1793 0.282472 18.0857 0.955482 19.7603 2.03615C19.8974 2.11963 19.9889 2.25623 20.0346 2.41559C20.0525 2.49237 20.0548 2.57195 20.0415 2.64964C20.0281 2.72733 19.9992 2.80158 19.9567 2.86803C19.9141 2.93448 19.8586 2.99178 19.7935 3.03658C19.7284 3.08139 19.6549 3.11278 19.5774 3.12893C19.4251 3.15928 19.2574 3.12893 19.1203 3.03027C17.6788 2.10029 16.0473 1.50197 14.3444 1.27881C12.6416 1.05565 10.9102 1.21327 9.27625 1.74019C7.63603 2.27427 6.13459 3.16278 4.87933 4.34217C3.62407 5.52156 2.64602 6.96268 2.01514 8.56244C1.37974 10.1694 1.10506 11.8954 1.21035 13.6192C1.31565 15.3431 1.79838 17.0232 2.62467 18.5416C3.43523 20.0562 4.57514 21.3714 5.96118 22.3912C7.34721 23.411 8.9444 24.1096 10.6361 24.4361C12.3279 24.7627 14.0715 24.7088 15.7397 24.2785C17.4078 23.8482 18.9585 23.0523 20.2784 21.9489C21.6013 20.8395 22.6636 19.4544 23.3903 17.8914C24.117 16.3284 24.4904 14.6256 24.4842 12.9032V11.7269C24.4692 11.5722 24.516 11.4178 24.6144 11.2971C24.7127 11.1764 24.8548 11.0991 25.0099 11.0819C25.3299 11.0515 25.6195 11.2868 25.65 11.6131V12.9032C25.65 16.3181 24.3014 19.604 21.8937 22.0248C20.7093 23.2198 19.2989 24.1691 17.7439 24.8177C16.189 25.4664 14.5203 25.8016 12.8344 25.804Z" fill="#41C575"/>
<path fill-rule="evenodd" clip-rule="evenodd" d="M14.5866 15.544C14.4342 15.544 14.2818 15.4757 14.1752 15.3694L8.93315 10.0877C8.70457 9.86001 8.70457 9.48058 8.93315 9.25292C9.16173 9.02526 9.52745 9.02526 9.75603 9.25292L14.5866 14.0793L27.0059 1.64145C27.2269 1.41379 27.6002 1.41379 27.8288 1.64145C28.0574 1.86911 28.0574 2.24855 27.8288 2.47621L15.0057 15.377C14.9506 15.4314 14.8851 15.4741 14.8131 15.5028C14.7412 15.5315 14.6641 15.5455 14.5866 15.544Z" fill="#41C575"/>
</svg>
