<svg width="57" height="57" viewBox="0 0 57 57" fill="none" xmlns="http://www.w3.org/2000/svg">
<path d="M28.4999 0C16.8893 0 7.44385 9.4455 7.44385 21.0561C7.44385 24.8784 9.15806 28.9892 9.2299 29.1626C9.78355 30.4768 10.876 32.518 11.6637 33.7145L26.1008 55.5892C26.6916 56.486 27.566 57 28.4999 57C29.4338 57 30.3083 56.486 30.8991 55.5905L45.3373 33.7145C46.1263 32.518 47.2175 30.4768 47.7712 29.1626C47.843 28.9905 49.556 24.8796 49.556 21.0561C49.556 9.4455 40.1105 0 28.4999 0ZM45.4872 28.2015C44.993 29.3794 43.9761 31.2782 43.2689 32.3508L28.8306 54.2268C28.5457 54.6591 28.4553 54.6591 28.1704 54.2268L13.7322 32.3508C13.0249 31.2782 12.0081 29.3782 11.5139 28.2003C11.4928 28.1495 9.92103 24.3656 9.92103 21.0561C9.92103 10.8117 18.2555 2.47718 28.4999 2.47718C38.7443 2.47718 47.0788 10.8117 47.0788 21.0561C47.0788 24.3705 45.5033 28.1643 45.4872 28.2015Z" fill="#41C575"/>
<path d="M28.4999 9.91016C22.3527 9.91016 17.3525 14.9116 17.3525 21.0575C17.3525 27.2034 22.3527 32.2048 28.4999 32.2048C34.647 32.2048 39.6472 27.2034 39.6472 21.0575C39.6472 14.9116 34.647 9.91016 28.4999 9.91016ZM28.4999 29.7276C23.7201 29.7276 19.8297 25.8384 19.8297 21.0575C19.8297 16.2765 23.7201 12.3873 28.4999 12.3873C33.2796 12.3873 37.17 16.2765 37.17 21.0575C37.17 25.8384 33.2796 29.7276 28.4999 29.7276Z" fill="#41C575"/>
</svg>
