<svg width="59" height="59" viewBox="0 0 59 59" fill="none" xmlns="http://www.w3.org/2000/svg">
<path d="M57.6866 49.5723V24.3439C58.015 20.5876 53.6293 17.4744 51.3913 15.0632C51.3598 15.0396 51.3264 15.016 51.291 14.9964L49.521 13.2264V6.24469C49.517 3.06656 46.9368 0.490222 43.7586 0.492189H15.1908C12.0147 0.496122 9.4403 3.06852 9.43637 6.24469V13.2323L7.66637 15.0023C7.63293 15.0219 7.5995 15.0436 7.56803 15.0672L3.3692 19.2542C2.0122 20.5994 1.25306 22.4343 1.25896 24.3439V49.5723C1.26683 50.239 1.41236 50.8861 1.25896 51.537C1.23143 55.3465 4.44497 58.5148 8.24063 58.5089H50.7147C55.7002 58.3987 58.1546 54.1684 57.6866 49.5723ZM49.5131 17.3878L53.4956 21.3408C54.296 22.1354 54.7444 23.217 54.7405 24.3439V25.9605L49.5131 28.4877V17.3878ZM12.3864 6.24469C12.3883 4.69692 13.6431 3.44416 15.1908 3.44219H43.7586C45.3064 3.44416 46.5611 4.69692 46.5631 6.24469V29.9194L31.6164 37.143C30.2634 37.8058 28.6802 37.8058 27.3271 37.143L12.3805 29.9194L12.3864 6.24469ZM4.20897 24.338C4.20503 23.2111 4.65343 22.1295 5.45387 21.3349L9.43637 17.3819V28.4877L4.20897 25.9605V24.338ZM54.7425 49.5723C54.6933 53.248 53.4209 55.4605 50.7285 55.5589H8.23473C7.90826 55.553 7.57787 55.5254 7.2691 55.4251C5.3457 54.9079 4.22076 52.8075 4.22076 49.5723V29.2429L26.0508 39.798C28.2161 40.858 30.7472 40.858 32.9125 39.798L54.7425 29.2429V49.5723Z" fill="white"/>
<path d="M42.1027 19.2074C42.1027 18.3932 41.4419 17.7324 40.6277 17.7324H18.3218C17.5076 17.7324 16.8468 18.3932 16.8468 19.2074C16.8468 20.0216 17.5076 20.6824 18.3218 20.6824H40.6277C41.4419 20.6824 42.1027 20.0216 42.1027 19.2074Z" fill="white"/>
<path d="M37.5125 26.8285C37.5125 26.0143 36.8517 25.3535 36.0375 25.3535H22.914C22.0998 25.3535 21.439 26.0143 21.439 26.8285C21.439 27.6427 22.0998 28.3035 22.914 28.3035H36.0375C36.8517 28.3035 37.5125 27.6427 37.5125 26.8285Z" fill="white"/>
<path d="M22.9139 13.0613C23.0594 13.0594 36.0925 13.0633 36.0375 13.0613C37.9628 13.0535 37.9687 10.1192 36.0375 10.1113H22.9139C20.9885 10.1192 20.9807 13.0535 22.9139 13.0613Z" fill="white"/>
</svg>
