<svg width="72" height="72" viewBox="0 0 72 72" fill="none" xmlns="http://www.w3.org/2000/svg">
<g clip-path="url(#clip0_472_274)">
<path d="M51.0805 26.5397C51.0762 26.534 51.0719 26.5283 51.0676 26.5229L37.1745 8.6335C36.9087 8.29136 36.5002 8.09083 36.0672 8.08984C36.0661 8.08984 36.065 8.08984 36.064 8.08984C35.6321 8.08984 35.224 8.28841 34.9575 8.62844L21.0033 26.424C20.9783 26.4559 20.9548 26.4887 20.9328 26.5223C18.1365 29.9662 16.5986 34.3001 16.5986 38.7459C16.5986 49.4439 25.3021 58.1475 36.0001 58.1475C46.6982 58.1475 55.4016 49.4439 55.4016 38.7459C55.4016 34.3118 53.8676 29.9794 51.0805 26.5397ZM36 55.3352C26.8526 55.3352 19.4107 47.8931 19.4107 38.7457C19.4107 34.8979 20.7579 31.1482 23.2041 28.1872C23.2442 28.1386 23.2806 28.0879 23.3132 28.0354L36.0586 11.7815L48.8139 28.2056C48.8305 28.2288 48.8478 28.2513 48.8659 28.2735C51.2671 31.2197 52.5894 34.9389 52.5894 38.7457C52.5894 47.8931 45.1474 55.3352 36 55.3352Z" fill="#41C575"/>
<path d="M48.6504 39.9759C47.8946 39.7975 47.1373 40.2659 46.9591 41.0217C46.1581 44.4197 43.7472 47.243 40.5106 48.5744C39.7926 48.8699 39.4497 49.6916 39.7453 50.4097C39.9688 50.953 40.493 51.2812 41.0463 51.2812C41.2244 51.2812 41.4057 51.2472 41.5808 51.1752C45.654 49.4996 48.688 45.9452 49.6967 41.6671C49.8746 40.9112 49.4061 40.1541 48.6504 39.9759Z" fill="#41C575"/>
<path d="M48.6551 34.2715C47.8787 34.2715 47.249 34.9011 47.249 35.6776V35.7061C47.249 36.4827 47.8787 37.1123 48.6551 37.1123C49.4315 37.1123 50.0612 36.4827 50.0612 35.7061V35.6776C50.0612 34.9011 49.4315 34.2715 48.6551 34.2715Z" fill="#41C575"/>
<path d="M53.2556 4.63162L51.2904 1.2275C50.9021 0.555035 50.0426 0.32455 49.3696 0.712816C48.795 1.04455 48.5448 1.72011 48.7255 2.32944C42.009 -0.207154 34.6416 -0.686968 27.5963 1.0063C19.1328 3.04059 11.6993 8.06499 6.66578 15.1543C1.68118 22.1748 -0.631124 30.7388 0.155534 39.2687C0.222753 39.9982 0.835598 40.5459 1.55405 40.5458C1.59736 40.5458 1.64096 40.5438 1.68483 40.5397C2.45813 40.4684 3.02724 39.7839 2.95595 39.0104C1.45463 22.7305 12.3302 7.56788 28.2533 3.74076C35.193 2.07294 42.4712 2.69296 48.9944 5.4682L47.931 6.08231C47.2584 6.47072 47.028 7.3305 47.4163 8.00311C47.6769 8.45424 48.1494 8.70624 48.6354 8.70624C48.8739 8.70624 49.1158 8.64549 49.3371 8.51766L52.7411 6.55228C53.4136 6.16416 53.644 5.30409 53.2556 4.63162Z" fill="#41C575"/>
<path d="M71.679 31.2383C71.5756 30.4687 70.8676 29.9281 70.0982 30.0318C69.3286 30.1351 68.7885 30.8428 68.8918 31.6125C71.0674 47.8162 60.8306 63.4172 45.0797 67.9019C38.3355 69.8223 31.3391 69.5839 24.7862 67.2222L26.1159 66.3792C26.7717 65.9632 26.9661 65.0946 26.5504 64.4387C26.1346 63.7828 25.2659 63.5885 24.6098 64.0042L21.2904 66.1091C20.635 66.5247 20.4404 67.3927 20.8553 68.0486L22.9391 71.3407C23.2067 71.7636 23.6625 71.9951 24.1285 71.9951C24.3856 71.9951 24.6459 71.9246 24.8792 71.7768C25.3494 71.4792 25.5812 70.9489 25.523 70.4307C28.9317 71.4746 32.4347 72.0003 35.9527 72.0003C39.2614 72.0003 42.5834 71.5366 45.8499 70.6065C54.2219 68.2229 61.4402 62.8942 66.1752 55.6021C70.8644 48.3808 72.8191 39.7282 71.679 31.2383Z" fill="#41C575"/>
<path d="M19.0122 52.7336C19.0103 52.7312 19.0088 52.729 19.007 52.7266L11.8422 43.3027C11.5769 42.9539 11.1644 42.7487 10.7261 42.7476C10.725 42.7476 10.7238 42.7476 10.7229 42.7476C10.2859 42.7476 9.87362 42.9508 9.60742 43.2975L2.41106 52.6719C2.39433 52.6938 2.3783 52.7159 2.36297 52.7386C0.84042 54.6653 0.00341797 57.0832 0.00341797 59.5621C0.00341797 65.5646 4.79747 70.4479 10.6898 70.4479C16.5822 70.4479 21.3762 65.5644 21.3762 59.5621C21.3762 57.0835 20.537 54.6602 19.0122 52.7336ZM10.6898 67.6357C6.34787 67.6357 2.81564 64.0139 2.81564 59.5621C2.81564 57.6841 3.4583 55.8552 4.62535 54.4126C4.65615 54.3745 4.68483 54.3349 4.71113 54.2943L10.7175 46.4701L16.7442 54.397C16.7582 54.4165 16.7727 54.4358 16.7879 54.4546C17.9333 55.8903 18.5643 57.7042 18.5643 59.5621C18.564 64.0139 15.0318 67.6357 10.6898 67.6357Z" fill="#41C575"/>
<path d="M15.33 58.1562C14.5536 58.1562 13.9239 58.7858 13.9239 59.5624C13.9239 61.4006 12.4732 62.8962 10.6898 62.8962C9.91341 62.8962 9.28369 63.5257 9.28369 64.3023C9.28369 65.0788 9.91341 65.7084 10.6898 65.7084C14.0237 65.7084 16.7361 62.9513 16.7361 59.5624C16.7361 58.7858 16.1065 58.1562 15.33 58.1562Z" fill="#41C575"/>
<path d="M69.6323 9.98594C69.6304 9.98355 69.6289 9.9813 69.6271 9.97891L62.4624 0.555189C62.197 0.206297 61.7844 0.001125 61.3462 0C61.3451 0 61.344 0 61.343 0C60.9061 0 60.4939 0.203204 60.2275 0.549985L53.0312 9.92435C53.0146 9.94586 52.9988 9.96794 52.9835 9.9903C51.4607 11.917 50.6235 14.3352 50.6235 16.8144C50.6235 22.8169 55.4176 27.7002 61.3099 27.7002C67.2024 27.7002 71.9963 22.8167 71.9963 16.8144C71.9963 14.3358 71.1569 11.9125 69.6323 9.98594ZM61.3099 24.888C56.968 24.888 53.4358 21.2662 53.4358 16.8144C53.4358 14.9364 54.0786 13.1077 55.2453 11.6649C55.276 11.6269 55.3044 11.5878 55.3305 11.5474L61.3376 3.72235L67.3643 11.6493C67.3783 11.6688 67.3928 11.6881 67.408 11.7069C68.5534 13.1426 69.1844 14.9565 69.1844 16.8144C69.1841 21.2663 65.6517 24.888 61.3099 24.888Z" fill="#41C575"/>
<path d="M65.9501 15.4087C65.1737 15.4087 64.544 16.0383 64.544 16.8148C64.544 18.6531 63.0933 20.1486 61.3099 20.1486C60.5335 20.1486 59.9038 20.7782 59.9038 21.5547C59.9038 22.3313 60.5335 22.9608 61.3099 22.9608C64.6439 22.9608 67.3562 20.2037 67.3562 16.8148C67.3562 16.0381 66.7267 15.4087 65.9501 15.4087Z" fill="#41C575"/>
</g>
<defs>
<clipPath id="clip0_472_274">
<rect width="72" height="72" fill="white"/>
</clipPath>
</defs>
</svg>
