<svg width="72" height="72" viewBox="0 0 72 72" fill="none" xmlns="http://www.w3.org/2000/svg">
<g clip-path="url(#clip0_280_151)">
<path d="M15.0469 26.7188C15.0469 38.35 24.5094 47.8126 36.1407 47.8126C47.7719 47.8126 57.2344 38.35 57.2344 26.7188C57.2344 15.0875 47.7719 5.625 36.1407 5.625C24.5094 5.625 15.0469 15.0875 15.0469 26.7188ZM36.1407 8.4375C46.2212 8.4375 54.4219 16.6383 54.4219 26.7188C54.4219 36.7993 46.2212 45.0001 36.1407 45.0001C26.0601 45.0001 17.8594 36.7993 17.8594 26.7188C17.8594 16.6383 26.0601 8.4375 36.1407 8.4375Z" fill="#41C575"/>
<path d="M23.1176 24.2119L28.5685 29.5826L27.3144 37.1308C27.2271 37.6565 27.444 38.186 27.8752 38.4991C28.3059 38.8122 28.8767 38.8545 29.3496 38.6095L36.1408 35.0829L42.9315 38.6095C43.4006 38.8529 43.9713 38.815 44.4059 38.4991C44.8371 38.186 45.054 37.6565 44.9667 37.1308L43.7126 29.5826L49.1635 24.2119C49.5431 23.8384 49.6787 23.2825 49.514 22.7755C49.3492 22.269 48.9125 21.8993 48.3857 21.8197L40.821 20.6809L37.3982 13.8359C37.1604 13.3596 36.6731 13.0586 36.1408 13.0586C35.608 13.0586 35.1213 13.3596 34.8829 13.8359L31.4601 20.6809L23.8954 21.8197C23.3687 21.8988 22.9319 22.269 22.7671 22.7755C22.6024 23.2825 22.7386 23.8384 23.1176 24.2119ZM32.601 23.3533C33.0537 23.2852 33.4448 23.0012 33.6497 22.592L36.1408 17.6091L38.632 22.592C38.8369 23.0012 39.228 23.2852 39.6806 23.3533L45.1864 24.1823L41.2187 28.0907C40.893 28.412 40.7436 28.8718 40.8183 29.3233L41.7312 34.817L36.7885 32.2506C36.5858 32.1452 36.3633 32.0924 36.1408 32.0924C35.9184 32.0924 35.6959 32.1452 35.4926 32.2506L30.5499 34.817L31.4628 29.3233C31.5381 28.8718 31.3887 28.412 31.0624 28.0907L27.0952 24.1823L32.601 23.3533Z" fill="#41C575"/>
<path d="M37.5469 1.40625C37.5469 2.18299 36.9174 2.8125 36.1406 2.8125C35.3639 2.8125 34.7344 2.18299 34.7344 1.40625C34.7344 0.629517 35.3639 0 36.1406 0C36.9174 0 37.5469 0.629517 37.5469 1.40625Z" fill="#41C575"/>
<path d="M29.5132 0.828766C17.6836 3.84836 9.42188 14.4947 9.42188 26.7186C9.42188 34.3107 12.614 41.4645 18.2175 46.5309L9.74542 61.4619C9.47296 61.9425 9.50702 62.538 9.83222 62.984C10.1574 63.4306 10.7133 63.6454 11.2544 63.5328L20.8757 61.5349L24.2573 71.0639C24.4408 71.5825 24.9104 71.9456 25.4586 71.9945C26.0069 72.0434 26.5326 71.767 26.8045 71.2886L36.1407 54.875L45.4763 71.2886C45.7279 71.7308 46.1959 71.9994 46.698 71.9994C46.7392 71.9994 46.7809 71.9978 46.8221 71.9945C47.3704 71.9456 47.84 71.5819 48.024 71.0639L51.4051 61.5349L61.0264 63.5328C61.5669 63.6448 62.1234 63.4301 62.4486 62.984C62.7743 62.538 62.8078 61.9425 62.5354 61.4619L54.0632 46.5309C59.6668 41.4645 62.8589 34.3107 62.8589 26.7186C62.8589 14.4947 54.5972 3.84836 42.7682 0.828766C42.0151 0.636505 41.2499 1.09079 41.0576 1.84336C40.8653 2.59592 41.3196 3.36167 42.0722 3.55393C52.6553 6.25547 60.047 15.7812 60.047 26.7186C60.047 40.0302 49.2358 50.6249 36.1407 50.6249C23.0362 50.6249 12.2344 40.0215 12.2344 26.7186C12.2344 15.7812 19.6254 6.25547 30.2086 3.55393C30.9612 3.36167 31.4154 2.59592 31.2237 1.84336C31.0315 1.09079 30.2663 0.636505 29.5132 0.828766ZM25.88 67.2264L23.1164 59.4387C22.8812 58.7762 22.1935 58.389 21.5052 58.5318L13.7252 60.1473L20.4302 48.3304C24.3397 51.1726 28.9688 52.904 33.7824 53.3325L25.88 67.2264ZM50.7756 58.5318C50.0878 58.389 49.3995 58.7762 49.1644 59.4387L46.4014 67.2264L38.4983 53.3325C43.3125 52.904 47.9411 51.1726 51.8511 48.3304L58.5561 60.1473L50.7756 58.5318Z" fill="#41C575"/>
</g>
<defs>
<clipPath id="clip0_280_151">
<rect width="72" height="72" fill="white"/>
</clipPath>
</defs>
</svg>
