<svg width="72" height="72" viewBox="0 0 72 72" fill="none" xmlns="http://www.w3.org/2000/svg">
<g clip-path="url(#clip0_472_262)">
<path d="M67.7812 72H4.21875C1.89239 72 0 70.1076 0 67.7812V4.21875C0 1.89239 1.89239 0 4.21875 0H67.7812C70.1076 0 72 1.89239 72 4.21875V67.7812C72 70.1076 70.1076 72 67.7812 72ZM4.21875 2.8125C3.44311 2.8125 2.8125 3.44311 2.8125 4.21875V67.7812C2.8125 68.5569 3.44311 69.1875 4.21875 69.1875H67.7812C68.5569 69.1875 69.1875 68.5569 69.1875 67.7812V4.21875C69.1875 3.44311 68.5569 2.8125 67.7812 2.8125H4.21875Z" fill="#41C575"/>
<path d="M62.1562 13.5H29.4033C28.7397 9.90417 25.5811 7.17188 21.7969 7.17188C18.0126 7.17188 14.8541 9.90417 14.1905 13.5H9.84375C9.06757 13.5 8.4375 14.1301 8.4375 14.9062C8.4375 15.6824 9.06757 16.3125 9.84375 16.3125H14.1905C14.8541 19.9083 18.0126 22.6406 21.7969 22.6406C25.5811 22.6406 28.7397 19.9083 29.4033 16.3125H62.1562C62.9324 16.3125 63.5625 15.6824 63.5625 14.9062C63.5625 14.1301 62.9324 13.5 62.1562 13.5ZM21.7969 19.8281C19.571 19.8281 17.6863 18.3433 17.0788 16.3125C16.947 15.8665 16.875 15.394 16.875 14.9062C16.875 14.4185 16.947 13.946 17.0788 13.5C17.6863 11.4692 19.571 9.98437 21.7969 9.98437C24.0227 9.98437 25.9074 11.4692 26.515 13.5C26.6468 13.946 26.7187 14.4185 26.7187 14.9062C26.7187 15.394 26.6468 15.8665 26.515 16.3125C25.9074 18.3433 24.0227 19.8281 21.7969 19.8281Z" fill="#41C575"/>
<path d="M62.1562 34.5937H57.8095C57.1459 30.9979 53.9874 28.2656 50.2031 28.2656C46.4189 28.2656 43.2603 30.9979 42.5967 34.5937H15.4687C14.6926 34.5937 14.0625 35.2238 14.0625 36C14.0625 36.7762 14.6926 37.4062 15.4687 37.4062H42.5967C43.2603 41.0021 46.4189 43.7344 50.2031 43.7344C53.9874 43.7344 57.1459 41.0021 57.8095 37.4062H62.1562C62.9324 37.4062 63.5625 36.7762 63.5625 36C63.5625 35.2238 62.9324 34.5937 62.1562 34.5937ZM50.2031 40.9219C47.9773 40.9219 46.0926 39.4371 45.485 37.4062C45.3532 36.9602 45.2812 36.4878 45.2812 36C45.2812 35.5122 45.3532 35.0398 45.485 34.5937C46.0926 32.5629 47.9773 31.0781 50.2031 31.0781C52.429 31.0781 54.3137 32.5629 54.9212 34.5937C55.053 35.0398 55.125 35.5122 55.125 36C55.125 36.4878 55.053 36.9602 54.9212 37.4062C54.3137 39.4371 52.429 40.9219 50.2031 40.9219Z" fill="#41C575"/>
<path d="M62.1562 54.7031H29.4033C28.7397 51.1073 25.5811 48.375 21.7969 48.375C18.0126 48.375 14.8541 51.1073 14.1905 54.7031H9.84375C9.06757 54.7031 8.4375 55.3332 8.4375 56.1094C8.4375 56.8856 9.06757 57.5156 9.84375 57.5156H14.1905C14.8541 61.1114 18.0126 63.8437 21.7969 63.8437C25.5811 63.8437 28.7397 61.1114 29.4033 57.5156H62.1562C62.9324 57.5156 63.5625 56.8856 63.5625 56.1094C63.5625 55.3332 62.9324 54.7031 62.1562 54.7031ZM21.7969 61.0312C19.571 61.0312 17.6863 59.5464 17.0788 57.5156C16.947 57.0696 16.875 56.5972 16.875 56.1094C16.875 55.6216 16.947 55.1492 17.0788 54.7031C17.6863 52.6723 19.571 51.1875 21.7969 51.1875C24.0227 51.1875 25.9074 52.6723 26.515 54.7031C26.6468 55.1492 26.7187 55.6216 26.7187 56.1094C26.7187 56.5972 26.6468 57.0696 26.515 57.5156C25.9074 59.5464 24.0227 61.0312 21.7969 61.0312Z" fill="#41C575"/>
<path d="M9.84625 37.4062C9.06952 37.4062 8.43945 36.7767 8.43945 36C8.43945 35.2233 9.06842 34.5938 9.84515 34.5938H9.84625C10.623 34.5938 11.2525 35.2233 11.2525 36C11.2525 36.7767 10.623 37.4062 9.84625 37.4062Z" fill="#41C575"/>
</g>
<defs>
<clipPath id="clip0_472_262">
<rect width="72" height="72" fill="white"/>
</clipPath>
</defs>
</svg>
