<svg width="72" height="72" viewBox="0 0 72 72" fill="none" xmlns="http://www.w3.org/2000/svg">
<g clip-path="url(#clip0_472_269)">
<path d="M42.3283 40.7734C53.6371 40.7734 62.7161 31.5547 62.7161 20.3884C62.7161 9.12542 53.5751 0.00195312 42.3283 0.00195312C31.1587 0.00195312 21.9419 9.02248 21.9419 20.3884C21.9419 31.7178 31.1129 40.7734 42.3283 40.7734ZM42.3283 37.9609C41.3858 37.9609 40.4438 37.8844 39.5158 37.7357V33.0446C39.5158 31.4938 40.7775 30.2321 42.3283 30.2321H46.5471C49.6487 30.2321 52.1721 27.7087 52.1721 24.6071C52.1721 23.0563 53.4337 21.7946 54.9846 21.7932H59.8444C59.1257 30.8291 51.5444 37.9609 42.3283 37.9609ZM56.882 10.5446H52.8752C51.3244 10.5446 50.0627 9.28292 50.0627 7.73211V4.60672C52.7966 5.9563 55.1643 8.01997 56.882 10.5446ZM47.2502 3.51589V7.73211C47.2502 10.8337 49.7736 13.3571 52.8752 13.3571H58.4366C59.2209 15.1456 59.6925 17.0297 59.8448 18.9821H54.9846C51.8829 18.9821 49.3596 21.5055 49.3596 24.6071C49.3596 26.1579 48.0979 27.4196 46.5471 27.4196H42.3283C39.2267 27.4196 36.7033 29.943 36.7033 33.0446V37.0422C32.9022 35.7642 29.6704 33.2323 27.5106 29.8407C29.5972 29.0175 31.0783 26.9827 31.0783 24.6071C31.0783 23.0563 32.34 21.7946 33.8908 21.7946H38.1096C41.2112 21.7946 43.7346 19.2712 43.7346 16.1696C43.7346 13.068 41.2112 10.5446 38.1096 10.5446C36.5587 10.5446 35.2971 9.28292 35.2971 7.73211C35.2971 6.64845 34.9777 5.5963 34.4049 4.69995C36.85 3.46372 39.5574 2.81445 42.3283 2.81445C44.0069 2.81445 45.6577 3.05239 47.2502 3.51589ZM32.0074 6.16161C32.3159 6.6185 32.4846 7.15991 32.4846 7.73211C32.4846 10.8337 35.0079 13.3571 38.1096 13.3571C39.6604 13.3571 40.9221 14.6188 40.9221 16.1696C40.9221 17.7204 39.6604 18.9821 38.1096 18.9821H33.8908C30.7892 18.9821 28.2658 21.5055 28.2658 24.6071C28.2658 25.908 27.3766 27.0024 26.175 27.3223C25.2318 25.1367 24.7544 22.8089 24.7544 20.3884C24.7544 14.7077 27.4457 9.46911 32.0074 6.16161Z" fill="#41C575"/>
<path d="M24.75 69.3262C25.5267 69.3262 26.1562 68.6966 26.1562 67.9199C26.1562 67.1433 25.5267 66.5137 24.75 66.5137C23.9733 66.5137 23.3438 67.1433 23.3438 67.9199C23.3438 68.6966 23.9733 69.3262 24.75 69.3262Z" fill="#41C575"/>
<path d="M66.3751 37.9668C64.8231 37.9668 63.3253 38.6175 62.2643 39.7522L50.0532 52.545C49.8828 49.5955 47.4292 47.248 44.4376 47.248H34.6923C33.1564 47.248 31.6766 46.6895 30.5249 45.6747C24.3184 40.214 20.0393 42.0026 15.0844 44.0739C11.5252 45.5617 7.49123 47.248 1.40625 47.248C0.629578 47.248 0 47.8776 0 48.6543V66.373C0 67.1497 0.629578 67.7793 1.40625 67.7793C7.39744 67.7793 12.9315 68.0423 18.324 68.583C19.0949 68.6599 19.7861 68.0968 19.8636 67.3241C19.941 66.5514 19.3774 65.862 18.6047 65.7845C13.5428 65.2769 8.36297 65.01 2.8125 64.9716V50.032C8.70019 49.7911 12.815 48.0708 16.1691 46.6687C21.0769 44.6171 23.7804 43.4868 28.6663 47.7855C30.3311 49.2525 32.4713 50.0604 34.6922 50.0604H44.4376C45.9885 50.0604 47.2501 51.3221 47.2501 52.8729C47.2501 54.4237 45.9885 55.6854 44.4376 55.6854H29.4456C28.6689 55.6854 28.0394 56.315 28.0394 57.0917C28.0394 57.8683 28.6689 58.4979 29.4456 58.4979H45.8509C47.4029 58.4979 48.9005 57.8481 49.9611 56.7146C49.9611 56.7146 64.312 41.6801 64.3158 41.6761C64.8548 41.0977 65.5862 40.7792 66.3753 40.7792C67.9261 40.7792 69.1878 42.0408 69.1878 43.5917C69.1878 44.2046 68.9939 44.7871 68.6267 45.2762C54.7317 63.7998 49.632 69.1854 42.6123 69.1854C42.6119 69.1854 42.6104 69.1854 42.6099 69.1854C39.6751 69.1848 36.062 68.4256 31.2384 67.5722C30.4743 67.4374 29.744 67.9472 29.6087 68.7119C29.4735 69.4766 29.9838 70.2063 30.7485 70.3416C35.6947 71.2169 39.3874 71.9972 42.6094 71.9979H42.6123C51.3349 71.9979 57.1811 65.2215 70.8763 46.9643C71.6116 45.9847 72.0003 44.8185 72.0003 43.5917C72.0001 40.4902 69.4768 37.9668 66.3751 37.9668Z" fill="#41C575"/>
</g>
<defs>
<clipPath id="clip0_472_269">
<rect width="72" height="72" fill="white"/>
</clipPath>
</defs>
</svg>
