<svg width="64" height="64" viewBox="0 0 64 64" fill="none" xmlns="http://www.w3.org/2000/svg">
<g clip-path="url(#clip0_160_421)">
<path d="M20.265 23.4136L22.0441 26.8121C22.7642 28.1877 24.5435 28.5938 25.7891 27.6668L28.8665 25.3768L28.9949 29.2107C29.0469 30.7626 30.4736 31.9003 31.9981 31.6057L35.7644 30.8777L34.2165 34.3876C33.59 35.8083 34.3819 37.4524 35.8831 37.8484L39.5922 38.8267L36.675 41.3173C35.4941 42.3254 35.4941 44.1504 36.675 45.1586L39.5924 47.6493L35.8832 48.6276C34.3819 49.0236 33.59 50.6678 34.2166 52.0884L35.7644 55.5983L31.9981 54.8703C30.4736 54.5757 29.0469 55.7135 28.9949 57.2653L28.8665 61.0992L25.7891 58.8092C24.5435 57.8823 22.7642 58.2883 22.0441 59.6639L20.265 63.0624L18.4859 59.6639C17.7657 58.2883 15.9865 57.8822 14.7409 58.8092L11.6635 61.0992L11.5351 57.2653C11.4831 55.7135 10.0564 54.5757 8.53187 54.8703L4.76562 55.5983L6.31337 52.0884C6.93987 50.6677 6.148 49.0236 4.64675 48.6276L0.937622 47.6493L3.855 45.1586C5.03587 44.1504 5.03587 42.3254 3.855 41.3173L0.937747 38.8267L4.64687 37.8484C6.14825 37.4524 6.94012 35.8082 6.3135 34.3876L4.76575 30.8777L8.532 31.6057C10.0565 31.9003 11.4832 30.7626 11.5352 29.2107L11.6636 25.3768L14.741 27.6668C15.9866 28.5937 17.7659 28.1877 18.486 26.8121L20.265 23.4136Z" fill="#FFE07D"/>
<path d="M36.675 41.3172L39.5924 38.8264L35.8833 37.8482C34.3819 37.4522 33.5901 35.8079 34.2166 34.3873L35.7644 30.8774L31.9981 31.6054C31.9401 31.6167 31.8822 31.6251 31.8246 31.6322C32.3539 33.3662 32.6395 35.2064 32.6395 37.1137C32.6395 47.4697 24.2444 55.8648 13.8884 55.8648C12.8534 55.8648 11.8384 55.7796 10.849 55.6183C11.2539 56.0472 11.5136 56.6201 11.5351 57.2652L11.6635 61.0991L14.7409 58.8091C15.9865 57.8822 17.7657 58.2882 18.4859 59.6638L20.2649 63.0623L22.0439 59.6638C22.764 58.2882 24.5432 57.8821 25.7889 58.8091L28.8662 61.0991L28.9946 57.2652C29.0466 55.7133 30.4734 54.5756 31.9979 54.8702L35.7641 55.5982L34.2164 52.0883C33.5899 50.6676 34.3816 49.0233 35.883 48.6274L39.5921 47.6492L36.675 45.1586C35.4941 44.1503 35.4941 42.3254 36.675 41.3172Z" fill="#FFD064"/>
<path d="M20.265 53.3395C25.844 53.3395 30.3666 48.8168 30.3666 43.2379C30.3666 37.6589 25.844 33.1362 20.265 33.1362C14.686 33.1362 10.1634 37.6589 10.1634 43.2379C10.1634 48.8168 14.686 53.3395 20.265 53.3395Z" fill="#EAB14D"/>
<path d="M26.4105 35.2229C26.519 35.816 26.5786 36.4263 26.5786 37.0507C26.5786 42.6297 22.056 47.1523 16.477 47.1523C14.1642 47.1523 12.0344 46.3733 10.3316 45.0657C11.1921 49.7715 15.3106 53.3394 20.2651 53.3394C25.8441 53.3394 30.3667 48.8168 30.3667 43.2378C30.3666 39.9718 28.8151 37.0695 26.4105 35.2229Z" fill="#E7A52E"/>
<path d="M50.183 39.9548C52.9725 39.9548 55.2338 37.6935 55.2338 34.904C55.2338 32.1146 52.9725 29.8533 50.183 29.8533C47.3936 29.8533 45.1323 32.1146 45.1323 34.904C45.1323 37.6935 47.3936 39.9548 50.183 39.9548Z" fill="#EAB14D"/>
<path d="M32.0001 18.9942C34.0922 18.9942 35.7882 17.2982 35.7882 15.2061C35.7882 13.114 34.0922 11.418 32.0001 11.418C29.908 11.418 28.212 13.114 28.212 15.2061C28.212 17.2982 29.908 18.9942 32.0001 18.9942Z" fill="#CBAFEA"/>
<path d="M38.061 4.97825C39.1768 4.97825 40.0814 4.0737 40.0814 2.95788C40.0814 1.84205 39.1768 0.9375 38.061 0.9375C36.9452 0.9375 36.0406 1.84205 36.0406 2.95788C36.0406 4.0737 36.9452 4.97825 38.061 4.97825Z" fill="#86A0AF"/>
<path d="M52.7084 21.6458C58.4268 21.6458 63.0625 17.01 63.0625 11.2916C63.0625 5.5732 58.4268 0.9375 52.7084 0.9375C46.9899 0.9375 42.3542 5.5732 42.3542 11.2916C42.3542 17.01 46.9899 21.6458 52.7084 21.6458Z" fill="#CBE2FF"/>
<path d="M58.7307 2.86841C59.946 4.56528 60.6617 6.64428 60.6617 8.89066C60.6617 14.609 56.0259 19.2448 50.3075 19.2448C48.0612 19.2448 45.9822 18.5292 44.2853 17.3138C46.1638 19.9364 49.2364 21.6457 52.7084 21.6457C58.4268 21.6457 63.0625 17.0099 63.0625 11.2915C63.0625 7.81953 61.3533 4.74691 58.7307 2.86841Z" fill="#BED8FB"/>
<path d="M53.7285 0.9875C53.3929 0.954625 53.0526 0.9375 52.7084 0.9375C46.99 0.9375 42.3542 5.57325 42.3542 11.2916C42.3542 13.393 42.9809 15.3478 44.0565 16.9804L45.9431 15.7056C46.3534 15.4285 46.6261 14.9899 46.6935 14.4994L46.8577 13.303C46.914 12.8936 46.8227 12.4775 46.6004 12.1291L46.0507 11.268C45.6667 10.6664 45.6886 9.89137 46.106 9.3125C46.6156 8.60563 47.5694 8.38412 48.3384 8.79425L48.6401 8.95525C49.0561 9.17712 49.5444 9.22087 49.9932 9.07638L52.5205 8.263C53.2404 8.03125 53.7285 7.3615 53.7285 6.60512V0.9875Z" fill="#B3E59F"/>
<path d="M56.4816 16.3368L54.671 16.6197C53.9053 16.7393 53.2134 16.1472 53.2134 15.372V13.3145C53.2134 12.7227 53.6244 12.2103 54.2021 12.0819L56.7553 11.5145C57.7053 11.3034 58.527 12.2012 58.2328 13.1288L57.4901 15.4708C57.3456 15.9274 56.9549 16.2628 56.4816 16.3368Z" fill="#B3E59F"/>
<path d="M20.2651 32.1987C14.1784 32.1987 9.22638 37.1507 9.22638 43.2375C9.22638 44.9474 9.60663 46.5857 10.3568 48.1071C10.5858 48.5714 11.1475 48.7621 11.6123 48.5334C12.0766 48.3044 12.2675 47.7422 12.0385 47.278C11.4166 46.0169 11.1014 44.6574 11.1014 43.2375C11.1014 38.1846 15.2123 34.0737 20.2651 34.0737C25.318 34.0737 29.4289 38.1846 29.4289 43.2375C29.4289 48.2911 25.318 52.4025 20.2651 52.4025C18.1388 52.4025 16.1446 51.6965 14.4983 50.3607C14.0963 50.0345 13.5059 50.0959 13.1795 50.4981C12.8533 50.9002 12.9148 51.4906 13.3169 51.8169C15.2726 53.4037 17.7403 54.2776 20.2651 54.2776C26.3519 54.2776 31.3039 49.3251 31.3039 43.2376C31.3039 37.1507 26.3519 32.1987 20.2651 32.1987Z" fill="black"/>
<path d="M37.2837 42.0302L40.2011 39.5396C40.4665 39.3131 40.584 38.9581 40.5063 38.618C40.4287 38.2778 40.1687 38.009 39.8315 37.9201L36.1223 36.9418C35.6723 36.8232 35.2985 36.5147 35.0966 36.0955C34.8947 35.6762 34.8866 35.1916 35.0743 34.7657L36.6221 31.2558C36.7628 30.9367 36.7147 30.5657 36.4972 30.293C36.2798 30.0203 35.929 29.8908 35.5863 29.957L31.8201 30.685C31.3633 30.7732 30.8925 30.6575 30.5287 30.3673C30.1648 30.0772 29.9473 29.6441 29.9317 29.179L29.8033 25.3451C29.7917 24.9965 29.5873 24.6832 29.2731 24.5318C28.9588 24.3805 28.5865 24.4163 28.3067 24.6243L25.2293 26.9143C24.8561 27.1922 24.3818 27.292 23.9281 27.1886C23.4745 27.085 23.0903 26.7892 22.8746 26.3768L21.0956 22.9785C20.9338 22.6695 20.6138 22.4758 20.265 22.4758C19.9161 22.4758 19.5961 22.6695 19.4343 22.9785L17.6553 26.3768C17.4395 26.7891 17.0555 27.085 16.6018 27.1886C16.1481 27.2918 15.6738 27.1921 15.3006 26.9143L12.2231 24.6243C11.9432 24.4161 11.571 24.3806 11.2567 24.5318C10.9423 24.6832 10.7382 24.9965 10.7265 25.3451L10.5981 29.179C10.5825 29.6441 10.365 30.0772 10.0011 30.3673C9.63722 30.6576 9.1666 30.7735 8.70972 30.685L4.94347 29.957C4.60085 29.8907 4.2501 30.0202 4.0326 30.293C3.8151 30.5657 3.76697 30.9366 3.90772 31.2558L5.4556 34.7656C5.64335 35.1915 5.63522 35.6761 5.43335 36.0953C5.23147 36.5145 4.8576 36.8231 4.4076 36.9417L0.69847 37.92C0.36122 38.0088 0.10122 38.2777 0.0235953 38.6178C-0.0540297 38.958 0.0635953 39.313 0.328845 39.5395L3.24622 42.0301C3.6001 42.3322 3.8031 42.7723 3.8031 43.2378C3.8031 43.7032 3.6001 44.1433 3.24622 44.4455L0.32897 46.9362C0.0635953 47.1627 -0.0539047 47.5177 0.0237203 47.8578C0.101345 48.198 0.361345 48.4668 0.698595 48.5557L4.40772 49.534C4.85772 49.6527 5.23147 49.9611 5.43347 50.3803C5.63535 50.7996 5.64347 51.2842 5.45572 51.7101L3.90785 55.22C3.7671 55.5391 3.81522 55.91 4.03272 56.1828C4.25022 56.4556 4.60135 56.5853 4.9436 56.5188L8.70985 55.7908C9.16647 55.7025 9.63735 55.8183 10.0012 56.1085C10.3651 56.3986 10.5826 56.8317 10.5982 57.2968L10.7266 61.1306C10.7382 61.4792 10.9425 61.7925 11.2567 61.9438C11.5712 62.0951 11.9433 62.0596 12.2232 61.8513L15.3007 59.5613C15.674 59.2836 16.1485 59.1836 16.602 59.2871C17.0556 59.3906 17.4396 59.6865 17.6555 60.0987L19.4345 63.4972C19.5962 63.8062 19.9162 63.9998 20.2651 63.9998C20.614 63.9998 20.934 63.8062 21.0957 63.4972L22.8747 60.0987C23.0906 59.6865 23.4745 59.3906 23.9282 59.2871C24.3818 59.1833 24.8562 59.2835 25.2296 59.5613L28.307 61.8513C28.5868 62.0596 28.9592 62.0952 29.2733 61.9438C29.5877 61.7925 29.7918 61.4792 29.8036 61.1306L29.932 57.2968C29.9476 56.8317 30.1651 56.3986 30.529 56.1085C30.8928 55.8183 31.3636 55.7026 31.8203 55.7908L35.5866 56.5188C35.9288 56.5852 36.28 56.4556 36.4975 56.1828C36.715 55.9101 36.763 55.5392 36.6223 55.22L35.0746 51.7101C34.8868 51.2843 34.8948 50.7997 35.0968 50.3805C35.2987 49.9612 35.6726 49.6527 36.1226 49.534L39.8317 48.5557C40.169 48.4668 40.429 48.198 40.5066 47.8578C40.5842 47.5177 40.4666 47.1627 40.2013 46.9362L37.284 44.4455C36.9301 44.1433 36.7271 43.7032 36.7271 43.2378C36.7268 42.7726 36.9297 42.3323 37.2837 42.0302ZM36.0662 45.8716L37.6216 47.1995L35.6441 47.721C34.6628 47.9797 33.8475 48.6526 33.4072 49.567C32.967 50.4812 32.9492 51.5382 33.3587 52.4667L34.184 54.338L32.176 53.9498C31.1798 53.7572 30.1531 54.0097 29.3597 54.6423C28.5662 55.2751 28.0917 56.2197 28.0578 57.2338L27.9893 59.2778L26.3487 58.057C25.5346 57.4512 24.5003 57.2335 23.5108 57.459C22.5215 57.6848 21.6841 58.33 21.2135 59.229L20.265 61.0408L19.3165 59.229C18.8457 58.33 18.0085 57.6848 17.0191 57.459C16.7632 57.4006 16.5043 57.3718 16.2471 57.3718C15.5096 57.3718 14.7848 57.6078 14.1813 58.0568L12.5407 59.2778L12.4722 57.2338C12.4383 56.2196 11.9638 55.2751 11.1703 54.6423C10.377 54.0097 9.35035 53.7571 8.3541 53.9498L6.34622 54.338L7.17147 52.4667C7.58097 51.5382 7.56322 50.4812 7.12297 49.567C6.68272 48.6527 5.86735 47.9798 4.8861 47.7211L2.9086 47.1996L4.46397 45.8717C5.23572 45.2128 5.67835 44.253 5.67835 43.2381C5.67835 42.2232 5.23572 41.2633 4.46397 40.6043L2.9086 39.2765L4.8861 38.755C5.86735 38.4962 6.6826 37.8235 7.12285 36.9091C7.56322 35.9948 7.58097 34.9378 7.17147 34.0092L6.34622 32.138L8.3541 32.5261C9.3506 32.7188 10.377 32.4662 11.1703 31.8335C11.9638 31.2007 12.4383 30.2561 12.4722 29.242L12.5407 27.198L14.1813 28.419C14.9955 29.0247 16.0298 29.2426 17.0192 29.017C18.0086 28.7911 18.846 28.146 19.3166 27.2468L20.2651 25.435L21.2136 27.2468C21.6843 28.1458 22.5216 28.7911 23.5111 29.0168C24.5005 29.2427 25.5347 29.0247 26.349 28.419L27.9896 27.198L28.0581 29.242C28.092 30.2562 28.5665 31.2007 29.36 31.8335C30.1533 32.4662 31.1798 32.7186 32.1762 32.5261L34.1842 32.138L33.359 34.0092C32.9495 34.9378 32.9672 35.9947 33.4075 36.9091C33.8477 37.8235 34.6631 38.4962 35.6443 38.755L37.6218 39.2765L36.0665 40.6043C35.2946 41.2632 34.852 42.2232 34.852 43.2381C34.852 44.253 35.2945 45.2127 36.0662 45.8716Z" fill="black"/>
<path d="M50.1825 28.916C48.4132 28.916 46.7441 29.6921 45.6032 31.0455C45.2695 31.4414 45.3199 32.0328 45.7157 32.3665C46.1116 32.7003 46.703 32.6499 47.0367 32.254C47.8206 31.3243 48.9671 30.791 50.1824 30.791C52.4506 30.791 54.2961 32.6359 54.2961 34.9035C54.2961 37.1718 52.4506 39.0173 50.1824 39.0173C48.1739 39.0173 46.4696 37.5831 46.1301 35.6073C46.0425 35.097 45.5584 34.7546 45.0474 34.842C44.537 34.9296 44.1945 35.4145 44.2821 35.9248C44.7767 38.8031 47.2581 40.8923 50.1824 40.8923C53.4846 40.8923 56.1711 38.2058 56.1711 34.9035C56.1712 31.602 53.4847 28.916 50.1825 28.916Z" fill="black"/>
<path d="M27.2745 15.2061C27.2745 17.8118 29.3944 19.9317 32.0001 19.9317C34.6059 19.9317 36.7257 17.8118 36.7257 15.2061C36.7257 12.6003 34.6059 10.4805 32.0001 10.4805C29.3944 10.4805 27.2745 12.6003 27.2745 15.2061ZM32.0001 12.3555C33.572 12.3555 34.8507 13.6342 34.8507 15.2061C34.8507 16.778 33.572 18.0567 32.0001 18.0567C30.4282 18.0567 29.1495 16.778 29.1495 15.2061C29.1495 13.6342 30.4282 12.3555 32.0001 12.3555Z" fill="black"/>
<path d="M38.061 5.91563C39.6919 5.91563 41.0189 4.58875 41.0189 2.95775C41.0189 1.32675 39.692 0 38.061 0C36.4301 0 35.1031 1.32687 35.1031 2.95788C35.1031 4.58887 36.4301 5.91563 38.061 5.91563ZM38.061 1.875C38.658 1.875 39.1439 2.36075 39.1439 2.95788C39.1439 3.555 38.6581 4.04075 38.061 4.04075C37.464 4.04075 36.9781 3.555 36.9781 2.95788C36.9781 2.36075 37.464 1.875 38.061 1.875Z" fill="black"/>
<path d="M52.7088 22.5836C58.9348 22.5836 64 17.5179 64 11.2911C64 9.10863 63.3753 6.98962 62.1934 5.163C61.9121 4.72825 61.3316 4.60413 60.8969 4.88525C60.4621 5.1665 60.3379 5.747 60.6191 6.18175C61.6044 7.70425 62.125 9.471 62.125 11.2913C62.125 16.484 57.9009 20.7087 52.7088 20.7087C49.7568 20.7087 47.1189 19.3424 45.3909 17.2101L46.4676 16.4827C47.0979 16.0571 47.5186 15.3807 47.622 14.627L47.7861 13.4314C47.8731 12.8022 47.7326 12.1608 47.3905 11.6248L46.8409 10.764C46.6624 10.4844 46.6724 10.1299 46.866 9.861C47.0169 9.65188 47.2614 9.52687 47.52 9.52687C47.6525 9.52687 47.779 9.55862 47.8979 9.62212L48.1991 9.78238C48.8355 10.1217 49.5941 10.1895 50.2805 9.96887L52.8078 9.15537C53.9191 8.79775 54.6659 7.77287 54.6659 6.60525V2.07987C55.7825 2.316 56.8488 2.75338 57.8153 3.37937C58.2499 3.66088 58.8304 3.53675 59.1118 3.10212C59.3933 2.6675 59.2691 2.087 58.8345 1.80562C57.0108 0.624375 54.8924 0 52.7088 0C46.4821 0 41.4163 5.06525 41.4163 11.2913C41.4164 17.5179 46.4821 22.5836 52.7088 22.5836ZM52.7088 1.875C52.7363 1.875 52.7635 1.87625 52.791 1.8765V6.60525C52.791 6.95563 52.567 7.26312 52.2335 7.3705L49.7064 8.184C49.5005 8.25037 49.2726 8.22975 49.0805 8.12737L48.7801 7.96763C48.3936 7.76113 47.9579 7.65188 47.5201 7.65188C46.6608 7.65188 45.8478 8.06775 45.3453 8.7645C44.6995 9.6605 44.6661 10.8412 45.2606 11.7727L45.8104 12.6336C45.9129 12.7943 45.955 12.9862 45.9289 13.1753L45.7646 14.3719C45.7335 14.5981 45.6074 14.8011 45.4183 14.9288L44.3613 15.6429C43.6794 14.3403 43.2914 12.8606 43.2914 11.2913C43.2914 6.09913 47.516 1.875 52.7088 1.875Z" fill="black"/>
<path d="M56.552 10.5995L53.9988 11.1668C52.9844 11.3923 52.2759 12.2756 52.2759 13.3147V15.3722C52.2759 16.0158 52.5564 16.6251 53.0454 17.0437C53.4471 17.3876 53.9541 17.5725 54.475 17.5725C54.5881 17.5725 54.702 17.5637 54.8156 17.546L56.6263 17.2631C57.4565 17.1333 58.1299 16.5551 58.3839 15.7542L59.1264 13.4123C59.3671 12.6532 59.1899 11.8492 58.6521 11.2617C58.1146 10.6743 57.3293 10.4265 56.552 10.5995ZM57.3393 12.8456L56.5968 15.1876C56.5593 15.306 56.4598 15.3913 56.337 15.4106L54.5264 15.6935C54.398 15.714 54.3073 15.6556 54.2648 15.6192C54.2223 15.5828 54.151 15.5023 54.151 15.3721V13.3146C54.151 13.161 54.2558 13.0305 54.4056 12.9971L56.9588 12.4297C56.9859 12.4237 57.0113 12.4211 57.0351 12.4211C57.1519 12.4211 57.2299 12.4847 57.2693 12.5277C57.3166 12.5795 57.3888 12.6897 57.3393 12.8456Z" fill="black"/>
<path d="M23.7925 8.81993C24.3102 8.81993 24.73 8.40018 24.73 7.88243V7.55718H25.0552C25.573 7.55718 25.9927 7.13743 25.9927 6.61968C25.9927 6.10193 25.573 5.68218 25.0552 5.68218H24.73V5.35693C24.73 4.83918 24.3102 4.41943 23.7925 4.41943C23.2747 4.41943 22.855 4.83918 22.855 5.35693V5.68218H22.5297C22.012 5.68218 21.5922 6.10193 21.5922 6.61968C21.5922 7.13743 22.012 7.55718 22.5297 7.55718H22.855V7.88243C22.855 8.40018 23.2747 8.81993 23.7925 8.81993Z" fill="black"/>
<path d="M57.6865 49.5514V49.2261H58.0118C58.5295 49.2261 58.9493 48.8064 58.9493 48.2886C58.9493 47.7709 58.5295 47.3511 58.0118 47.3511H57.6865V47.0259C57.6865 46.5081 57.2668 46.0884 56.749 46.0884C56.2313 46.0884 55.8115 46.5081 55.8115 47.0259V47.3511H55.4863C54.9685 47.3511 54.5488 47.7709 54.5488 48.2886C54.5488 48.8064 54.9685 49.2261 55.4863 49.2261H55.8115V49.5514C55.8115 50.0691 56.2313 50.4889 56.749 50.4889C57.2668 50.4889 57.6865 50.0693 57.6865 49.5514Z" fill="black"/>
<path d="M50.9481 44.1958C50.4329 44.1646 49.9869 44.5578 49.9554 45.0746C49.5632 51.5152 47.1477 57.5257 42.97 62.4561C42.6353 62.8512 42.6842 63.4427 43.0793 63.7775C43.2555 63.9267 43.4707 63.9997 43.6849 63.9997C43.9509 63.9997 44.2153 63.8871 44.4006 63.6683C48.842 58.4266 51.41 52.0365 51.827 45.1887C51.8584 44.6718 51.465 44.2273 50.9481 44.1958Z" fill="black"/>
<path d="M46.1135 27.6342C46.2868 27.6342 46.4621 27.5862 46.6188 27.4857C47.0545 27.2062 47.1813 26.6263 46.9019 26.1904C44.915 23.0922 42.4256 20.3835 39.5028 18.1399C39.0921 17.8247 38.5035 17.902 38.1883 18.3127C37.873 18.7234 37.9504 19.3119 38.361 19.6272C41.1114 21.7384 43.454 24.2872 45.3235 27.2025C45.5025 27.4818 45.8048 27.6342 46.1135 27.6342Z" fill="black"/>
<path d="M0.938238 20.3428C1.14586 20.3428 1.35486 20.2742 1.52861 20.1331C6.80311 15.8504 13.4571 13.4919 20.265 13.4919C21.2429 13.4919 22.2291 13.5399 23.1962 13.6344C23.5806 13.6721 23.9694 13.7177 24.3519 13.7702C24.866 13.8416 25.3379 13.4819 25.4082 12.9691C25.4787 12.4561 25.12 11.9832 24.6071 11.9127C24.2006 11.8568 23.7872 11.8083 23.3787 11.7683C22.3512 11.6678 21.3036 11.6169 20.265 11.6169C13.028 11.6169 5.95424 14.1244 0.346738 18.6776C-0.0552621 19.0039 -0.116512 19.5943 0.209863 19.9963C0.395238 20.2244 0.665488 20.3428 0.938238 20.3428Z" fill="black"/>
<path d="M0.938453 6.53875C1.08283 6.53875 1.22945 6.50525 1.36658 6.43463C7.24658 3.40913 13.605 1.875 20.265 1.875C23.6462 1.875 27.0087 2.28387 30.2591 3.09025C30.7618 3.21487 31.2701 2.90863 31.3947 2.40613C31.5195 1.90363 31.2131 1.39512 30.7106 1.2705C27.3127 0.427375 23.7982 0 20.265 0C13.3036 0 6.65658 1.604 0.508703 4.7675C0.0483279 5.00437 -0.132797 5.56962 0.104078 6.03013C0.270328 6.35325 0.598328 6.53875 0.938453 6.53875Z" fill="black"/>
<path d="M59.1725 26.5845C58.6921 26.7777 58.4595 27.3238 58.6528 27.8041C60.6269 32.7096 61.6279 37.9024 61.6279 43.2379C61.6279 49.994 59.9633 56.6971 56.814 62.6222C56.571 63.0795 56.7446 63.6471 57.2019 63.8901C57.3421 63.9646 57.4926 64 57.6411 64C57.9768 64 58.3013 63.8194 58.4698 63.5023C61.7625 57.3071 63.503 50.2998 63.503 43.238C63.503 37.6615 62.4564 32.2333 60.3923 27.1043C60.199 26.6238 59.6529 26.391 59.1725 26.5845Z" fill="black"/>
</g>
<defs>
<clipPath id="clip0_160_421">
<rect width="64" height="64" fill="white"/>
</clipPath>
</defs>
</svg>
