<svg width="49" height="49" viewBox="0 0 49 49" fill="none" xmlns="http://www.w3.org/2000/svg">
<mask id="mask0_141_57" style="mask-type:luminance" maskUnits="userSpaceOnUse" x="2" y="0" width="44" height="24">
<path d="M9.76913 6.31713C9.02254 6.7519 8.23912 7.21208 7.43497 7.72736C6.659 8.22473 6.41166 8.72799 7.07166 9.4373L16.673 19.0387C17.6924 20.0581 18.8348 21.0338 19.9581 21.994C21.2305 23.0815 21.3992 23.4399 20.4396 21.7779L11.8784 6.94956C11.2313 5.82848 10.9331 5.63945 9.76913 6.31713ZM15.6389 2.89988C14.8896 3.3149 14.0917 3.77282 13.2361 4.27344C12.0985 4.93924 12.1538 5.32739 12.7916 6.43173L22.1269 22.6008C22.6973 23.5888 22.8337 23.9898 22.4698 22.6314L17.4357 3.84395C17.0792 2.51376 17.0903 2.09629 15.6389 2.89988ZM22.1209 0.123736C21.1558 0.336854 20.1458 0.68927 19.0337 1.18023C17.8141 1.71861 18.1204 2.34288 18.4253 3.48097L23.4665 22.2949C23.7971 23.5289 23.7658 23.7086 23.7658 22.3112V1.6035C23.7658 0.114779 23.6783 -0.219959 22.1209 0.123736ZM38.812 6.31713C39.5586 6.7519 40.342 7.21208 41.1461 7.72736C41.9221 8.22473 42.1694 8.72799 41.5094 9.4373L31.9081 19.0387C30.8887 20.0581 29.7463 21.0338 28.623 21.994C27.3506 23.0815 27.182 23.4399 28.1415 21.7779L36.7028 6.94951C37.3499 5.82848 37.648 5.63945 38.812 6.31713ZM32.9422 2.89988C33.6916 3.3149 34.4894 3.77282 35.345 4.27344C36.4827 4.93924 36.4273 5.32739 35.7895 6.43173L26.4543 22.6008C25.8838 23.5888 25.7474 23.9898 26.1113 22.6314L31.1454 3.84395C31.5019 2.51376 31.4909 2.09629 32.9422 2.89988ZM26.4602 0.123736C27.4252 0.336854 28.4353 0.68927 29.5474 1.18023C30.767 1.71861 30.4608 2.34288 30.1558 3.48097L25.1146 22.2949C24.7841 23.5289 24.8153 23.7086 24.8153 22.3112V1.6035C24.8153 0.114779 24.9028 -0.219959 26.4602 0.123736ZM45.2176 13.2864C40.982 15.6174 36.7556 17.9723 32.5231 20.3113C31.3539 20.9576 31.5632 20.868 32.4017 20.0293L42.4286 10.0025C43.5331 8.89793 44.4088 10.0786 45.0887 11.0999C45.6985 12.0154 46.2375 12.6944 45.2176 13.2864ZM3.36352 13.2864C7.59906 15.6174 11.8255 17.9723 16.058 20.3113C17.2272 20.9576 17.018 20.868 16.1794 20.0293L6.15254 10.0025C5.04796 8.89793 4.17229 10.0786 3.49244 11.0999C2.88264 12.0154 2.34365 12.6944 3.36352 13.2864Z" fill="white"/>
</mask>
<g mask="url(#mask0_141_57)">
<path d="M46.2375 -0.220581H2.34368V23.9891H46.2375V-0.220581Z" fill="url(#paint0_linear_141_57)"/>
</g>
<mask id="mask1_141_57" style="mask-type:luminance" maskUnits="userSpaceOnUse" x="0" y="15" width="24" height="34">
<path d="M10.6807 31.2695C10.9683 31.3001 11.1867 31.2189 11.3478 30.9593V25.7792C11.176 25.2988 10.9325 24.9267 10.5793 24.5775L5.17714 21.5723C4.88944 21.5416 4.67113 21.6229 4.50996 21.8826V27.0624C4.68179 27.5428 4.92522 27.9151 5.27839 28.2643L10.6807 31.2695ZM18.1004 35.397C18.3881 35.4275 18.6063 35.3462 18.7675 35.0866V29.9069C18.5957 29.4264 18.3522 29.0541 17.999 28.7048L12.5969 25.6997C12.3091 25.669 12.0909 25.7503 11.9297 26.0099V31.1899C12.1014 31.6702 12.3449 32.0425 12.698 32.3917L18.1004 35.397ZM10.6808 38.5154C10.9684 38.5459 11.1866 38.4647 11.3478 38.2051V33.0251C11.176 32.5448 10.9326 32.1725 10.5795 31.8233L5.17714 28.8181C4.88944 28.7875 4.67123 28.8686 4.50996 29.1283V34.308C4.68174 34.7885 4.92512 35.1607 5.27825 35.51L10.6808 38.5154ZM18.1004 42.6427C18.388 42.6734 18.6063 42.5921 18.7675 42.3323V37.1526C18.5957 36.6722 18.3522 36.3 17.9992 35.9508L12.5968 32.9455C12.3091 32.9149 12.0908 32.9962 11.9297 33.2558V38.4357C12.1015 38.9161 12.3449 39.2884 12.6981 39.6376L18.1004 42.6427ZM0.060311 25.3616C0.104999 23.4998 0.16072 21.335 0.179199 18.792L3.15984 20.4501C3.51291 20.7994 3.75635 21.1716 3.92817 21.6521V26.8318C3.76705 27.0914 3.54879 27.1727 3.26114 27.1422L0.060311 25.3616ZM0.182168 32.6751C-0.0437252 30.981 -0.0208607 28.8522 0.0460776 25.9637L3.15975 27.6958C3.51296 28.0451 3.75639 28.4173 3.92822 28.8978V34.0776C3.76709 34.3373 3.54884 34.4185 3.26119 34.3879L0.182168 32.6751ZM3.92822 38.7279C1.72637 37.0989 0.718618 35.6291 0.288799 33.3446L3.15988 34.9417C3.51296 35.2909 3.75639 35.6632 3.92822 36.1435V38.7279ZM11.3478 43.181C8.36245 41.5186 6.1476 40.2748 4.50996 39.144V36.3741C4.67118 36.1144 4.88944 36.0331 5.17704 36.0638L10.5793 39.069C10.9325 39.4182 11.176 39.7903 11.3478 40.2707V43.181ZM18.7675 47.3656C16.1418 45.8513 13.8799 44.5907 11.9297 43.505V40.5015C12.0908 40.2419 12.309 40.1606 12.5967 40.1912L17.9991 43.1965C18.3522 43.5458 18.5956 43.918 18.7674 44.3985V47.3656H18.7675ZM23.1691 46.0724L23.1683 46.4089C23.1683 48.3392 21.589 49.0016 19.6586 47.8808L19.3493 47.702V44.6289C19.5105 44.3693 19.7288 44.288 20.0164 44.3186L23.1691 46.0724ZM23.2761 38.8861C23.2308 40.7633 23.1808 42.9314 23.1704 45.4631L20.1176 43.7648C19.7645 43.4156 19.5211 43.0433 19.3493 42.563V37.3832C19.5105 37.1234 19.7288 37.0421 20.0164 37.0728L23.2761 38.8861ZM23.257 31.6298C23.4022 33.3394 23.3585 35.4681 23.2906 38.2841L20.1175 36.519C19.7644 36.1697 19.521 35.7975 19.3492 35.3171V30.1374C19.5106 29.8776 19.7287 29.7964 20.0164 29.8271L23.257 31.6298ZM19.3493 24.7277C21.8583 26.5659 22.8465 28.1869 23.1907 30.9828L20.1177 29.2733C19.7645 28.9241 19.5211 28.5519 19.3492 28.0714V24.7277H19.3493ZM11.9297 20.288C14.9076 21.9461 17.1238 23.1882 18.7675 24.315V27.8409C18.6064 28.1006 18.3881 28.1818 18.1004 28.1512L12.6982 25.146C12.3451 24.7967 12.1015 24.4244 11.9297 23.944V20.288H11.9297ZM4.50996 16.1017C7.13281 17.6152 9.39651 18.8778 11.3478 19.9642V23.7135C11.1867 23.9732 10.9683 24.0544 10.6807 24.0238L5.27839 21.0184C4.92522 20.6693 4.68179 20.2971 4.50996 19.8166V16.1017ZM3.69563 15.6308L3.92817 15.7653V19.586C3.76705 19.8458 3.5487 19.9271 3.26114 19.8964L0.183158 18.1843C0.184902 17.8323 0.185799 17.4709 0.185799 17.1031C0.185846 15.1726 1.76521 14.5101 3.69563 15.6308Z" fill="white"/>
</mask>
<g mask="url(#mask1_141_57)">
<path d="M23.4022 14.5105H-0.0437317V49.0019H23.4022V14.5105Z" fill="url(#paint1_linear_141_57)"/>
</g>
<mask id="mask2_141_57" style="mask-type:luminance" maskUnits="userSpaceOnUse" x="25" y="15" width="24" height="34">
<path d="M44.886 15.6308C21.9522 28.9456 25.4133 23.4748 25.4133 46.4089C25.4133 47.5571 25.9722 48.2567 26.8314 48.3991C26.7547 37.1747 43.9896 35.9294 43.4473 25.4309C41.7766 32.7222 33.056 34.7344 28.6412 39.0575C25.75 23.855 38.7572 28.284 44.9771 19.3049C50.4259 43.9971 29.6461 37.9622 27.777 48.3528C28.1365 48.2691 28.5221 48.1136 28.9229 47.8809C51.8568 34.5664 48.3956 40.0368 48.3956 17.1031C48.3956 15.1726 46.8162 14.5101 44.886 15.6308Z" fill="white"/>
</mask>
<g mask="url(#mask2_141_57)">
<path d="M51.8568 14.5105H21.9522V48.3995H51.8568V14.5105Z" fill="url(#paint2_linear_141_57)"/>
</g>
<defs>
<linearGradient id="paint0_linear_141_57" x1="24.2906" y1="-8.27161" x2="24.2906" y2="22.2905" gradientUnits="userSpaceOnUse">
<stop stop-color="#FF0000"/>
<stop offset="1" stop-color="#FFC619"/>
</linearGradient>
<linearGradient id="paint1_linear_141_57" x1="1.54988" y1="38.5132" x2="22.6351" y2="24.4479" gradientUnits="userSpaceOnUse">
<stop stop-color="#004DA9"/>
<stop offset="1" stop-color="#01A2E9"/>
</linearGradient>
<linearGradient id="paint2_linear_141_57" x1="45.1079" y1="38.6444" x2="25.8808" y2="21.794" gradientUnits="userSpaceOnUse">
<stop stop-color="#3B8933"/>
<stop offset="1" stop-color="#A3CA20"/>
</linearGradient>
</defs>
</svg>
