<svg width="18" height="18" viewBox="0 0 18 18" fill="none" xmlns="http://www.w3.org/2000/svg">
<g clip-path="url(#clip0_228_1073)">
<path d="M9 0C4.02594 0 0 4.02525 0 9C0 10.5786 0.411712 12.1204 1.19353 13.4802L0.0339203 17.0813C-0.0469665 17.3323 0.0195007 17.6075 0.205994 17.794C0.390701 17.9787 0.665222 18.0476 0.918731 17.9661L4.51977 16.8065C5.87961 17.5883 7.4214 18 9 18C13.9741 18 18 13.9747 18 9C18 4.02594 13.9747 0 9 0ZM9 16.5937C7.57411 16.5937 6.1842 16.1959 4.98051 15.4432C4.80734 15.335 4.59228 15.3057 4.39219 15.3701L1.79269 16.2073L2.62985 13.6078C2.6933 13.4106 2.66652 13.1953 2.55665 13.0195C1.80409 11.8158 1.40625 10.4259 1.40625 9C1.40625 4.81283 4.81283 1.40625 9 1.40625C13.1872 1.40625 16.5937 4.81283 16.5937 9C16.5937 13.1872 13.1872 16.5937 9 16.5937ZM9.8789 9C9.8789 9.48532 9.48545 9.8789 9 9.8789C8.51454 9.8789 8.12109 9.48532 8.12109 9C8.12109 8.51454 8.51454 8.12109 9 8.12109C9.48545 8.12109 9.8789 8.51454 9.8789 9ZM13.3945 9C13.3945 9.48532 13.0011 9.8789 12.5156 9.8789C12.0302 9.8789 11.6367 9.48532 11.6367 9C11.6367 8.51454 12.0302 8.12109 12.5156 8.12109C13.0011 8.12109 13.3945 8.51454 13.3945 9ZM6.36328 9C6.36328 9.48532 5.96983 9.8789 5.48437 9.8789C4.99905 9.8789 4.60547 9.48532 4.60547 9C4.60547 8.51454 4.99905 8.12109 5.48437 8.12109C5.96983 8.12109 6.36328 8.51454 6.36328 9Z" fill="#41C575"/>
</g>
<defs>
<clipPath id="clip0_228_1073">
<rect width="18" height="18" fill="white"/>
</clipPath>
</defs>
</svg>
