<svg width="40" height="29" viewBox="0 0 40 29" fill="none" xmlns="http://www.w3.org/2000/svg">
<path fill-rule="evenodd" clip-rule="evenodd" d="M5.4111 21.3309H0L3.79499 25.0043L0 28.6776H9.71605C9.76078 28.6775 9.80365 28.6597 9.83528 28.628C9.86691 28.5964 9.88471 28.5535 9.8848 28.5088V27.3449H7.112C6.17645 27.3449 5.41102 26.5795 5.41102 25.6439V21.3309H5.4111ZM7.11208 16.8664H32.888C32.9954 16.8668 33.0984 16.9096 33.1743 16.9855C33.2503 17.0615 33.2931 17.1644 33.2934 17.2719V25.6439C33.2931 25.7514 33.2503 25.8543 33.1743 25.9303C33.0984 26.0062 32.9954 26.0491 32.888 26.0494H7.11208C7.00465 26.0491 6.90172 26.0062 6.82575 25.9303C6.74979 25.8543 6.70697 25.7514 6.70665 25.6439V17.2719C6.70697 17.1644 6.74979 17.0615 6.82575 16.9855C6.90172 16.9096 7.00465 16.8668 7.11208 16.8664ZM11.5252 18.9562L12.2617 20.7082L14.1557 20.8673L12.7169 22.1092L13.151 23.9596L11.5252 22.975L9.89953 23.9596L10.3335 22.1092L8.89484 20.8673L10.7888 20.7082L11.5253 18.9562H11.5252ZM20 18.9562L19.2635 20.7082L17.3696 20.8673L18.8084 22.1092L18.3744 23.9596L20 22.975L21.6257 23.9596L21.1917 22.1092L22.6304 20.8673L20.7365 20.7082L20 18.9562H20ZM28.4749 18.9562L27.7384 20.7082L25.8444 20.8673L27.2831 22.1092L26.8491 23.9596L28.4748 22.975L30.1005 23.9596L29.6665 22.1092L31.1052 20.8673L29.2113 20.7082L28.4748 18.9562H28.4749ZM34.589 21.3309V25.6439C34.589 26.5795 33.8235 27.3449 32.888 27.3449H30.1152V28.5088C30.1152 28.6018 30.191 28.6776 30.2839 28.6776H40L36.205 25.0043L40 21.3309H34.5889H34.589ZM22.0397 8.7661C22.5166 8.28651 23.2921 8.2844 23.7717 8.76133C24.2513 9.23825 24.2534 10.0137 23.7765 10.4933L19.686 14.6222C19.2122 15.0986 18.444 15.1038 17.9638 14.6365L15.9399 12.6638C15.455 12.1923 15.4443 11.4168 15.9159 10.9319C16.3876 10.447 17.1629 10.4363 17.6478 10.908L18.8025 12.0337L22.0396 8.76618L22.0397 8.7661ZM10.448 4.30391C9.60391 4.50407 9.02552 5.23557 9.02552 6.1031V15.5709H11.8947V6.89582C14.8378 6.09331 17.3225 4.81104 19.863 3.12601C22.3498 4.73371 24.9593 6.02683 27.8071 6.85355V15.5709H30.6763V6.07509C30.6763 5.2197 30.1157 4.49694 29.2871 4.28407C26.4655 3.55937 23.731 2.28747 20.7689 0.28552C20.2017 -0.0978815 19.4948 -0.0949664 18.9306 0.293132C16.0053 2.30569 13.536 3.57168 10.448 4.30391H10.448Z" fill="white"/>
</svg>
