<svg width="41" height="41" viewBox="0 0 41 41" fill="none" xmlns="http://www.w3.org/2000/svg">
<path fill-rule="evenodd" clip-rule="evenodd" d="M18.5776 27.5473H16.6557C16.4036 27.5473 16.1747 27.3993 16.0715 27.1693C15.968 26.9389 16.0093 26.6696 16.1771 26.481L21.3021 20.7156C21.4787 20.5167 21.7599 20.4479 22.0083 20.5423C22.257 20.6367 22.4214 20.8751 22.4214 21.1412V24.9848H24.3432C24.5954 24.9848 24.8243 25.1328 24.9275 25.3631C25.031 25.5932 24.9897 25.8625 24.8219 26.0511L19.6969 31.8165C19.5203 32.0154 19.2391 32.0845 18.9907 31.9898C18.742 31.8954 18.5776 31.657 18.5776 31.3912V27.5473ZM21.1401 22.826L18.0822 26.2661H19.2182C19.5722 26.2661 19.8589 26.5529 19.8589 26.9067V29.7061L22.9168 26.2661H21.7807C21.4268 26.2661 21.1401 25.9792 21.1401 25.6254V22.826Z" fill="#091613"/>
<path fill-rule="evenodd" clip-rule="evenodd" d="M18.6243 7.04712C18.7613 6.09451 19.2034 5.20532 19.8914 4.51665C20.7325 3.67551 21.8729 3.20337 23.0625 3.20337H26.2663C26.6199 3.20337 26.9069 3.49037 26.9069 3.84399V5.76587H31.3906C31.7442 5.76587 32.0312 6.05287 32.0312 6.40649C32.0312 6.76012 31.7442 7.04712 31.3906 7.04712H26.9069V10.8909H31.3906C31.7442 10.8909 32.0312 11.1779 32.0312 11.5315C32.0312 11.8851 31.7442 12.1721 31.3906 12.1721H26.9069V14.094C26.9069 14.4476 26.6199 14.7346 26.2663 14.7346C26.2663 14.7346 24.7115 14.7346 23.0625 14.7346C21.8729 14.7346 20.7325 14.2625 19.8914 13.4213C19.2034 12.7327 18.7613 11.8435 18.6243 10.8909H16.6562C15.8196 10.8909 15.1072 10.3559 14.8439 9.60962H5.76562C5.25569 9.60962 4.76689 9.81206 4.40686 10.1727C4.04619 10.5328 3.84375 11.0216 3.84375 11.5315V27.5471C3.84375 28.0571 4.04619 28.5459 4.40686 28.9059C4.76689 29.2666 5.25569 29.469 5.76562 29.469H6.40625V27.6317C6.40625 27.0391 6.57089 26.4581 6.88159 25.9532C7.63689 24.7258 9.35313 21.9372 10.5005 20.0717C11.3166 18.7456 12.7625 17.9377 14.3199 17.9377H23.5148C25.0484 17.9377 26.4751 18.7212 27.2983 20.0147L30.4963 25.0404L35.761 25.918C37.3055 26.1749 38.4375 27.5112 38.4375 29.0776V32.6721C38.4375 33.1821 38.2351 33.6709 37.8744 34.0309C37.5144 34.3916 37.0256 34.594 36.5156 34.594H35.1812C34.8756 36.4108 33.2939 37.7971 31.3906 37.7971C29.4873 37.7971 27.9056 36.4108 27.6 34.594H17.2437C16.9381 36.4108 15.3564 37.7971 13.4531 37.7971C11.5498 37.7971 9.96813 36.4108 9.66255 34.594H8.32812C7.81819 34.594 7.32939 34.3916 6.96936 34.0309C6.60869 33.6709 6.40625 33.1821 6.40625 32.6721V30.7502H5.76562C4.91616 30.7502 4.10128 30.4126 3.50037 29.8124C2.90011 29.2115 2.5625 28.3966 2.5625 27.5471C2.5625 23.4811 2.5625 15.5975 2.5625 11.5315C2.5625 10.682 2.90011 9.86715 3.50037 9.26624C4.10128 8.66598 4.91616 8.32837 5.76562 8.32837H14.8439C15.1072 7.58204 15.8196 7.04712 16.6562 7.04712H18.6243ZM13.4531 31.3909C14.8676 31.3909 16.0156 32.5389 16.0156 33.9534C16.0156 35.3679 14.8676 36.5159 13.4531 36.5159C12.0386 36.5159 10.8906 35.3679 10.8906 33.9534C10.8906 32.5389 12.0386 31.3909 13.4531 31.3909ZM31.3906 31.3909C32.8051 31.3909 33.9531 32.5389 33.9531 33.9534C33.9531 35.3679 32.8051 36.5159 31.3906 36.5159C29.9761 36.5159 28.8281 35.3679 28.8281 33.9534C28.8281 32.5389 29.9761 31.3909 31.3906 31.3909ZM14.3468 19.219H14.3199C13.2071 19.219 12.1744 19.7962 11.5915 20.7437C10.4441 22.6085 8.72787 25.3972 7.97258 26.6246C7.78616 26.9276 7.6875 27.2761 7.6875 27.6317V32.6721C7.6875 32.8419 7.75477 33.0052 7.8752 33.125C7.995 33.2455 8.15836 33.3127 8.32812 33.3127H9.66255C9.96813 31.4959 11.5498 30.1096 13.4531 30.1096C15.3564 30.1096 16.9381 31.4959 17.2437 33.3127H27.6C27.9056 31.4959 29.4873 30.1096 31.3906 30.1096C33.2939 30.1096 34.8756 31.4959 35.1812 33.3127H36.5156C36.6854 33.3127 36.8488 33.2455 36.9685 33.125C37.089 33.0052 37.1562 32.8419 37.1562 32.6721V29.0776C37.1562 28.1378 36.4772 27.3357 35.5502 27.1813L30.0562 26.2659C30.0562 26.2659 27.9876 26.2659 26.9069 26.2659C26.5533 26.2659 26.2663 25.9789 26.2663 25.6252C26.2663 25.2716 26.5533 24.9846 26.9069 24.9846H28.9422L26.2176 20.7027C25.6295 19.7783 24.6103 19.219 23.5148 19.219C21.7511 19.219 19.2489 19.219 17.4852 19.219C16.3898 19.219 15.3705 19.7783 14.7824 20.7027L12.0578 24.9846H14.0938C14.2635 24.9846 14.4269 25.0519 14.5467 25.1723C14.6671 25.2921 14.7344 25.4555 14.7344 25.6252C14.7344 25.795 14.6671 25.9584 14.5467 26.0782C14.4269 26.1986 14.2635 26.2659 14.0938 26.2659C13.0002 26.2659 10.8906 26.2659 10.8906 26.2659C10.6568 26.2659 10.4415 26.1384 10.3288 25.9334C10.2167 25.7284 10.2244 25.4785 10.3499 25.2812C10.3499 25.2812 12.373 22.1024 13.7017 20.0147C13.8875 19.7225 14.1046 19.456 14.3468 19.219ZM25.6256 13.4534V4.48462H23.0625C22.213 4.48462 21.3982 4.82223 20.7973 5.42249C20.197 6.0234 19.8594 6.83828 19.8594 7.68774V10.2502C19.8594 11.0997 20.197 11.9146 20.7973 12.5155C21.3982 13.1158 22.213 13.4534 23.0625 13.4534H25.6256ZM18.5781 8.32837H16.6562C16.3026 8.32837 16.0156 8.61537 16.0156 8.96899C16.0156 9.32262 16.3026 9.60962 16.6562 9.60962H18.5781V8.32837Z" fill="#091613"/>
</svg>
