<svg width="41" height="41" viewBox="0 0 41 41" fill="none" xmlns="http://www.w3.org/2000/svg">
<path fill-rule="evenodd" clip-rule="evenodd" d="M28.8276 12.8124H26.9057C26.6536 12.8124 26.4247 12.6644 26.3215 12.4344C26.218 12.2041 26.2593 11.9348 26.4271 11.7462L31.5521 5.98069C31.7287 5.78187 32.0099 5.71299 32.2583 5.80743C32.507 5.90186 32.6714 6.14024 32.6714 6.40633V10.25H34.5932C34.8454 10.25 35.0743 10.398 35.1775 10.6283C35.281 10.8583 35.2397 11.1276 35.0719 11.3162L29.9469 17.0817C29.7703 17.2805 29.4891 17.3497 29.2407 17.255C28.992 17.1605 28.8276 16.9221 28.8276 16.6563V12.8124ZM31.3901 8.09112L28.3322 11.5312H29.4682C29.8222 11.5312 30.1089 11.818 30.1089 12.1718V14.9713L33.1668 11.5312H32.0307C31.6768 11.5312 31.3901 11.2444 31.3901 10.8906V8.09112Z" fill="#091613"/>
<path fill-rule="evenodd" clip-rule="evenodd" d="M17.9375 37.7969V29.4688C17.9375 28.8992 18.1848 28.388 18.5781 28.0363V24.2502L6.57473 27.5245C6.29414 27.6007 5.99689 27.4783 5.85147 27.2266C5.70605 26.9748 5.74833 26.6564 5.95525 26.4514L14.8952 17.5916C15.0342 17.4538 15.2283 17.3872 15.4224 17.4103L17.6889 17.6832C17.826 17.4327 17.9964 17.2021 18.1931 16.9971L16.7844 15.1188C16.6671 14.9624 16.6274 14.7606 16.6774 14.5717L19.8805 2.39978C19.9548 2.11791 20.2092 1.92188 20.5 1.92188C20.7908 1.92188 21.0452 2.11791 21.1195 2.39978L24.3226 14.5717C24.3726 14.7606 24.3329 14.9624 24.2156 15.1188L22.8069 16.9971C23.0036 17.2021 23.174 17.4327 23.3111 17.6832L25.5776 17.4103C25.7717 17.3872 25.9658 17.4538 26.1048 17.5916L35.0447 26.4514C35.2517 26.6564 35.294 26.9748 35.1485 27.2266C35.0031 27.4783 34.7059 27.6007 34.4253 27.5245L22.4219 24.2502V28.0363C22.8152 28.388 23.0625 28.8992 23.0625 29.4688V37.7969H37.1562C37.5099 37.7969 37.7969 38.0839 37.7969 38.4375C37.7969 38.7911 37.5099 39.0781 37.1562 39.0781H3.84375C3.49013 39.0781 3.20312 38.7911 3.20312 38.4375C3.20312 38.0839 3.49013 37.7969 3.84375 37.7969H17.9375ZM21.7812 37.7969V29.4688C21.7812 29.1151 21.4942 28.8281 21.1406 28.8281C20.7281 28.8281 20.2719 28.8281 19.8594 28.8281C19.5058 28.8281 19.2188 29.1151 19.2188 29.4688V37.7969H21.7812ZM21.1406 22.3578C20.9337 22.3995 20.7191 22.4219 20.5 22.4219C20.2809 22.4219 20.0663 22.3995 19.8594 22.3578V27.5469H21.1406V22.3578ZM23.6903 18.9279C23.6986 19.024 23.7031 19.1207 23.7031 19.2188C23.7031 20.2822 23.1836 21.2252 22.3847 21.8082L22.9184 23.058L32.4137 25.6474L25.4232 18.7197L23.6903 18.9279ZM17.3097 18.9279L15.5768 18.7197L8.5863 25.6474L18.0816 23.058L18.6153 21.8082C17.8164 21.2252 17.2969 20.2822 17.2969 19.2188C17.2969 19.1207 17.3014 19.024 17.3097 18.9279ZM20.5 17.2969C21.5609 17.2969 22.4219 18.1579 22.4219 19.2188C22.4219 20.2796 21.5609 21.1406 20.5 21.1406C19.4391 21.1406 18.5781 20.2796 18.5781 19.2188C18.5781 18.1579 19.4391 17.2969 20.5 17.2969ZM21.7511 16.2693L23.0048 14.5979L20.5 5.07952L17.9952 14.5979L19.2489 16.2693C19.6332 16.106 20.056 16.0156 20.5 16.0156C20.944 16.0156 21.3668 16.106 21.7511 16.2693Z" fill="#091613"/>
</svg>
