<svg width="41" height="41" viewBox="0 0 41 41" fill="none" xmlns="http://www.w3.org/2000/svg">
<path fill-rule="evenodd" clip-rule="evenodd" d="M30.1094 6.40625C27.6344 6.40625 25.625 8.41568 25.625 10.8906C25.625 13.3656 27.6344 15.375 30.1094 15.375C32.5843 15.375 34.5938 13.3656 34.5938 10.8906C34.5938 8.41568 32.5843 6.40625 30.1094 6.40625ZM30.1094 7.6875C31.8771 7.6875 33.3125 9.12293 33.3125 10.8906C33.3125 12.6583 31.8771 14.0938 30.1094 14.0938C28.3417 14.0938 26.9062 12.6583 26.9062 10.8906C26.9062 9.12293 28.3417 7.6875 30.1094 7.6875Z" fill="#091613"/>
<path fill-rule="evenodd" clip-rule="evenodd" d="M30.75 18.5781V17.2969C30.75 16.9433 30.4629 16.6562 30.1094 16.6562C29.7558 16.6562 29.4688 16.9433 29.4688 17.2969V18.5781C29.4688 18.9318 29.7558 19.2188 30.1094 19.2188C30.4629 19.2188 30.75 18.9318 30.75 18.5781Z" fill="#091613"/>
<path fill-rule="evenodd" clip-rule="evenodd" d="M36.3279 16.2033L35.0466 14.922C34.7966 14.6722 34.3906 14.6722 34.1406 14.922C33.8906 15.1718 33.8906 15.578 34.1406 15.8278L35.4219 17.1091C35.6719 17.3589 36.0779 17.3589 36.3279 17.1091C36.5779 16.8593 36.5779 16.4531 36.3279 16.2033Z" fill="#091613"/>
<path fill-rule="evenodd" clip-rule="evenodd" d="M37.7974 10.25H36.5161C36.1625 10.25 35.8755 10.537 35.8755 10.8906C35.8755 11.2442 36.1625 11.5312 36.5161 11.5312H37.7974C38.1509 11.5312 38.438 11.2442 38.438 10.8906C38.438 10.537 38.1509 10.25 37.7974 10.25Z" fill="#091613"/>
<path fill-rule="evenodd" clip-rule="evenodd" d="M35.4219 4.672L34.1406 5.95325C33.8906 6.2031 33.8906 6.60925 34.1406 6.8591C34.3906 7.10894 34.7966 7.10894 35.0466 6.8591L36.3279 5.57785C36.5779 5.328 36.5779 4.92185 36.3279 4.672C36.0779 4.42216 35.6719 4.42216 35.4219 4.672Z" fill="#091613"/>
<path fill-rule="evenodd" clip-rule="evenodd" d="M26.0779 5.95325L24.7966 4.672C24.5466 4.42216 24.1406 4.42216 23.8906 4.672C23.6406 4.92185 23.6406 5.328 23.8906 5.57785L25.1719 6.8591C25.4219 7.10894 25.8279 7.10894 26.0779 6.8591C26.3279 6.60925 26.3279 6.2031 26.0779 5.95325Z" fill="#091613"/>
<path fill-rule="evenodd" clip-rule="evenodd" d="M29.4688 3.20297V4.4842C29.4688 4.83784 29.7558 5.12492 30.1094 5.12492C30.4629 5.12492 30.75 4.83784 30.75 4.4842V3.20297C30.75 2.84934 30.4629 2.56226 30.1094 2.56226C29.7558 2.56226 29.4688 2.84934 29.4688 3.20297Z" fill="#091613"/>
<path fill-rule="evenodd" clip-rule="evenodd" d="M25.1719 14.922L23.8906 16.2033C23.6406 16.4531 23.6406 16.8593 23.8906 17.1091C24.1406 17.3589 24.5466 17.3589 24.7966 17.1091L26.0779 15.8278C26.3279 15.578 26.3279 15.1718 26.0779 14.922C25.8279 14.6722 25.4219 14.6722 25.1719 14.922Z" fill="#091613"/>
<path fill-rule="evenodd" clip-rule="evenodd" d="M23.7036 10.25H22.4224C22.0688 10.25 21.7817 10.537 21.7817 10.8906C21.7817 11.2442 22.0688 11.5312 22.4224 11.5312H23.7036C24.0572 11.5312 24.3442 11.2442 24.3442 10.8906C24.3442 10.537 24.0572 10.25 23.7036 10.25Z" fill="#091613"/>
<path fill-rule="evenodd" clip-rule="evenodd" d="M4.3044 21.7812L2.58176 14.89C2.53372 14.6985 2.57664 14.4954 2.69836 14.3404C2.81943 14.1847 3.00586 14.0938 3.20317 14.0938H22.4219C22.7755 14.0938 23.0625 14.3808 23.0625 14.7344C23.0625 15.088 22.7755 15.375 22.4219 15.375H17.4769L19.0785 21.7812H24.805L24.2029 19.3744C24.117 19.031 24.3259 18.6832 24.6692 18.5973C25.012 18.5115 25.3605 18.7203 25.4463 19.0631L26.1254 21.7812H31.2107L31.0896 21.2963C31.0037 20.9529 31.2126 20.6051 31.5553 20.5192C31.8987 20.4334 32.2465 20.6422 32.3324 20.985L32.5316 21.7812H33.3125C33.6662 21.7812 33.9532 22.0683 33.9532 22.4219C33.9532 22.7755 33.6662 23.0625 33.3125 23.0625H32.8519L34.5746 29.9537C34.6226 30.1453 34.5797 30.3483 34.458 30.5034C34.3369 30.659 34.1505 30.75 33.9532 30.75H21.1407V37.1562H37.7969C38.1505 37.1562 38.4375 37.4433 38.4375 37.7969C38.4375 38.1505 38.1505 38.4375 37.7969 38.4375H3.20317C2.84954 38.4375 2.56254 38.1505 2.56254 37.7969C2.56254 37.4433 2.84954 37.1562 3.20317 37.1562H16.0157V30.75H7.04692C6.75287 30.75 6.49662 30.5501 6.42551 30.265L4.62472 23.0625H3.84379C3.49017 23.0625 3.20317 22.7755 3.20317 22.4219C3.20317 22.0683 3.49017 21.7812 3.84379 21.7812H4.3044ZM17.2969 30.75V37.1562H19.8594V30.75H17.2969ZM12.6325 29.4688L11.031 23.0625H5.94568L7.54725 29.4688H12.6325ZM12.3519 23.0625L13.9535 29.4688H19.6794L18.0778 23.0625H12.3519ZM19.3988 23.0625L21.0004 29.4688H26.7263L25.1247 23.0625H19.3988ZM31.531 23.0625H26.4457L28.0472 29.4688H33.1325L31.531 23.0625ZM4.02381 15.375L5.62537 21.7812H10.7113L9.10973 15.375H4.02381ZM10.4301 15.375L12.0316 21.7812H17.7582L16.1566 15.375H10.4301Z" fill="#091613"/>
</svg>
