<svg width="41" height="41" viewBox="0 0 41 41" fill="none" xmlns="http://www.w3.org/2000/svg">
<path fill-rule="evenodd" clip-rule="evenodd" d="M18.3578 27.5476H14.7345C14.4754 27.5476 14.2417 27.3915 14.1425 27.1519C14.0434 26.9126 14.0982 26.6371 14.2814 26.4538L23.2502 17.4851C23.4577 17.2774 23.7798 17.2376 24.0317 17.3879C24.2836 17.5386 24.4012 17.841 24.3169 18.1222L22.6423 23.7038H26.2657C26.5248 23.7038 26.7585 23.8598 26.8577 24.0991C26.9568 24.3387 26.902 24.6142 26.7188 24.7972L17.75 33.7662C17.5425 33.9736 17.2204 34.0134 16.9685 33.8631C16.7166 33.7124 16.5989 33.41 16.6833 33.1291L18.3578 27.5476ZM22.3594 20.1878L16.2812 26.2662H19.2188C19.4213 26.2662 19.6119 26.362 19.7329 26.5245C19.8536 26.687 19.8907 26.8969 19.8326 27.0909L18.6407 31.0632L24.719 24.9848H21.7813C21.5789 24.9848 21.3883 24.8894 21.2673 24.7269C21.1466 24.5644 21.1095 24.3541 21.1676 24.1601L22.3594 20.1878Z" fill="#091613"/>
<path fill-rule="evenodd" clip-rule="evenodd" d="M8.32813 32.6721C8.15822 32.6721 7.99528 32.6046 7.87514 32.4845C7.75499 32.3643 7.6875 32.2014 7.6875 32.0315C7.6875 31.8616 7.75499 31.6986 7.87514 31.5785C7.99528 31.4584 8.15822 31.3909 8.32813 31.3909C8.49803 31.3909 8.66097 31.4584 8.78112 31.5785C8.90126 31.6986 8.96875 31.8616 8.96875 32.0315C8.96875 32.2014 8.90126 32.3643 8.78112 32.4845C8.66097 32.6046 8.49803 32.6721 8.32813 32.6721Z" fill="#091613"/>
<path fill-rule="evenodd" clip-rule="evenodd" d="M32.6719 32.6721C32.502 32.6721 32.339 32.6046 32.2189 32.4845C32.0987 32.3643 32.0313 32.2014 32.0313 32.0315C32.0313 31.8616 32.0987 31.6986 32.2189 31.5785C32.339 31.4584 32.502 31.3909 32.6719 31.3909C32.8418 31.3909 33.0047 31.4584 33.1249 31.5785C33.245 31.6986 33.3125 31.8616 33.3125 32.0315C33.3125 32.2014 33.245 32.3643 33.1249 32.4845C33.0047 32.6046 32.8418 32.6721 32.6719 32.6721Z" fill="#091613"/>
<path fill-rule="evenodd" clip-rule="evenodd" d="M7.68799 26.9062V29.4687C7.68799 29.8223 7.97499 30.1094 8.32861 30.1094C8.68224 30.1094 8.96924 29.8223 8.96924 29.4687V26.9062C8.96924 26.5526 8.68224 26.2656 8.32861 26.2656C7.97499 26.2656 7.68799 26.5526 7.68799 26.9062Z" fill="#091613"/>
<path fill-rule="evenodd" clip-rule="evenodd" d="M32.0317 26.9062V29.4687C32.0317 29.8223 32.3187 30.1094 32.6724 30.1094C33.026 30.1094 33.313 29.8223 33.313 29.4687V26.9062C33.313 26.5526 33.026 26.2656 32.6724 26.2656C32.3187 26.2656 32.0317 26.5526 32.0317 26.9062Z" fill="#091613"/>
<path fill-rule="evenodd" clip-rule="evenodd" d="M10.2501 21.1401H6.40637C6.14756 21.1401 5.91373 20.9838 5.81443 20.7449C5.71514 20.5053 5.77023 20.2298 5.95345 20.0466L18.7659 7.23409C18.8857 7.11365 19.0491 7.04639 19.2189 7.04639H21.7814C21.9511 7.04639 22.1145 7.11365 22.2343 7.23409L26.9064 11.9062V8.32828H26.2657C25.9121 8.32828 25.6251 8.04128 25.6251 7.68765C25.6251 7.33403 25.9121 7.04703 26.2657 7.04703H31.3907C31.7444 7.04703 32.0314 7.33403 32.0314 7.68765C32.0314 8.04128 31.7444 8.32828 31.3907 8.32828H30.7501V15.7499L35.0468 20.0466C35.23 20.2298 35.2851 20.5053 35.1858 20.7449C35.0865 20.9838 34.8527 21.1401 34.5939 21.1401H30.7501V30.7501C30.7501 31.2601 30.5477 31.7489 30.187 32.1089C29.827 32.4696 29.3382 32.672 28.8282 32.672H21.7814C21.4277 32.672 21.1407 32.385 21.1407 32.0314C21.1407 31.6778 21.4277 31.3908 21.7814 31.3908H28.8282C28.998 31.3908 29.1614 31.3235 29.2812 31.2031C29.4016 31.0833 29.4689 30.9199 29.4689 30.7501V20.1241L20.5001 11.1554L11.5314 20.1241V30.7501C11.5314 30.9199 11.5986 31.0833 11.7191 31.2031C11.8389 31.3235 12.0022 31.3908 12.172 31.3908H14.7345C15.0881 31.3908 15.3751 31.6778 15.3751 32.0314C15.3751 32.385 15.0881 32.672 14.7345 32.672C13.7153 32.672 12.8331 32.672 12.172 32.672C11.6621 32.672 11.1733 32.4696 10.8132 32.1089C10.4526 31.7489 10.2501 31.2601 10.2501 30.7501V21.1401ZM31.0153 19.8589H33.0474L21.5161 8.32764H19.4841L7.95284 19.8589H9.9849L20.0472 9.79659C20.297 9.54611 20.7032 9.54611 20.953 9.79659L31.0153 19.8589ZM28.1876 13.1874L29.4689 14.4687V8.32828H28.1876V13.1874Z" fill="#091613"/>
</svg>
