<svg width="64" height="64" viewBox="0 0 64 64" fill="none" xmlns="http://www.w3.org/2000/svg">
<path fill-rule="evenodd" clip-rule="evenodd" d="M39.9226 16.3013C39.9226 11.9253 36.3759 8.37842 32 8.37842C27.6241 8.37842 24.0774 11.9253 24.0774 16.3013C24.0774 18.1793 24.7294 19.9048 25.8241 21.2654L32.0018 24.3749L38.1759 21.2654C39.2706 19.9048 39.9226 18.1792 39.9226 16.3013Z" fill="#FFD772"/>
<path fill-rule="evenodd" clip-rule="evenodd" d="M32 21.2655L7.90965 21.262C6.8679 21.2761 6.06365 22.0486 5.85815 22.9592L2.2334 43.1242H32H61.7666L58.1419 22.9592C57.9364 22.0486 57.132 21.2761 56.0904 21.262L32 21.2655Z" fill="#A1D4FF"/>
<path fill-rule="evenodd" clip-rule="evenodd" d="M35.2065 48.2833L31.9752 46.4619L28.7898 48.2833L28.7934 53.4672L32.046 54.9659L35.2065 53.4672V48.2833Z" fill="#375E7D"/>
<path fill-rule="evenodd" clip-rule="evenodd" d="M35.2067 53.4673H28.7934H26.0616C24.8392 53.4673 23.8364 54.47 23.8364 55.6925V58.0737L32.2693 59.8559L40.1636 58.0737V55.6925C40.1636 54.47 39.1608 53.4673 37.9384 53.4673H35.2067Z" fill="#F9F7F8"/>
<path fill-rule="evenodd" clip-rule="evenodd" d="M40.1636 58.0735H23.8365H21.211C19.8858 58.0735 18.7981 59.1577 18.7981 60.483V62.531C18.7981 62.8215 19.0391 63.0625 19.3331 63.0625H44.6707C44.9612 63.0625 45.2022 62.8215 45.2022 62.531V60.483C45.2022 59.1577 44.118 58.0735 42.7893 58.0735H40.1636Z" fill="#375E7D"/>
<path fill-rule="evenodd" clip-rule="evenodd" d="M58.142 22.9592C57.9365 22.0486 57.1322 21.2761 56.0905 21.262L38.176 21.2655H37.113C38.6189 23.4446 39.696 25.9107 40.2347 28.5506C40.4898 29.8085 40.6244 31.1088 40.6244 32.4341C40.6244 33.5963 40.5217 34.7302 40.3268 35.8392C39.859 38.4683 38.8599 40.931 37.4355 43.1242H61.7668L58.142 22.9592Z" fill="#75CEF8"/>
<path fill-rule="evenodd" clip-rule="evenodd" d="M32.0001 43.1243H2.23356L1.84731 45.562C1.59569 47.1318 2.67994 48.2408 4.26731 48.2408H59.7329C61.3203 48.2408 62.4046 47.1318 62.1529 45.562L61.7667 43.1243H37.4354H32.0001Z" fill="#F9F7F8"/>
<path fill-rule="evenodd" clip-rule="evenodd" d="M62.1529 45.562L61.7667 43.1243H51.8279L52.2142 45.562C52.4658 47.1318 51.3816 48.2408 49.7942 48.2408H59.7329C61.3203 48.2408 62.4046 47.1318 62.1529 45.562Z" fill="#E5E4EC"/>
<path fill-rule="evenodd" clip-rule="evenodd" d="M35.2067 53.4673V48.2834L32.4431 48.2904L32.1489 48.2869V53.4673H34.8843H35.2067Z" fill="#2B4D66"/>
<path fill-rule="evenodd" clip-rule="evenodd" d="M40.1637 55.6923C40.1637 54.4698 39.1609 53.467 37.9385 53.467H35.2067H34.8843C36.1067 53.467 37.1094 54.4698 37.1094 55.6923V58.0734H39.7349H40.1637V55.6923Z" fill="#E5E4EC"/>
<path fill-rule="evenodd" clip-rule="evenodd" d="M45.202 60.483C45.202 59.1577 44.1177 58.0735 42.7891 58.0735H40.1636H39.7349C41.06 58.0735 42.1442 59.1577 42.1442 60.483V62.531C42.1442 62.8215 41.9069 63.0625 41.6127 63.0625H44.6705C44.961 63.0625 45.202 62.8215 45.202 62.531V60.483Z" fill="#2B4D66"/>
<path fill-rule="evenodd" clip-rule="evenodd" d="M39.9227 16.3013C39.9227 11.9253 36.376 8.37842 32.0001 8.37842C30.0832 8.37842 28.3257 9.05879 26.9546 10.1925C31.2206 10.32 34.6363 13.8174 34.6363 18.1119C34.6363 19.2317 34.4025 20.2982 33.9843 21.2654H37.113H38.176C39.2707 19.9048 39.9227 18.1792 39.9227 16.3013Z" fill="#FBBA58"/>
<path d="M16.6367 17.2388H19.9957C20.5135 17.2388 20.9332 16.819 20.9332 16.3013C20.9332 15.7835 20.5135 15.3638 19.9957 15.3638H16.6367C16.119 15.3638 15.6992 15.7835 15.6992 16.3013C15.6992 16.819 16.119 17.2388 16.6367 17.2388Z" fill="black"/>
<path d="M43.0669 16.3013C43.0669 16.819 43.4865 17.2388 44.0044 17.2388H47.3669C47.8848 17.2388 48.3044 16.819 48.3044 16.3013C48.3044 15.7835 47.8848 15.3638 47.3669 15.3638H44.0044C43.4865 15.3638 43.0669 15.7835 43.0669 16.3013Z" fill="black"/>
<path d="M40.4897 8.75259C40.7298 8.75259 40.9701 8.66084 41.1532 8.47747L43.5272 6.09984C43.8931 5.73347 43.8926 5.13984 43.5262 4.77409C43.1597 4.40822 42.5662 4.40872 42.2003 4.77509L39.8263 7.15272C39.4605 7.51909 39.461 8.11272 39.8273 8.47847C40.0103 8.66122 40.25 8.75259 40.4897 8.75259Z" fill="black"/>
<path d="M22.8511 8.47797C23.0341 8.66109 23.2741 8.75259 23.5139 8.75259C23.7538 8.75259 23.9938 8.66109 24.1768 8.47797C24.5429 8.11184 24.5429 7.51834 24.1768 7.15222L21.7993 4.77459C21.4332 4.40847 20.8396 4.40847 20.4736 4.77459C20.1074 5.14072 20.1074 5.73422 20.4736 6.10034L22.8511 8.47797Z" fill="black"/>
<path d="M32 5.23413C32.5179 5.23413 32.9375 4.81437 32.9375 4.29663V0.9375C32.9375 0.41975 32.5179 0 32 0C31.4822 0 31.0625 0.41975 31.0625 0.9375V4.29663C31.0625 4.81437 31.4822 5.23413 32 5.23413Z" fill="black"/>
<path d="M63.0787 45.4153L62.6925 42.9775C62.692 42.9744 62.6911 42.9714 62.6905 42.9683C62.6899 42.965 62.6899 42.9617 62.6892 42.9584L60.073 28.4038C60.07 28.3847 60.0669 28.3655 60.0627 28.3469L59.0645 22.7934C59.062 22.7799 59.0594 22.7664 59.0564 22.753C58.7381 21.3425 57.5236 20.344 56.103 20.3247C56.0987 20.3247 56.0945 20.3247 56.0901 20.3247L39.8915 20.327C40.5221 19.0878 40.86 17.7053 40.86 16.3015C40.86 11.4159 36.8854 7.44116 31.9999 7.44116C27.1144 7.44116 23.1397 11.4159 23.1397 16.3015C23.1397 17.7057 23.4779 19.0885 24.1089 20.3282H15.4319C14.9141 20.3282 14.4944 20.7479 14.4944 21.2657C14.4944 21.7834 14.9141 22.2032 15.4319 22.2032H19.0047L18.2572 27.6133H5.97411L6.77661 23.1487C6.88948 22.6819 7.31348 22.2109 7.91648 22.1997L11.1046 22.2032H11.1056C11.6229 22.2032 12.0426 21.784 12.0431 21.2667C12.0436 20.7489 11.6244 20.3287 11.1066 20.3282L7.91061 20.3247C7.90598 20.3247 7.90148 20.3247 7.89686 20.3247C6.47636 20.344 5.26186 21.3425 4.94361 22.753C4.94061 22.7664 4.93786 22.7799 4.93536 22.7935L1.31073 42.9583C1.31023 42.9613 1.31011 42.9643 1.30961 42.9673C1.30898 42.9707 1.30798 42.9739 1.30748 42.9774L0.921608 45.4137C0.762608 46.4058 1.00298 47.3369 1.59873 48.0357C2.22673 48.7725 3.17448 49.1783 4.26736 49.1783H27.8531L27.8554 52.5297H26.0617C24.3179 52.5297 22.8991 53.9484 22.8991 55.6924V57.136H21.2111C19.3637 57.136 17.8607 58.6375 17.8607 60.483V62.531C17.8607 63.341 18.5214 64 19.3332 64H44.6707C45.4807 64 46.1397 63.341 46.1397 62.531V60.483C46.1397 58.6375 44.6367 57.136 42.7892 57.136H41.1012V55.6924C41.1012 53.9484 39.6825 52.5297 37.9386 52.5297H36.1444V49.1783H43.1684C43.6862 49.1783 44.1059 48.7585 44.1059 48.2408C44.1059 47.723 43.6862 47.3033 43.1684 47.3033H4.26723C3.73261 47.3033 3.29148 47.1314 3.02548 46.8193C2.78848 46.5413 2.70111 46.1578 2.77311 45.7088L3.03411 44.0618H60.966L61.2272 45.7104C61.2989 46.1579 61.2116 46.5413 60.9746 46.8193C60.7086 47.1314 60.2676 47.3033 59.7329 47.3033H47.4946C46.9767 47.3033 46.5571 47.723 46.5571 48.2408C46.5571 48.7585 46.9767 49.1783 47.4946 49.1783H59.7329C60.8256 49.1783 61.7734 48.7725 62.4015 48.0357C62.9971 47.3369 63.2376 46.4058 63.0787 45.4153ZM44.2646 60.4829V62.1249H19.7355V60.4829C19.7355 59.6713 20.3974 59.0109 21.2109 59.0109H23.8364H40.1635H42.789C43.6027 59.0109 44.2646 59.6713 44.2646 60.4829ZM39.2261 55.6923V57.1359H24.774V55.6923C24.774 54.9823 25.3516 54.4045 26.0616 54.4045H37.9385C38.6485 54.4045 39.2261 54.9823 39.2261 55.6923ZM34.2692 52.5295H29.7304L29.7281 49.1782H34.2694L34.2692 52.5295ZM31.0625 36.7765V42.1867H18.1364L18.8839 36.7765H31.0625ZM19.1429 34.9015L19.8909 29.4879H31.0625V34.9015H19.1429ZM32.9376 36.7765H45.1162L45.8637 42.1867H32.9376V36.7765ZM32.9376 34.9015V29.4879H44.1092L44.8572 34.9015H32.9376ZM32.9376 22.2029L43.1024 22.2013L43.8501 27.613H32.9376V22.2029ZM46.002 29.488H58.363L59.3361 34.9017H46.75L46.002 29.488ZM57.2235 23.1484L58.026 27.613H45.743L44.9952 22.201L56.0832 22.1994C56.6865 22.2104 57.1105 22.6815 57.2235 23.1484ZM25.0149 16.3013C25.0149 12.4495 28.1484 9.31591 32 9.31591C35.8515 9.31591 38.9851 12.4495 38.9851 16.3013C38.9851 17.765 38.5457 19.1478 37.7102 20.3272L32 20.328H26.2902C25.4544 19.1484 25.0149 17.7653 25.0149 16.3013ZM20.8975 22.2029H31.0625V27.613H20.15L20.8975 22.2029ZM17.9981 29.488L17.2501 34.9015H4.66398L5.63711 29.4879L17.9981 29.488ZM4.32698 36.7765H16.9911L16.2537 42.1135C16.2504 42.138 16.2489 42.1624 16.2474 42.1867H3.35448L4.32698 36.7765ZM47.7529 42.1867C47.7514 42.1624 47.7499 42.138 47.7465 42.1135L47.0091 36.7765H59.6731L60.6456 42.1867H47.7529Z" fill="black"/>
</svg>
