<svg width="64" height="64" viewBox="0 0 64 64" fill="none" xmlns="http://www.w3.org/2000/svg">
<g clip-path="url(#clip0_45_719)">
<path d="M20.2651 23.4136L22.0442 26.8121C22.7644 28.1877 24.5436 28.5938 25.7892 27.6668L28.8666 25.3768L28.995 29.2107C29.047 30.7626 30.4737 31.9003 31.9982 31.6057L35.7645 30.8777L34.2166 34.3876C33.5901 35.8083 34.382 37.4524 35.8832 37.8484L39.5924 38.8267L36.6751 41.3173C35.4942 42.3254 35.4942 44.1504 36.6751 45.1586L39.5925 47.6493L35.8834 48.6276C34.382 49.0236 33.5901 50.6678 34.2167 52.0884L35.7645 55.5983L31.9982 54.8703C30.4737 54.5757 29.047 55.7135 28.995 57.2653L28.8666 61.0992L25.7892 58.8092C24.5436 57.8823 22.7644 58.2883 22.0442 59.6639L20.2651 63.0624L18.486 59.6639C17.7659 58.2883 15.9866 57.8822 14.741 58.8092L11.6636 61.0992L11.5352 57.2653C11.4832 55.7135 10.0565 54.5757 8.53199 54.8703L4.76574 55.5983L6.31349 52.0884C6.93999 50.6677 6.14812 49.0236 4.64687 48.6276L0.937744 47.6493L3.85512 45.1586C5.03599 44.1504 5.03599 42.3254 3.85512 41.3173L0.937869 38.8267L4.64699 37.8484C6.14837 37.4524 6.94024 35.8082 6.31362 34.3876L4.76587 30.8777L8.53212 31.6057C10.0566 31.9003 11.4834 30.7626 11.5354 29.2107L11.6637 25.3768L14.7411 27.6668C15.9867 28.5937 17.766 28.1877 18.4861 26.8121L20.2651 23.4136Z" fill="#FFE07D"/>
<path d="M36.6751 41.3172L39.5925 38.8264L35.8834 37.8482C34.382 37.4522 33.5902 35.8079 34.2167 34.3873L35.7645 30.8774L31.9982 31.6054C31.9402 31.6167 31.8824 31.6251 31.8247 31.6322C32.354 33.3662 32.6396 35.2064 32.6396 37.1137C32.6396 47.4697 24.2445 55.8648 13.8885 55.8648C12.8535 55.8648 11.8385 55.7796 10.8491 55.6183C11.254 56.0472 11.5137 56.6201 11.5352 57.2652L11.6636 61.0991L14.741 58.8091C15.9866 57.8822 17.7659 58.2882 18.486 59.6638L20.265 63.0623L22.044 59.6638C22.7641 58.2882 24.5434 57.8821 25.789 58.8091L28.8664 61.0991L28.9947 57.2652C29.0467 55.7133 30.4735 54.5756 31.998 54.8702L35.7642 55.5982L34.2165 52.0883C33.59 50.6676 34.3817 49.0233 35.8831 48.6274L39.5922 47.6492L36.6751 45.1586C35.4942 44.1503 35.4942 42.3254 36.6751 41.3172Z" fill="#FFD064"/>
<path d="M20.265 53.3395C25.8439 53.3395 30.3666 48.8168 30.3666 43.2379C30.3666 37.6589 25.8439 33.1362 20.265 33.1362C14.686 33.1362 10.1633 37.6589 10.1633 43.2379C10.1633 48.8168 14.686 53.3395 20.265 53.3395Z" fill="#EAB14D"/>
<path d="M26.4104 35.2229C26.5189 35.816 26.5785 36.4263 26.5785 37.0507C26.5785 42.6297 22.0559 47.1523 16.4769 47.1523C14.1642 47.1523 12.0343 46.3733 10.3315 45.0657C11.192 49.7715 15.3105 53.3394 20.265 53.3394C25.844 53.3394 30.3667 48.8168 30.3667 43.2378C30.3665 39.9718 28.815 37.0695 26.4104 35.2229Z" fill="#E7A52E"/>
<path d="M50.1831 39.9548C52.9725 39.9548 55.2338 37.6935 55.2338 34.904C55.2338 32.1146 52.9725 29.8533 50.1831 29.8533C47.3936 29.8533 45.1323 32.1146 45.1323 34.904C45.1323 37.6935 47.3936 39.9548 50.1831 39.9548Z" fill="#EAB14D"/>
<path d="M32 18.9942C34.0922 18.9942 35.7882 17.2982 35.7882 15.2061C35.7882 13.114 34.0922 11.418 32 11.418C29.9079 11.418 28.2119 13.114 28.2119 15.2061C28.2119 17.2982 29.9079 18.9942 32 18.9942Z" fill="#CBAFEA"/>
<path d="M38.0609 4.97825C39.1767 4.97825 40.0813 4.0737 40.0813 2.95788C40.0813 1.84205 39.1767 0.9375 38.0609 0.9375C36.9451 0.9375 36.0405 1.84205 36.0405 2.95788C36.0405 4.0737 36.9451 4.97825 38.0609 4.97825Z" fill="#86A0AF"/>
<path d="M52.7084 21.6458C58.4268 21.6458 63.0625 17.01 63.0625 11.2916C63.0625 5.5732 58.4268 0.9375 52.7084 0.9375C46.9899 0.9375 42.3542 5.5732 42.3542 11.2916C42.3542 17.01 46.9899 21.6458 52.7084 21.6458Z" fill="#CBE2FF"/>
<path d="M58.7305 2.86841C59.9459 4.56528 60.6615 6.64428 60.6615 8.89066C60.6615 14.609 56.0258 19.2448 50.3074 19.2448C48.061 19.2448 45.982 18.5292 44.2852 17.3138C46.1637 19.9364 49.2363 21.6457 52.7083 21.6457C58.4267 21.6457 63.0624 17.0099 63.0624 11.2915C63.0624 7.81953 61.3532 4.74691 58.7305 2.86841Z" fill="#BED8FB"/>
<path d="M53.7285 0.9875C53.3929 0.954625 53.0526 0.9375 52.7084 0.9375C46.99 0.9375 42.3542 5.57325 42.3542 11.2916C42.3542 13.393 42.9809 15.3478 44.0565 16.9804L45.9431 15.7056C46.3534 15.4285 46.6261 14.9899 46.6935 14.4994L46.8577 13.303C46.914 12.8936 46.8227 12.4775 46.6004 12.1291L46.0507 11.268C45.6667 10.6664 45.6886 9.89137 46.106 9.3125C46.6156 8.60563 47.5694 8.38412 48.3384 8.79425L48.6401 8.95525C49.0561 9.17712 49.5444 9.22087 49.9932 9.07638L52.5205 8.263C53.2404 8.03125 53.7285 7.3615 53.7285 6.60512V0.9875Z" fill="#B3E59F"/>
<path d="M56.4816 16.3368L54.671 16.6197C53.9053 16.7393 53.2134 16.1472 53.2134 15.372V13.3145C53.2134 12.7227 53.6244 12.2103 54.2021 12.0819L56.7553 11.5145C57.7053 11.3034 58.527 12.2012 58.2328 13.1288L57.4901 15.4708C57.3456 15.9274 56.9549 16.2628 56.4816 16.3368Z" fill="#B3E59F"/>
<path d="M20.2651 32.1987C14.1783 32.1987 9.22632 37.1507 9.22632 43.2375C9.22632 44.9474 9.60657 46.5857 10.3567 48.1071C10.5857 48.5714 11.1474 48.7621 11.6122 48.5334C12.0766 48.3044 12.2674 47.7422 12.0384 47.278C11.4166 46.0169 11.1013 44.6574 11.1013 43.2375C11.1013 38.1846 15.2122 34.0737 20.2651 34.0737C25.3179 34.0737 29.4288 38.1846 29.4288 43.2375C29.4288 48.2911 25.3179 52.4025 20.2651 52.4025C18.1387 52.4025 16.1446 51.6965 14.4982 50.3607C14.0962 50.0345 13.5058 50.0959 13.1794 50.4981C12.8532 50.9002 12.9147 51.4906 13.3168 51.8169C15.2726 53.4037 17.7402 54.2776 20.2651 54.2776C26.3518 54.2776 31.3038 49.3251 31.3038 43.2376C31.3038 37.1507 26.3518 32.1987 20.2651 32.1987Z" fill="black"/>
<path d="M37.2837 42.0302L40.201 39.5396C40.4664 39.3131 40.5839 38.9581 40.5063 38.618C40.4287 38.2778 40.1687 38.009 39.8314 37.9201L36.1223 36.9418C35.6723 36.8232 35.2984 36.5147 35.0965 36.0955C34.8947 35.6762 34.8865 35.1916 35.0743 34.7657L36.622 31.2558C36.7628 30.9367 36.7147 30.5657 36.4972 30.293C36.2798 30.0203 35.9289 29.8908 35.5863 29.957L31.82 30.685C31.3633 30.7732 30.8924 30.6575 30.5287 30.3673C30.1648 30.0772 29.9473 29.6441 29.9317 29.179L29.8033 25.3451C29.7917 24.9965 29.5873 24.6832 29.273 24.5318C28.9588 24.3805 28.5864 24.4163 28.3067 24.6243L25.2293 26.9143C24.856 27.1922 24.3818 27.292 23.928 27.1886C23.4744 27.085 23.0903 26.7892 22.8745 26.3768L21.0955 22.9785C20.9338 22.6695 20.6138 22.4758 20.2649 22.4758C19.916 22.4758 19.596 22.6695 19.4343 22.9785L17.6553 26.3768C17.4394 26.7891 17.0554 27.085 16.6018 27.1886C16.148 27.2918 15.6738 27.1921 15.3005 26.9143L12.223 24.6243C11.9432 24.4161 11.5709 24.3806 11.2567 24.5318C10.9423 24.6832 10.7382 24.9965 10.7264 25.3451L10.598 29.179C10.5824 29.6441 10.3649 30.0772 10.001 30.3673C9.63716 30.6576 9.16653 30.7735 8.70966 30.685L4.94341 29.957C4.60078 29.8907 4.25003 30.0202 4.03253 30.293C3.81503 30.5657 3.76691 30.9366 3.90766 31.2558L5.45553 34.7656C5.64328 35.1915 5.63516 35.6761 5.43328 36.0953C5.23141 36.5145 4.85753 36.8231 4.40753 36.9417L0.698409 37.92C0.361159 38.0088 0.101159 38.2777 0.0235343 38.6178C-0.0540907 38.958 0.0635343 39.313 0.328784 39.5395L3.24616 42.0301C3.60003 42.3322 3.80303 42.7723 3.80303 43.2378C3.80303 43.7032 3.60003 44.1433 3.24616 44.4455L0.328909 46.9362C0.0635343 47.1627 -0.0539657 47.5177 0.0236593 47.8578C0.101284 48.198 0.361284 48.4668 0.698534 48.5557L4.40766 49.534C4.85766 49.6527 5.23141 49.9611 5.43341 50.3803C5.63528 50.7996 5.64341 51.2842 5.45566 51.7101L3.90778 55.22C3.76703 55.5391 3.81516 55.91 4.03266 56.1828C4.25016 56.4556 4.60128 56.5853 4.94353 56.5188L8.70978 55.7908C9.16641 55.7025 9.63728 55.8183 10.0012 56.1085C10.365 56.3986 10.5825 56.8317 10.5982 57.2968L10.7265 61.1306C10.7382 61.4792 10.9424 61.7925 11.2567 61.9438C11.5712 62.0951 11.9433 62.0596 12.2232 61.8513L15.3007 59.5613C15.6739 59.2836 16.1484 59.1836 16.6019 59.2871C17.0555 59.3906 17.4395 59.6865 17.6554 60.0987L19.4344 63.4972C19.5962 63.8062 19.9162 63.9998 20.265 63.9998C20.6139 63.9998 20.9339 63.8062 21.0957 63.4972L22.8747 60.0987C23.0905 59.6865 23.4744 59.3906 23.9282 59.2871C24.3818 59.1833 24.8562 59.2835 25.2295 59.5613L28.3069 61.8513C28.5868 62.0596 28.9592 62.0952 29.2733 61.9438C29.5877 61.7925 29.7918 61.4792 29.8035 61.1306L29.9319 57.2968C29.9475 56.8317 30.165 56.3986 30.5289 56.1085C30.8928 55.8183 31.3635 55.7026 31.8203 55.7908L35.5865 56.5188C35.9288 56.5852 36.2799 56.4556 36.4974 56.1828C36.7149 55.9101 36.7629 55.5392 36.6223 55.22L35.0745 51.7101C34.8868 51.2843 34.8948 50.7997 35.0968 50.3805C35.2987 49.9612 35.6725 49.6527 36.1225 49.534L39.8317 48.5557C40.1689 48.4668 40.4289 48.198 40.5065 47.8578C40.5842 47.5177 40.4665 47.1627 40.2013 46.9362L37.2839 44.4455C36.93 44.1433 36.727 43.7032 36.727 43.2378C36.7268 42.7726 36.9297 42.3323 37.2837 42.0302ZM36.0662 45.8716L37.6215 47.1995L35.644 47.721C34.6628 47.9797 33.8474 48.6526 33.4072 49.567C32.9669 50.4812 32.9492 51.5382 33.3587 52.4667L34.1839 54.338L32.1759 53.9498C31.1798 53.7572 30.153 54.0097 29.3597 54.6423C28.5662 55.2751 28.0917 56.2197 28.0578 57.2338L27.9893 59.2778L26.3487 58.057C25.5345 57.4512 24.5003 57.2335 23.5108 57.459C22.5214 57.6848 21.684 58.33 21.2134 59.229L20.2649 61.0408L19.3164 59.229C18.8457 58.33 18.0084 57.6848 17.019 57.459C16.7632 57.4006 16.5043 57.3718 16.247 57.3718C15.5095 57.3718 14.7848 57.6078 14.1813 58.0568L12.5407 59.2778L12.4722 57.2338C12.4383 56.2196 11.9638 55.2751 11.1703 54.6423C10.3769 54.0097 9.35028 53.7571 8.35403 53.9498L6.34616 54.338L7.17141 52.4667C7.58091 51.5382 7.56316 50.4812 7.12291 49.567C6.68266 48.6527 5.86728 47.9798 4.88603 47.7211L2.90853 47.1996L4.46391 45.8717C5.23566 45.2128 5.67828 44.253 5.67828 43.2381C5.67828 42.2232 5.23566 41.2633 4.46391 40.6043L2.90853 39.2765L4.88603 38.755C5.86728 38.4962 6.68253 37.8235 7.12278 36.9091C7.56316 35.9948 7.58091 34.9378 7.17141 34.0092L6.34616 32.138L8.35403 32.5261C9.35053 32.7188 10.3769 32.4662 11.1703 31.8335C11.9638 31.2007 12.4383 30.2561 12.4722 29.242L12.5407 27.198L14.1813 28.419C14.9954 29.0247 16.0298 29.2426 17.0192 29.017C18.0085 28.7911 18.8459 28.146 19.3165 27.2468L20.265 25.435L21.2135 27.2468C21.6843 28.1458 22.5215 28.7911 23.511 29.0168C24.5004 29.2427 25.5347 29.0247 26.3489 28.419L27.9895 27.198L28.058 29.242C28.0919 30.2562 28.5664 31.2007 29.3599 31.8335C30.1533 32.4662 31.1798 32.7186 32.1762 32.5261L34.1842 32.138L33.3589 34.0092C32.9494 34.9378 32.9672 35.9947 33.4074 36.9091C33.8477 37.8235 34.663 38.4962 35.6443 38.755L37.6218 39.2765L36.0664 40.6043C35.2945 41.2632 34.8519 42.2232 34.8519 43.2381C34.8519 44.253 35.2944 45.2127 36.0662 45.8716Z" fill="black"/>
<path d="M50.1826 28.916C48.4134 28.916 46.7442 29.6921 45.6034 31.0455C45.2696 31.4414 45.32 32.0328 45.7159 32.3665C46.1117 32.7003 46.7031 32.6499 47.0369 32.254C47.8207 31.3243 48.9672 30.791 50.1825 30.791C52.4507 30.791 54.2962 32.6359 54.2962 34.9035C54.2962 37.1718 52.4507 39.0173 50.1825 39.0173C48.174 39.0173 46.4697 37.5831 46.1302 35.6073C46.0426 35.097 45.5585 34.7546 45.0475 34.842C44.5371 34.9296 44.1946 35.4145 44.2822 35.9248C44.7769 38.8031 47.2582 40.8923 50.1825 40.8923C53.4847 40.8923 56.1712 38.2058 56.1712 34.9035C56.1714 31.602 53.4849 28.916 50.1826 28.916Z" fill="black"/>
<path d="M27.2744 15.2061C27.2744 17.8118 29.3943 19.9317 32 19.9317C34.6058 19.9317 36.7257 17.8118 36.7257 15.2061C36.7257 12.6003 34.6058 10.4805 32 10.4805C29.3943 10.4805 27.2744 12.6003 27.2744 15.2061ZM32 12.3555C33.5719 12.3555 34.8507 13.6342 34.8507 15.2061C34.8507 16.778 33.5719 18.0567 32 18.0567C30.4282 18.0567 29.1494 16.778 29.1494 15.2061C29.1494 13.6342 30.4282 12.3555 32 12.3555Z" fill="black"/>
<path d="M38.0609 5.91563C39.6918 5.91563 41.0188 4.58875 41.0188 2.95775C41.0188 1.32675 39.6919 0 38.0609 0C36.43 0 35.103 1.32687 35.103 2.95788C35.103 4.58887 36.43 5.91563 38.0609 5.91563ZM38.0609 1.875C38.6579 1.875 39.1438 2.36075 39.1438 2.95788C39.1438 3.555 38.658 4.04075 38.0609 4.04075C37.4639 4.04075 36.978 3.555 36.978 2.95788C36.978 2.36075 37.4639 1.875 38.0609 1.875Z" fill="black"/>
<path d="M52.7088 22.5836C58.9348 22.5836 64 17.5179 64 11.2911C64 9.10863 63.3753 6.98962 62.1934 5.163C61.9121 4.72825 61.3316 4.60413 60.8969 4.88525C60.4621 5.1665 60.3379 5.747 60.6191 6.18175C61.6044 7.70425 62.125 9.471 62.125 11.2913C62.125 16.484 57.9009 20.7087 52.7088 20.7087C49.7568 20.7087 47.1189 19.3424 45.3909 17.2101L46.4676 16.4827C47.0979 16.0571 47.5186 15.3807 47.622 14.627L47.7861 13.4314C47.8731 12.8022 47.7326 12.1608 47.3905 11.6248L46.8409 10.764C46.6624 10.4844 46.6724 10.1299 46.866 9.861C47.0169 9.65188 47.2614 9.52687 47.52 9.52687C47.6525 9.52687 47.779 9.55862 47.8979 9.62212L48.1991 9.78238C48.8355 10.1217 49.5941 10.1895 50.2805 9.96887L52.8078 9.15537C53.9191 8.79775 54.6659 7.77287 54.6659 6.60525V2.07987C55.7825 2.316 56.8488 2.75338 57.8153 3.37937C58.2499 3.66088 58.8304 3.53675 59.1118 3.10212C59.3933 2.6675 59.2691 2.087 58.8345 1.80562C57.0108 0.624375 54.8924 0 52.7088 0C46.4821 0 41.4163 5.06525 41.4163 11.2913C41.4164 17.5179 46.4821 22.5836 52.7088 22.5836ZM52.7088 1.875C52.7363 1.875 52.7635 1.87625 52.791 1.8765V6.60525C52.791 6.95563 52.567 7.26312 52.2335 7.3705L49.7064 8.184C49.5005 8.25037 49.2726 8.22975 49.0805 8.12737L48.7801 7.96763C48.3936 7.76113 47.9579 7.65188 47.5201 7.65188C46.6608 7.65188 45.8478 8.06775 45.3453 8.7645C44.6995 9.6605 44.6661 10.8412 45.2606 11.7727L45.8104 12.6336C45.9129 12.7943 45.955 12.9862 45.9289 13.1753L45.7646 14.3719C45.7335 14.5981 45.6074 14.8011 45.4183 14.9288L44.3613 15.6429C43.6794 14.3403 43.2914 12.8606 43.2914 11.2913C43.2914 6.09913 47.516 1.875 52.7088 1.875Z" fill="black"/>
<path d="M56.552 10.5995L53.9988 11.1668C52.9844 11.3923 52.2759 12.2756 52.2759 13.3147V15.3722C52.2759 16.0158 52.5564 16.6251 53.0454 17.0437C53.4471 17.3876 53.9541 17.5725 54.475 17.5725C54.5881 17.5725 54.702 17.5637 54.8156 17.546L56.6263 17.2631C57.4565 17.1333 58.1299 16.5551 58.3839 15.7542L59.1264 13.4123C59.3671 12.6532 59.1899 11.8492 58.6521 11.2617C58.1146 10.6743 57.3293 10.4265 56.552 10.5995ZM57.3393 12.8456L56.5968 15.1876C56.5593 15.306 56.4598 15.3913 56.337 15.4106L54.5264 15.6935C54.398 15.714 54.3073 15.6556 54.2648 15.6192C54.2223 15.5828 54.151 15.5023 54.151 15.3721V13.3146C54.151 13.161 54.2558 13.0305 54.4056 12.9971L56.9588 12.4297C56.9859 12.4237 57.0113 12.4211 57.0351 12.4211C57.1519 12.4211 57.2299 12.4847 57.2693 12.5277C57.3166 12.5795 57.3888 12.6897 57.3393 12.8456Z" fill="black"/>
<path d="M23.7925 8.81993C24.3103 8.81993 24.73 8.40018 24.73 7.88243V7.55718H25.0553C25.573 7.55718 25.9928 7.13743 25.9928 6.61968C25.9928 6.10193 25.573 5.68218 25.0553 5.68218H24.73V5.35693C24.73 4.83918 24.3103 4.41943 23.7925 4.41943C23.2748 4.41943 22.855 4.83918 22.855 5.35693V5.68218H22.5298C22.012 5.68218 21.5923 6.10193 21.5923 6.61968C21.5923 7.13743 22.012 7.55718 22.5298 7.55718H22.855V7.88243C22.855 8.40018 23.2748 8.81993 23.7925 8.81993Z" fill="black"/>
<path d="M57.6866 49.5514V49.2261H58.0118C58.5296 49.2261 58.9493 48.8064 58.9493 48.2886C58.9493 47.7709 58.5296 47.3511 58.0118 47.3511H57.6866V47.0259C57.6866 46.5081 57.2668 46.0884 56.7491 46.0884C56.2313 46.0884 55.8116 46.5081 55.8116 47.0259V47.3511H55.4863C54.9686 47.3511 54.5488 47.7709 54.5488 48.2886C54.5488 48.8064 54.9686 49.2261 55.4863 49.2261H55.8116V49.5514C55.8116 50.0691 56.2313 50.4889 56.7491 50.4889C57.2668 50.4889 57.6866 50.0693 57.6866 49.5514Z" fill="black"/>
<path d="M50.9482 44.1958C50.433 44.1646 49.987 44.5578 49.9555 45.0746C49.5632 51.5152 47.1477 57.5257 42.9701 62.4561C42.6353 62.8512 42.6842 63.4427 43.0793 63.7775C43.2556 63.9267 43.4707 63.9997 43.685 63.9997C43.951 63.9997 44.2153 63.8871 44.4007 63.6683C48.8421 58.4266 51.4101 52.0365 51.8271 45.1887C51.8585 44.6718 51.4651 44.2273 50.9482 44.1958Z" fill="black"/>
<path d="M46.1135 27.6342C46.2868 27.6342 46.4621 27.5862 46.6188 27.4857C47.0545 27.2062 47.1813 26.6263 46.9019 26.1904C44.915 23.0922 42.4256 20.3835 39.5028 18.1399C39.0921 17.8247 38.5035 17.902 38.1883 18.3127C37.873 18.7234 37.9504 19.3119 38.361 19.6272C41.1114 21.7384 43.454 24.2872 45.3235 27.2025C45.5025 27.4818 45.8048 27.6342 46.1135 27.6342Z" fill="black"/>
<path d="M0.93836 20.3428C1.14599 20.3428 1.35498 20.2742 1.52874 20.1331C6.80324 15.8504 13.4572 13.4919 20.2651 13.4919C21.243 13.4919 22.2292 13.5399 23.1964 13.6344C23.5807 13.6721 23.9695 13.7177 24.352 13.7702C24.8661 13.8416 25.338 13.4819 25.4084 12.9691C25.4789 12.4561 25.1201 11.9832 24.6072 11.9127C24.2007 11.8568 23.7874 11.8083 23.3789 11.7683C22.3514 11.6678 21.3037 11.6169 20.2651 11.6169C13.0281 11.6169 5.95436 14.1244 0.34686 18.6776C-0.05514 19.0039 -0.11639 19.5943 0.209985 19.9963C0.39536 20.2244 0.66561 20.3428 0.93836 20.3428Z" fill="black"/>
<path d="M0.938453 6.53875C1.08283 6.53875 1.22945 6.50525 1.36658 6.43463C7.24658 3.40913 13.605 1.875 20.265 1.875C23.6462 1.875 27.0087 2.28387 30.2591 3.09025C30.7618 3.21487 31.2701 2.90863 31.3947 2.40613C31.5195 1.90363 31.2131 1.39512 30.7106 1.2705C27.3127 0.427375 23.7982 0 20.265 0C13.3036 0 6.65658 1.604 0.508703 4.7675C0.0483279 5.00437 -0.132797 5.56962 0.104078 6.03013C0.270328 6.35325 0.598328 6.53875 0.938453 6.53875Z" fill="black"/>
<path d="M59.1725 26.5845C58.6921 26.7777 58.4595 27.3238 58.6527 27.8041C60.6268 32.7096 61.6278 37.9024 61.6278 43.2379C61.6278 49.994 59.9632 56.6971 56.814 62.6222C56.571 63.0795 56.7446 63.6471 57.2018 63.8901C57.3421 63.9646 57.4926 64 57.6411 64C57.9767 64 58.3012 63.8194 58.4697 63.5023C61.7625 57.3071 63.503 50.2998 63.503 43.238C63.503 37.6615 62.4563 32.2333 60.3922 27.1043C60.199 26.6238 59.6528 26.391 59.1725 26.5845Z" fill="black"/>
</g>
<defs>
<clipPath id="clip0_45_719">
<rect width="64" height="64" fill="white"/>
</clipPath>
</defs>
</svg>
