<svg width="64" height="64" viewBox="0 0 64 64" fill="none" xmlns="http://www.w3.org/2000/svg">
<g clip-path="url(#clip0_45_679)">
<path d="M34.5392 28.7644L33.3621 27.7766V54.5117H58.4379C58.7831 54.5117 59.0629 54.2319 59.0629 53.8867V28.7644H34.5392Z" fill="#FFEEE6"/>
<path d="M59.0629 34.1095V28.7644H55.125V35.1192C56.3491 34.4519 57.7051 34.1152 59.0629 34.1095Z" fill="#FFDFCF"/>
<path d="M55.125 46.3702V53.8869C55.125 54.232 54.8451 54.5119 54.5 54.5119H58.4379C58.783 54.5119 59.0629 54.232 59.0629 53.8869V45.1775C57.8524 45.9126 56.495 46.31 55.125 46.3702Z" fill="#FFDFCF"/>
<path d="M1.94409 28.0448V53.8868C1.94409 54.2319 2.22397 54.5118 2.56909 54.5118H33.4871V28.0448L17.7156 14.8113L1.94409 28.0448Z" fill="#FFEEE6"/>
<path d="M17.7156 14.8113L14.6482 17.385L28.4714 28.9838C28.7544 29.2213 28.9179 29.5719 28.9179 29.9414V54.5119H33.4871V28.0448L17.7156 14.8113Z" fill="#FFDFCF"/>
<path d="M11.6775 54.5117H23.7535V35.4795C23.7535 35.2724 23.5856 35.1045 23.3785 35.1045H12.0525C11.8454 35.1045 11.6775 35.2724 11.6775 35.4795V54.5117Z" fill="#FE646F"/>
<path d="M23.3786 35.1045H19.5C19.7071 35.1045 19.875 35.2724 19.875 35.4795V54.5117H23.7536V35.4795C23.7536 35.2725 23.5858 35.1045 23.3786 35.1045Z" fill="#FD4755"/>
<path d="M37.2221 22.8585L27.6315 14.8113H17.7156L34.4937 28.8894H61.7018L54.5143 22.8585H37.2221Z" fill="#FE646F"/>
<path d="M49.2988 22.8586L56.4863 28.8895H61.702L54.5143 22.8586H49.2988Z" fill="#FD4755"/>
<path d="M47.1279 9.48804H21.2874L37.2221 22.8585H63.0625L47.1279 9.48804Z" fill="#C8EFFE"/>
<path d="M47.128 9.48804H43.2156L59.1502 22.8585H63.0626L47.128 9.48804Z" fill="#99E6FC"/>
<path d="M39.0069 34.7845C37.7021 37.818 38.286 41.4695 40.7634 43.9469C43.2408 46.4243 46.8923 47.0082 49.9258 45.7034C51.2306 42.6699 50.6466 39.0184 48.1693 36.541C45.692 34.0637 42.0404 33.4797 39.0069 34.7845Z" fill="#A2E62E"/>
<path d="M48.1692 36.541C45.6918 34.0636 42.0403 33.4797 39.0068 34.7845C38.7239 35.4422 38.5301 36.1291 38.4248 36.8267C40.9511 36.4385 43.6214 37.2155 45.5674 39.1615C47.5076 41.1016 48.2862 43.762 47.9059 46.2816C48.5958 46.1756 49.2751 45.9832 49.9257 45.7034C51.2306 42.67 50.6466 39.0184 48.1692 36.541Z" fill="#97D729"/>
<path d="M62.3865 34.7845C63.6913 37.818 63.1074 41.4695 60.63 43.9469C58.1526 46.4243 54.5011 47.0082 51.4676 45.7034C50.1628 42.6699 50.7468 39.0184 53.2241 36.541C55.7015 34.0637 59.353 33.4797 62.3865 34.7845Z" fill="#A2E62E"/>
<path d="M62.3865 34.7845C61.7478 34.5098 61.0817 34.3199 60.4051 34.2126C60.7872 36.7339 60.009 39.3965 58.0675 41.338C56.1116 43.2939 53.4241 44.0685 50.8865 43.6663C50.992 44.362 51.1854 45.0471 51.4676 45.7033C54.5011 47.008 58.1526 46.4241 60.63 43.9468C63.1073 41.4695 63.6912 37.8179 62.3865 34.7845Z" fill="#97D729"/>
<path d="M15.0986 42.3311C14.5808 42.3311 14.1611 42.7508 14.1611 43.2686V45.3096C14.1611 45.8273 14.5808 46.2471 15.0986 46.2471C15.6165 46.2471 16.0361 45.8273 16.0361 45.3096V43.2686C16.0361 42.7508 15.6165 42.3311 15.0986 42.3311Z" fill="black"/>
<path d="M63.2388 34.4142C63.144 34.1938 62.9684 34.0182 62.748 33.9234C61.8519 33.5379 60.9228 33.3024 59.9913 33.209V29.8269H61.6926C62.0868 29.8269 62.4389 29.5804 62.5737 29.21C62.7084 28.8397 62.5972 28.4245 62.2953 28.1712L57.081 23.796H63.0534C63.4475 23.796 63.7997 23.5495 63.9344 23.1792C64.0692 22.8088 63.9579 22.3937 63.656 22.1403L47.7215 8.76991C47.5525 8.62816 47.3393 8.55054 47.1189 8.55054H32.366C31.8482 8.55054 31.4285 8.97029 31.4285 9.48804C31.4285 10.0058 31.8482 10.4255 32.366 10.4255H35.0847L41.0578 15.4374H29.8273L23.8541 10.4255H27.991C28.5089 10.4255 28.9285 10.0058 28.9285 9.48804C28.9285 8.97029 28.5089 8.55054 27.991 8.55054H21.2784C20.8843 8.55054 20.5322 8.79704 20.3974 9.16741C20.2626 9.53779 20.3739 9.95291 20.6758 10.2063L23.847 12.8672V13.8738H17.7066C17.4505 13.8738 17.2133 13.9792 17.0408 14.1537L0.3349 28.1712C-0.0617251 28.504 -0.113475 29.0954 0.2194 29.4919C0.404775 29.7129 0.6704 29.8268 0.938025 29.8268C0.9609 29.8268 0.98365 29.8227 1.00652 29.8209V39.7715C1.00652 40.2893 1.42615 40.709 1.94402 40.709C2.4619 40.709 2.88152 40.2893 2.88152 39.7715V28.4819L17.711 16.0388L32.5495 28.4894V53.5742H24.691V35.4795C24.691 34.7558 24.1023 34.167 23.3785 34.167H12.0526C11.3289 34.167 10.7401 34.7558 10.7401 35.4795V53.5743H2.88165V44.1467C2.88165 43.6289 2.46202 43.2092 1.94415 43.2092C1.42628 43.2092 1.00665 43.6289 1.00665 44.1467V53.8868C1.00665 54.7484 1.70752 55.4493 2.56915 55.4493H41C41.5179 55.4493 41.9375 55.0295 41.9375 54.5118C41.9375 53.994 41.5179 53.5743 41 53.5743H34.4245V29.8243C34.4445 29.8255 34.4645 29.8269 34.4847 29.8269H58.1164V33.2137C56.0595 33.4297 54.092 34.3387 52.5523 35.8783C51.7613 36.6693 51.1378 37.5738 50.6878 38.5448C50.2378 37.5738 49.6144 36.6693 48.8233 35.8783C46.13 33.1852 42.128 32.4179 38.6275 33.9234C38.4072 34.0182 38.2317 34.1938 38.1368 34.4142C36.6309 37.9147 37.3983 41.9168 40.0915 44.6099C41.869 46.3874 44.2163 47.3259 46.6135 47.3259C47.6419 47.3259 48.679 47.1504 49.6845 46.797L49.7503 46.8628V53.5743H45.366C44.8482 53.5743 44.4285 53.994 44.4285 54.5118C44.4285 55.0295 44.8482 55.4493 45.366 55.4493H58.4289C59.2905 55.4493 59.9914 54.7484 59.9914 53.8868V45.6864C60.4472 45.3707 60.8809 45.013 61.2842 44.6099C63.9773 41.9168 64.7445 37.9147 63.2388 34.4142ZM49.4964 43.9572L43.1714 37.6322C42.8052 37.266 42.2117 37.266 41.8455 37.6322C41.4794 37.9983 41.4794 38.5919 41.8455 38.9579L48.1705 45.2829C45.753 45.8054 43.2183 45.0848 41.4175 43.284C39.3596 41.2263 38.7123 38.2097 39.7188 35.5053C42.4234 34.4989 45.4399 35.1462 47.4974 37.2039C49.2982 39.0047 50.0188 41.5397 49.4964 43.9572ZM60.4778 21.921H51.702L46.2095 17.3124H54.9853L60.4778 21.921ZM38.0019 10.4255H46.7777L52.7508 15.4374H43.975L38.0019 10.4255ZM43.2923 17.3124L48.7847 21.921H37.5542L32.0619 17.3124H43.2923ZM12.6151 53.5743V36.042H22.816V53.5743H12.6151ZM34.8259 27.9519L20.2824 15.7488H27.2813L36.6104 23.5767C36.7794 23.7184 36.9927 23.796 37.213 23.796H39.3246V25.2397C39.3246 25.7574 39.7443 26.1772 40.2621 26.1772C40.78 26.1772 41.1996 25.7574 41.1996 25.2397V23.796H54.122V25.2397C54.122 25.7574 54.5417 26.1772 55.0595 26.1772C55.5468 26.1772 55.9469 25.8054 55.9924 25.3302L59.117 27.9519H34.8259ZM58.1164 53.5743H51.6253V46.8628L51.691 46.797C52.6968 47.1504 53.7337 47.3259 54.7621 47.3259C55.9109 47.3259 57.0477 47.108 58.1164 46.6878V53.5743ZM59.9582 43.284C58.1574 45.0848 55.6225 45.8053 53.2052 45.2829L59.53 38.958C59.8961 38.5919 59.8961 37.9983 59.53 37.6323C59.1638 37.2662 58.5703 37.2662 58.2042 37.6323L51.8793 43.9572C51.3569 41.5397 52.0775 39.0048 53.8782 37.2042C55.9359 35.1463 58.9523 34.499 61.6568 35.5055C62.6633 38.2098 62.0159 41.2264 59.9582 43.284Z" fill="black"/>
</g>
<defs>
<clipPath id="clip0_45_679">
<rect width="64" height="64" fill="white"/>
</clipPath>
</defs>
</svg>
