<svg width="23" height="23" viewBox="0 0 23 23" fill="none" xmlns="http://www.w3.org/2000/svg">
<path d="M9.9798 19.1838C9.9771 19.1838 9.97396 19.1838 9.97126 19.1838C9.85986 19.1816 9.75474 19.134 9.67927 19.0522L1.97697 10.677C1.8449 10.5332 1.83277 10.3167 1.94822 10.159C2.06367 10.0018 2.2739 9.94789 2.45089 10.0305L9.50048 13.3314C9.55978 13.3593 9.62986 13.3458 9.67523 13.2986L20.4286 2.05961C20.5742 1.90733 20.8123 1.8907 20.9776 2.02188C21.1429 2.15305 21.1811 2.38844 21.0656 2.56498L10.3688 18.9516C10.3535 18.9754 10.3356 18.997 10.3158 19.0172L10.2686 19.0643C10.1918 19.1407 10.0876 19.1838 9.9798 19.1838Z" fill="#0C42C8"/>
</svg>
