<svg width="57" height="57" viewBox="0 0 57 57" fill="none" xmlns="http://www.w3.org/2000/svg">
<path d="M28.4994 0C16.8889 0 7.44336 9.4455 7.44336 21.0561C7.44336 24.8784 9.15757 28.9892 9.22941 29.1626C9.78306 30.4768 10.8755 32.518 11.6632 33.7145L26.1003 55.5892C26.6911 56.486 27.5655 57 28.4994 57C29.4333 57 30.3078 56.486 30.8986 55.5905L45.3368 33.7145C46.1258 32.518 47.217 30.4768 47.7707 29.1626C47.8425 28.9905 49.5555 24.8796 49.5555 21.0561C49.5555 9.4455 40.11 0 28.4994 0ZM45.4867 28.2015C44.9925 29.3794 43.9756 31.2782 43.2684 32.3508L28.8301 54.2268C28.5452 54.6591 28.4548 54.6591 28.17 54.2268L13.7317 32.3508C13.0245 31.2782 12.0076 29.3782 11.5134 28.2003C11.4923 28.1495 9.92054 24.3656 9.92054 21.0561C9.92054 10.8117 18.255 2.47718 28.4994 2.47718C38.7438 2.47718 47.0783 10.8117 47.0783 21.0561C47.0783 24.3705 45.5028 28.1643 45.4867 28.2015Z" fill="#005DB5"/>
<path d="M28.4989 9.91003C22.3518 9.91003 17.3516 14.9115 17.3516 21.0574C17.3516 27.2033 22.3518 32.2047 28.4989 32.2047C34.646 32.2047 39.6462 27.2033 39.6462 21.0574C39.6462 14.9115 34.646 9.91003 28.4989 9.91003ZM28.4989 29.7275C23.7192 29.7275 19.8287 25.8383 19.8287 21.0574C19.8287 16.2764 23.7192 12.3872 28.4989 12.3872C33.2786 12.3872 37.169 16.2764 37.169 21.0574C37.169 25.8383 33.2786 29.7275 28.4989 29.7275Z" fill="#005DB5"/>
</svg>
