<svg width="57" height="57" viewBox="0 0 57 57" fill="none" xmlns="http://www.w3.org/2000/svg">
<path d="M55.8125 33.2498C55.8125 30.3813 54.1051 27.9096 51.6562 26.7811V26.1248C51.6562 13.3562 41.2685 2.96851 28.5 2.96851C15.7315 2.96851 5.34375 13.3562 5.34375 26.1248V26.7811C2.89489 27.9096 1.1875 30.3813 1.1875 33.2498C1.1875 37.1784 4.38354 40.3748 8.3125 40.3748H10.6875C11.3433 40.3748 11.875 39.843 11.875 39.1873V27.3123C11.875 26.6565 11.3433 26.1248 10.6875 26.1248H8.3125C8.11209 26.1248 7.91502 26.1385 7.71875 26.1548V26.1248C7.71875 14.6661 17.0413 5.34351 28.5 5.34351C39.9587 5.34351 49.2812 14.6661 49.2812 26.1248V26.1548C49.085 26.1385 48.8879 26.1248 48.6875 26.1248H46.3125C45.6567 26.1248 45.125 26.6565 45.125 27.3123V39.1873C45.125 39.843 45.6567 40.3748 46.3125 40.3748H48.6875C48.8879 40.3748 49.085 40.361 49.2812 40.3447V42.156C49.2812 46.0847 46.0852 49.281 42.1562 49.281H33.25C33.25 47.9715 32.1848 46.906 30.875 46.906H24.9375C23.6277 46.906 22.5625 47.9715 22.5625 49.281V51.656C22.5625 52.9656 23.6277 54.031 24.9375 54.031H30.875C32.1848 54.031 33.25 52.9656 33.25 51.656H42.1562C47.3945 51.656 51.6562 47.3942 51.6562 42.156V39.7185C54.1051 38.5899 55.8125 36.1182 55.8125 33.2498ZM9.5 28.4998V37.9998H8.3125C5.69339 37.9998 3.5625 35.8689 3.5625 33.2498C3.5625 30.6306 5.69339 28.4998 8.3125 28.4998H9.5ZM24.9375 51.656V49.281H30.875L30.8759 50.46C30.8758 50.4629 30.875 50.4656 30.875 50.4685C30.875 50.4715 30.8758 50.4742 30.8759 50.4772L30.8767 51.656H24.9375ZM48.6875 37.9998H47.5V28.4998H48.6875C51.3066 28.4998 53.4375 30.6306 53.4375 33.2498C53.4375 35.8689 51.3066 37.9998 48.6875 37.9998ZM28.5 40.9685C35.7027 40.9685 41.5625 35.1087 41.5625 27.906C41.5625 20.7033 35.7027 14.8435 28.5 14.8435C21.2973 14.8435 15.4375 20.7033 15.4375 27.906C15.4375 30.2364 16.062 32.5139 17.2483 34.5239L16.0527 40.7444C15.9698 41.1764 16.1321 41.6188 16.4754 41.8945C16.6899 42.0667 16.9532 42.156 17.2188 42.156C17.3782 42.156 17.5382 42.1241 17.6896 42.0589L23.0211 39.7575C24.7496 40.5615 26.59 40.9685 28.5 40.9685ZM18.8087 38.989L19.6674 34.5193C19.7248 34.2204 19.6656 33.9111 19.5016 33.6548C18.3964 31.9298 17.8125 29.9418 17.8125 27.906C17.8125 22.0129 22.6071 17.2185 28.5 17.2185C34.3929 17.2185 39.1875 22.0129 39.1875 27.906C39.1875 33.7991 34.3929 38.5935 28.5 38.5935C26.7831 38.5935 25.1341 38.1905 23.5987 37.3959C23.2827 37.2321 22.9092 37.2184 22.5822 37.3602L18.8087 38.989ZM28.5 31.4685H22.5625C21.9067 31.4685 21.375 30.9368 21.375 30.281C21.375 29.6252 21.9067 29.0935 22.5625 29.0935H28.5C29.1558 29.0935 29.6875 29.6252 29.6875 30.281C29.6875 30.9368 29.1558 31.4685 28.5 31.4685ZM21.375 25.531C21.375 24.8752 21.9067 24.3435 22.5625 24.3435H34.4375C35.0933 24.3435 35.625 24.8752 35.625 25.531C35.625 26.1868 35.0933 26.7185 34.4375 26.7185H22.5625C21.9067 26.7185 21.375 26.1868 21.375 25.531Z" fill="#005DB5"/>
</svg>
