<svg width="39" height="39" viewBox="0 0 39 39" fill="none" xmlns="http://www.w3.org/2000/svg">
<path d="M19.5 0C11.5559 0 5.0932 6.46271 5.0932 14.4068C5.0932 17.022 6.26608 19.8347 6.31523 19.9534C6.69405 20.8525 7.44151 22.2492 7.98049 23.0678L17.8585 38.0347C18.2627 38.6483 18.861 39 19.5 39C20.139 39 20.7373 38.6483 21.1415 38.0356L31.0203 23.0678C31.5602 22.2492 32.3068 20.8525 32.6856 19.9534C32.7347 19.8356 33.9068 17.0229 33.9068 14.4068C33.9068 6.46271 27.444 0 19.5 0ZM31.1229 19.2958C30.7847 20.1017 30.089 21.4008 29.6051 22.1347L19.7263 37.1025C19.5313 37.3983 19.4695 37.3983 19.2746 37.1025L9.39574 22.1347C8.91184 21.4008 8.21608 20.1008 7.87795 19.2949C7.86354 19.2602 6.78812 16.6712 6.78812 14.4068C6.78812 7.39746 12.4907 1.69492 19.5 1.69492C26.5093 1.69492 32.2118 7.39746 32.2118 14.4068C32.2118 16.6746 31.1339 19.2703 31.1229 19.2958Z" fill="#BFDD34"/>
<path d="M19.5 6.78027C15.2941 6.78027 11.8729 10.2023 11.8729 14.4074C11.8729 18.6125 15.2941 22.0345 19.5 22.0345C23.7059 22.0345 27.1271 18.6125 27.1271 14.4074C27.1271 10.2023 23.7059 6.78027 19.5 6.78027ZM19.5 20.3396C16.2296 20.3396 13.5678 17.6786 13.5678 14.4074C13.5678 11.1362 16.2296 8.47519 19.5 8.47519C22.7703 8.47519 25.4322 11.1362 25.4322 14.4074C25.4322 17.6786 22.7703 20.3396 19.5 20.3396Z" fill="#BFDD34"/>
</svg>
