<svg width="39" height="39" viewBox="0 0 39 39" fill="none" xmlns="http://www.w3.org/2000/svg">
<path d="M38.1875 22.75C38.1875 20.7874 37.0192 19.0962 35.3437 18.324V17.875C35.3437 9.13864 28.2363 2.03125 19.5 2.03125C10.7636 2.03125 3.65622 9.13864 3.65622 17.875V18.324C1.98069 19.0962 0.812469 20.7874 0.812469 22.75C0.812469 25.438 2.99924 27.625 5.68747 27.625H7.31247C7.76117 27.625 8.12497 27.2612 8.12497 26.8125V18.6875C8.12497 18.2388 7.76117 17.875 7.31247 17.875H5.68747C5.55035 17.875 5.41551 17.8844 5.28122 17.8956V17.875C5.28122 10.0349 11.6598 3.65625 19.5 3.65625C27.3401 3.65625 33.7187 10.0349 33.7187 17.875V17.8956C33.5844 17.8844 33.4496 17.875 33.3125 17.875H31.6875C31.2388 17.875 30.875 18.2388 30.875 18.6875V26.8125C30.875 27.2612 31.2388 27.625 31.6875 27.625H33.3125C33.4496 27.625 33.5844 27.6156 33.7187 27.6044V28.8437C33.7187 31.5318 31.5319 33.7187 28.8437 33.7187H22.75C22.75 32.8227 22.0212 32.0937 21.125 32.0937H17.0625C16.1663 32.0937 15.4375 32.8227 15.4375 33.7187V35.3437C15.4375 36.2398 16.1663 36.9687 17.0625 36.9687H21.125C22.0212 36.9687 22.75 36.2398 22.75 35.3437H28.8437C32.4278 35.3437 35.3437 32.4278 35.3437 28.8437V27.176C37.0192 26.4038 38.1875 24.7126 38.1875 22.75ZM6.49997 19.5V26H5.68747C3.89545 26 2.43747 24.542 2.43747 22.75C2.43747 20.958 3.89545 19.5 5.68747 19.5H6.49997ZM17.0625 35.3437V33.7187H21.125L21.1256 34.5254C21.1255 34.5274 21.125 34.5292 21.125 34.5312C21.125 34.5333 21.1255 34.5352 21.1256 34.5372L21.1262 35.3437H17.0625ZM33.3125 26H32.5V19.5H33.3125C35.1045 19.5 36.5625 20.958 36.5625 22.75C36.5625 24.542 35.1045 26 33.3125 26ZM19.5 28.0312C24.4281 28.0312 28.4375 24.0219 28.4375 19.0937C28.4375 14.1656 24.4281 10.1562 19.5 10.1562C14.5718 10.1562 10.5625 14.1656 10.5625 19.0937C10.5625 20.6882 10.9897 22.2465 11.8014 23.6218L10.9834 27.8779C10.9267 28.1735 11.0377 28.4762 11.2726 28.6648C11.4194 28.7827 11.5995 28.8437 11.7812 28.8437C11.8903 28.8437 11.9998 28.8219 12.1034 28.7773L15.7513 27.2027C16.9339 27.7527 18.1931 28.0312 19.5 28.0312ZM12.869 26.6768L13.4566 23.6186C13.4959 23.4141 13.4554 23.2025 13.3431 23.0271C12.587 21.8468 12.1875 20.4867 12.1875 19.0937C12.1875 15.0616 15.468 11.7812 19.5 11.7812C23.5319 11.7812 26.8125 15.0616 26.8125 19.0937C26.8125 23.1259 23.5319 26.4062 19.5 26.4062C18.3253 26.4062 17.197 26.1305 16.1464 25.5868C15.9302 25.4747 15.6747 25.4654 15.451 25.5624L12.869 26.6768ZM19.5 21.5312H15.4375C14.9888 21.5312 14.625 21.1674 14.625 20.7187C14.625 20.27 14.9888 19.9062 15.4375 19.9062H19.5C19.9487 19.9062 20.3125 20.27 20.3125 20.7187C20.3125 21.1674 19.9487 21.5312 19.5 21.5312ZM14.625 17.4687C14.625 17.02 14.9888 16.6562 15.4375 16.6562H23.5625C24.0112 16.6562 24.375 17.02 24.375 17.4687C24.375 17.9174 24.0112 18.2812 23.5625 18.2812H15.4375C14.9888 18.2812 14.625 17.9174 14.625 17.4687Z" fill="#BFDD34"/>
</svg>
