<svg width="39" height="39" viewBox="0 0 39 39" fill="none" xmlns="http://www.w3.org/2000/svg">
<g clip-path="url(#clip0_221_1043)">
<path d="M19.5001 38.0246C9.28539 38.0246 0.975098 29.7143 0.975098 19.4996C0.975098 9.2849 9.28539 0.974609 19.5001 0.974609C29.7148 0.974609 38.0251 9.2849 38.0251 19.4996C38.0251 29.7143 29.7148 38.0246 19.5001 38.0246ZM19.5001 2.73889C10.2583 2.73889 2.73938 10.2578 2.73938 19.4996C2.73938 28.7414 10.2583 36.2603 19.5001 36.2603C28.7419 36.2603 36.2608 28.7414 36.2608 19.4996C36.2608 10.2578 28.7419 2.73889 19.5001 2.73889Z" fill="#BFDD34"/>
<path d="M28.1253 20.382H19.4999C19.0127 20.382 18.6178 19.987 18.6178 19.4998V6.85578C18.6178 6.36857 19.0127 5.97363 19.4999 5.97363C19.9871 5.97363 20.3821 6.36857 20.3821 6.85578V18.6177H28.1253C28.6125 18.6177 29.0075 19.0126 29.0075 19.4998C29.0075 19.987 28.6125 20.382 28.1253 20.382Z" fill="#BFDD34"/>
</g>
<defs>
<clipPath id="clip0_221_1043">
<rect width="39" height="39" fill="white"/>
</clipPath>
</defs>
</svg>
